M48
; DRILL file {KiCad 9.0.2} date 2025-10-10T19:45:04-0700
; FORMAT={-:-/ absolute / metric / decimal}
; #@! TF.CreationDate,2025-10-10T19:45:04-07:00
; #@! TF.GenerationSoftware,Kicad,Pcbnew,9.0.2
; #@! TF.FileFunction,Plated,1,2,PTH
FMAT,2
METRIC
; #@! TA.AperFunction,Plated,PTH,ComponentDrill
T1C0.800
; #@! TA.AperFunction,Plated,PTH,ComponentDrill
T2C0.900
; #@! TA.AperFunction,Plated,PTH,ViaDrill
T3C1.000
; #@! TA.AperFunction,Plated,PTH,ComponentDrill
T4C1.000
; #@! TA.AperFunction,Plated,PTH,ComponentDrill
T5C1.100
; #@! TA.AperFunction,Plated,PTH,ComponentDrill
T6C1.200
; #@! TA.AperFunction,Plated,PTH,ComponentDrill
T7C1.300
; #@! TA.AperFunction,Plated,PTH,ComponentDrill
T8C1.320
; #@! TA.AperFunction,Plated,PTH,ComponentDrill
T9C1.600
; #@! TA.AperFunction,Plated,PTH,ComponentDrill
T10C3.200
%
G90
G05
T1
X60.248Y-47.014
X60.248Y-57.174
X61.01Y-67.284
X61.01Y-77.444
X64.82Y-67.284
X64.82Y-77.444
X65.338Y-47.014
X65.338Y-57.174
X68.63Y-67.284
X68.63Y-77.444
X70.338Y-47.014
X70.338Y-57.174
X75.264Y-47.014
X75.264Y-57.174
X80.344Y-47.014
X80.344Y-57.174
X85.424Y-47.014
X85.424Y-57.174
X90.504Y-47.014
X90.504Y-57.174
X95.584Y-47.014
X95.584Y-57.174
X105.46Y-103.479
X115.112Y-61.95
X115.112Y-72.11
X115.112Y-75.92
X115.112Y-86.08
X115.62Y-103.479
X120.015Y-137.16
X122.732Y-61.95
X122.732Y-72.11
X122.732Y-75.92
X122.732Y-86.08
X130.175Y-137.16
X131.622Y-61.95
X131.622Y-72.11
X131.622Y-75.92
X131.622Y-86.08
X134.44Y-44.669
X134.44Y-52.289
X135.305Y-102.209
X135.305Y-109.829
X136.98Y-44.669
X136.98Y-52.289
X137.845Y-102.209
X137.845Y-109.829
X139.218Y-61.832
X139.218Y-71.992
X139.242Y-75.92
X139.242Y-86.08
X139.52Y-44.669
X139.52Y-52.289
X140.385Y-102.209
X140.385Y-109.829
X142.06Y-44.669
X142.06Y-52.289
X142.925Y-102.209
X142.925Y-109.829
X144.6Y-44.669
X144.6Y-52.289
X145.465Y-102.209
X145.465Y-109.829
X147.14Y-44.669
X147.14Y-52.289
X147.497Y-62.204
X147.497Y-72.364
X147.497Y-75.92
X147.497Y-86.08
X148.005Y-102.209
X148.005Y-109.829
X149.68Y-44.669
X149.68Y-52.289
X150.545Y-102.209
X150.545Y-109.829
X152.22Y-44.669
X152.22Y-52.289
X153.085Y-102.209
X153.085Y-109.829
X155.752Y-62.204
X155.752Y-72.364
X155.752Y-75.92
X155.752Y-86.08
X164.007Y-62.204
X164.007Y-72.364
X164.007Y-75.92
X164.007Y-86.08
X171.5Y-62.204
X171.5Y-72.364
X171.5Y-75.92
X171.5Y-86.08
X175.31Y-106.504
X175.31Y-116.664
X179.12Y-106.504
X179.12Y-116.664
X179.324Y-40.64
X179.324Y-43.18
X179.324Y-45.72
X179.324Y-48.26
X179.324Y-50.8
X179.324Y-53.34
X179.324Y-55.88
X179.324Y-58.42
X182.93Y-106.504
X182.93Y-116.664
X186.944Y-40.64
X186.944Y-43.18
X186.944Y-45.72
X186.944Y-48.26
X186.944Y-50.8
X186.944Y-53.34
X186.944Y-55.88
X186.944Y-58.42
T2
X88.646Y-145.925
X88.646Y-149.225
X91.146Y-145.925
X91.146Y-149.225
X93.646Y-145.925
X93.646Y-149.225
X119.62Y-103.729
X122.16Y-103.729
X172.135Y-121.894
X172.135Y-124.434
X179.605Y-121.894
X179.605Y-124.434
X187.075Y-121.894
X187.075Y-124.434
T3
X62.23Y-103.505
X62.865Y-121.92
X93.345Y-76.2
X93.98Y-103.505
X95.25Y-122.555
X101.6Y-29.21
X106.045Y-73.025
X121.285Y-44.45
X134.62Y-120.65
X143.522Y-119.392
X160.655Y-121.285
X172.72Y-100.33
X174.625Y-57.785
X187.96Y-129.54
X196.85Y-44.45
X196.85Y-73.66
X196.85Y-99.06
X196.85Y-134.62
X215.9Y-149.86
X224.79Y-44.45
X234.315Y-75.565
X234.315Y-92.075
X236.22Y-140.97
T4
X60.96Y-133.35
X60.96Y-135.89
X64.312Y-81.508
X64.312Y-96.748
X66.852Y-81.508
X66.852Y-96.748
X69.392Y-81.508
X69.392Y-96.748
X71.932Y-81.508
X71.932Y-96.748
X74.472Y-81.508
X74.472Y-96.748
X77.012Y-81.508
X77.012Y-96.748
X79.552Y-81.508
X79.552Y-96.748
X82.092Y-81.508
X82.092Y-96.748
X84.632Y-81.508
X84.632Y-96.748
X87.172Y-81.508
X87.172Y-96.748
X89.712Y-81.508
X89.712Y-96.748
X92.252Y-81.508
X92.252Y-96.748
X94.792Y-81.508
X94.792Y-96.748
X97.332Y-81.508
X97.332Y-96.748
X99.872Y-81.508
X99.872Y-96.748
X105.41Y-128.931
X109.22Y-128.931
X111.59Y-91.414
X113.27Y-128.931
X116.59Y-88.914
X116.59Y-93.914
X119.845Y-91.414
X123.19Y-147.32
X124.845Y-88.914
X124.845Y-93.914
X125.73Y-147.32
X128.1Y-91.414
X133.1Y-88.914
X133.1Y-93.914
X136.355Y-91.374
X141.355Y-88.874
X141.355Y-93.874
X144.83Y-91.414
X149.83Y-88.914
X149.83Y-93.914
X153.085Y-91.414
X158.085Y-88.914
X158.085Y-93.914
X161.34Y-91.374
X166.34Y-88.874
X166.34Y-93.874
X166.37Y-129.54
X166.37Y-132.08
X169.595Y-91.414
X174.595Y-88.914
X174.595Y-93.914
X181.61Y-27.94
X184.15Y-27.94
X232.41Y-66.04
X232.41Y-68.58
X232.41Y-82.55
X232.41Y-85.09
X232.41Y-99.06
X232.41Y-101.6
T5
X70.485Y-128.905
X73.025Y-128.905
X75.565Y-128.905
T6
X144.83Y-140.309
X219.075Y-133.35
T7
X60.25Y-29.21
X65.25Y-29.21
X70.25Y-29.21
X75.25Y-29.21
X80.25Y-29.21
X85.25Y-29.21
X90.25Y-29.21
X95.25Y-29.21
X124.285Y-30.699
X129.285Y-30.699
X134.285Y-30.699
X139.285Y-30.699
X144.285Y-30.699
X149.285Y-30.699
X154.285Y-30.699
X159.285Y-30.699
X164.285Y-30.699
X169.285Y-30.699
X194.79Y-30.48
X199.79Y-30.48
X204.79Y-30.48
X209.79Y-30.48
X214.79Y-30.48
X219.79Y-30.48
X224.79Y-30.48
X229.79Y-30.48
X234.79Y-30.48
T8
X72.724Y-145.288
X77.724Y-145.288
X104.35Y-145.415
X106.76Y-31.75
X109.35Y-145.415
X111.76Y-31.75
X114.35Y-145.415
X175.55Y-144.78
X180.55Y-144.78
X185.55Y-144.78
X190.55Y-144.78
T9
X141.02Y-135.859
X148.64Y-135.859
X215.265Y-128.9
X222.885Y-128.9
T10
X60.96Y-40.64
X60.96Y-147.32
X233.68Y-40.64
X233.68Y-147.32
M30
