%TF.GenerationSoftware,KiCad,Pcbnew,9.0.2*%
%TF.CreationDate,2025-10-10T19:45:04-07:00*%
%TF.ProjectId,ACP_Interface_Board,4143505f-496e-4746-9572-666163655f42,rev?*%
%TF.SameCoordinates,Original*%
%TF.FileFunction,Drillmap*%
%TF.FilePolarity,Positive*%
%FSLAX45Y45*%
G04 Gerber Fmt 4.5, Leading zero omitted, Abs format (unit mm)*
G04 Created by KiCad (PCBNEW 9.0.2) date 2025-10-10 19:45:04*
%MOMM*%
%LPD*%
G01*
G04 APERTURE LIST*
%ADD10C,0.250000*%
%ADD11C,0.200000*%
%ADD12C,0.100000*%
%ADD13C,0.110000*%
%ADD14C,0.120000*%
%ADD15C,0.130000*%
%ADD16C,0.132000*%
%ADD17C,0.160000*%
%ADD18C,0.320000*%
G04 APERTURE END LIST*
D10*
X5588000Y-2413000D02*
X5593000Y-2413000D01*
X5693000Y-2413000D02*
X5698000Y-2413000D01*
X5798000Y-2413000D02*
X5803000Y-2413000D01*
X5903000Y-2413000D02*
X5908000Y-2413000D01*
X6008000Y-2413000D02*
X6013000Y-2413000D01*
X6113000Y-2413000D02*
X6118000Y-2413000D01*
X6218000Y-2413000D02*
X6223000Y-2413000D01*
X6323000Y-2413000D02*
X6328000Y-2413000D01*
X6428000Y-2413000D02*
X6433000Y-2413000D01*
X6533000Y-2413000D02*
X6538000Y-2413000D01*
X6638000Y-2413000D02*
X6643000Y-2413000D01*
X6743000Y-2413000D02*
X6748000Y-2413000D01*
X6848000Y-2413000D02*
X6853000Y-2413000D01*
X6953000Y-2413000D02*
X6958000Y-2413000D01*
X7058000Y-2413000D02*
X7063000Y-2413000D01*
X7163000Y-2413000D02*
X7168000Y-2413000D01*
X7268000Y-2413000D02*
X7273000Y-2413000D01*
X7373000Y-2413000D02*
X7378000Y-2413000D01*
X7478000Y-2413000D02*
X7483000Y-2413000D01*
X7583000Y-2413000D02*
X7588000Y-2413000D01*
X7688000Y-2413000D02*
X7693000Y-2413000D01*
X7793000Y-2413000D02*
X7798000Y-2413000D01*
X7898000Y-2413000D02*
X7903000Y-2413000D01*
X8003000Y-2413000D02*
X8008000Y-2413000D01*
X8108000Y-2413000D02*
X8113000Y-2413000D01*
X8213000Y-2413000D02*
X8218000Y-2413000D01*
X8318000Y-2413000D02*
X8323000Y-2413000D01*
X8423000Y-2413000D02*
X8428000Y-2413000D01*
X8528000Y-2413000D02*
X8533000Y-2413000D01*
X8633000Y-2413000D02*
X8638000Y-2413000D01*
X8738000Y-2413000D02*
X8743000Y-2413000D01*
X8843000Y-2413000D02*
X8848000Y-2413000D01*
X8948000Y-2413000D02*
X8953000Y-2413000D01*
X9053000Y-2413000D02*
X9058000Y-2413000D01*
X9158000Y-2413000D02*
X9163000Y-2413000D01*
X9263000Y-2413000D02*
X9268000Y-2413000D01*
X9368000Y-2413000D02*
X9373000Y-2413000D01*
X9473000Y-2413000D02*
X9478000Y-2413000D01*
X9578000Y-2413000D02*
X9583000Y-2413000D01*
X9683000Y-2413000D02*
X9688000Y-2413000D01*
X9788000Y-2413000D02*
X9793000Y-2413000D01*
X9893000Y-2413000D02*
X9898000Y-2413000D01*
X9998000Y-2413000D02*
X10003000Y-2413000D01*
X10103000Y-2413000D02*
X10108000Y-2413000D01*
X10208000Y-2413000D02*
X10213000Y-2413000D01*
X10313000Y-2413000D02*
X10318000Y-2413000D01*
X10418000Y-2413000D02*
X10423000Y-2413000D01*
X10523000Y-2413000D02*
X10528000Y-2413000D01*
X10628000Y-2413000D02*
X10633000Y-2413000D01*
X10733000Y-2413000D02*
X10738000Y-2413000D01*
X10838000Y-2413000D02*
X10843000Y-2413000D01*
X10943000Y-2413000D02*
X10948000Y-2413000D01*
X11048000Y-2413000D02*
X11053000Y-2413000D01*
X11153000Y-2413000D02*
X11158000Y-2413000D01*
X11258000Y-2413000D02*
X11263000Y-2413000D01*
X11363000Y-2413000D02*
X11368000Y-2413000D01*
X11468000Y-2413000D02*
X11473000Y-2413000D01*
X11573000Y-2413000D02*
X11578000Y-2413000D01*
X11678000Y-2413000D02*
X11683000Y-2413000D01*
X11783000Y-2413000D02*
X11788000Y-2413000D01*
X11888000Y-2413000D02*
X11893000Y-2413000D01*
X11993000Y-2413000D02*
X11998000Y-2413000D01*
X12098000Y-2413000D02*
X12103000Y-2413000D01*
X12203000Y-2413000D02*
X12208000Y-2413000D01*
X12308000Y-2413000D02*
X12313000Y-2413000D01*
X12413000Y-2413000D02*
X12418000Y-2413000D01*
X12518000Y-2413000D02*
X12523000Y-2413000D01*
X12623000Y-2413000D02*
X12628000Y-2413000D01*
X12728000Y-2413000D02*
X12733000Y-2413000D01*
X12833000Y-2413000D02*
X12838000Y-2413000D01*
X12938000Y-2413000D02*
X12943000Y-2413000D01*
X13043000Y-2413000D02*
X13048000Y-2413000D01*
X13148000Y-2413000D02*
X13153000Y-2413000D01*
X13253000Y-2413000D02*
X13258000Y-2413000D01*
X13358000Y-2413000D02*
X13363000Y-2413000D01*
X13463000Y-2413000D02*
X13468000Y-2413000D01*
X13568000Y-2413000D02*
X13573000Y-2413000D01*
X13673000Y-2413000D02*
X13678000Y-2413000D01*
X13778000Y-2413000D02*
X13783000Y-2413000D01*
X13883000Y-2413000D02*
X13888000Y-2413000D01*
X13988000Y-2413000D02*
X13993000Y-2413000D01*
X14093000Y-2413000D02*
X14098000Y-2413000D01*
X14198000Y-2413000D02*
X14203000Y-2413000D01*
X14303000Y-2413000D02*
X14308000Y-2413000D01*
X14408000Y-2413000D02*
X14413000Y-2413000D01*
X14513000Y-2413000D02*
X14518000Y-2413000D01*
X14618000Y-2413000D02*
X14623000Y-2413000D01*
X14723000Y-2413000D02*
X14728000Y-2413000D01*
X14828000Y-2413000D02*
X14833000Y-2413000D01*
X14933000Y-2413000D02*
X14938000Y-2413000D01*
X15038000Y-2413000D02*
X15043000Y-2413000D01*
X15143000Y-2413000D02*
X15148000Y-2413000D01*
X15248000Y-2413000D02*
X15253000Y-2413000D01*
X15353000Y-2413000D02*
X15358000Y-2413000D01*
X15458000Y-2413000D02*
X15463000Y-2413000D01*
X15563000Y-2413000D02*
X15568000Y-2413000D01*
X15668000Y-2413000D02*
X15673000Y-2413000D01*
X15773000Y-2413000D02*
X15778000Y-2413000D01*
X15878000Y-2413000D02*
X15883000Y-2413000D01*
X15983000Y-2413000D02*
X15988000Y-2413000D01*
X16088000Y-2413000D02*
X16093000Y-2413000D01*
X16193000Y-2413000D02*
X16198000Y-2413000D01*
X16298000Y-2413000D02*
X16303000Y-2413000D01*
X16403000Y-2413000D02*
X16408000Y-2413000D01*
X16508000Y-2413000D02*
X16513000Y-2413000D01*
X16613000Y-2413000D02*
X16618000Y-2413000D01*
X16718000Y-2413000D02*
X16723000Y-2413000D01*
X16823000Y-2413000D02*
X16828000Y-2413000D01*
X16928000Y-2413000D02*
X16933000Y-2413000D01*
X17033000Y-2413000D02*
X17038000Y-2413000D01*
X17138000Y-2413000D02*
X17143000Y-2413000D01*
X17243000Y-2413000D02*
X17248000Y-2413000D01*
X17348000Y-2413000D02*
X17353000Y-2413000D01*
X17453000Y-2413000D02*
X17458000Y-2413000D01*
X17558000Y-2413000D02*
X17563000Y-2413000D01*
X17663000Y-2413000D02*
X17668000Y-2413000D01*
X17768000Y-2413000D02*
X17773000Y-2413000D01*
X17873000Y-2413000D02*
X17878000Y-2413000D01*
X17978000Y-2413000D02*
X17983000Y-2413000D01*
X18083000Y-2413000D02*
X18088000Y-2413000D01*
X18188000Y-2413000D02*
X18193000Y-2413000D01*
X18293000Y-2413000D02*
X18298000Y-2413000D01*
X18398000Y-2413000D02*
X18403000Y-2413000D01*
X18503000Y-2413000D02*
X18508000Y-2413000D01*
X18608000Y-2413000D02*
X18613000Y-2413000D01*
X18713000Y-2413000D02*
X18718000Y-2413000D01*
X18818000Y-2413000D02*
X18823000Y-2413000D01*
X18923000Y-2413000D02*
X18928000Y-2413000D01*
X19028000Y-2413000D02*
X19033000Y-2413000D01*
X19133000Y-2413000D02*
X19138000Y-2413000D01*
X19238000Y-2413000D02*
X19243000Y-2413000D01*
X19343000Y-2413000D02*
X19348000Y-2413000D01*
X19448000Y-2413000D02*
X19453000Y-2413000D01*
X19553000Y-2413000D02*
X19558000Y-2413000D01*
X19658000Y-2413000D02*
X19663000Y-2413000D01*
X19763000Y-2413000D02*
X19768000Y-2413000D01*
X19868000Y-2413000D02*
X19873000Y-2413000D01*
X19973000Y-2413000D02*
X19978000Y-2413000D01*
X20078000Y-2413000D02*
X20083000Y-2413000D01*
X20183000Y-2413000D02*
X20188000Y-2413000D01*
X20288000Y-2413000D02*
X20293000Y-2413000D01*
X20393000Y-2413000D02*
X20398000Y-2413000D01*
X20498000Y-2413000D02*
X20503000Y-2413000D01*
X20603000Y-2413000D02*
X20608000Y-2413000D01*
X20708000Y-2413000D02*
X20713000Y-2413000D01*
X20813000Y-2413000D02*
X20818000Y-2413000D01*
X20918000Y-2413000D02*
X20923000Y-2413000D01*
X21023000Y-2413000D02*
X21028000Y-2413000D01*
X21128000Y-2413000D02*
X21133000Y-2413000D01*
X21233000Y-2413000D02*
X21238000Y-2413000D01*
X21338000Y-2413000D02*
X21343000Y-2413000D01*
X21443000Y-2413000D02*
X21448000Y-2413000D01*
X21548000Y-2413000D02*
X21553000Y-2413000D01*
X21653000Y-2413000D02*
X21658000Y-2413000D01*
X21758000Y-2413000D02*
X21763000Y-2413000D01*
X21863000Y-2413000D02*
X21868000Y-2413000D01*
X21968000Y-2413000D02*
X21973000Y-2413000D01*
X22073000Y-2413000D02*
X22078000Y-2413000D01*
X22178000Y-2413000D02*
X22183000Y-2413000D01*
X22283000Y-2413000D02*
X22288000Y-2413000D01*
X22388000Y-2413000D02*
X22393000Y-2413000D01*
X22493000Y-2413000D02*
X22498000Y-2413000D01*
X22598000Y-2413000D02*
X22603000Y-2413000D01*
X22703000Y-2413000D02*
X22708000Y-2413000D01*
X22808000Y-2413000D02*
X22813000Y-2413000D01*
X22913000Y-2413000D02*
X22918000Y-2413000D01*
X23018000Y-2413000D02*
X23023000Y-2413000D01*
X23123000Y-2413000D02*
X23128000Y-2413000D01*
X23228000Y-2413000D02*
X23233000Y-2413000D01*
X23333000Y-2413000D02*
X23338000Y-2413000D01*
X23438000Y-2413000D02*
X23443000Y-2413000D01*
X23543000Y-2413000D02*
X23548000Y-2413000D01*
X23648000Y-2413000D02*
X23653000Y-2413000D01*
X23753000Y-2413000D02*
X23758000Y-2413000D01*
X23858000Y-2413000D02*
X23863000Y-2413000D01*
X23876000Y-2413000D02*
X23876000Y-2418000D01*
X23876000Y-2518000D02*
X23876000Y-2523000D01*
X23876000Y-2623000D02*
X23876000Y-2628000D01*
X23876000Y-2728000D02*
X23876000Y-2733000D01*
X23876000Y-2833000D02*
X23876000Y-2838000D01*
X23876000Y-2938000D02*
X23876000Y-2943000D01*
X23876000Y-3043000D02*
X23876000Y-3048000D01*
X23876000Y-3148000D02*
X23876000Y-3153000D01*
X23876000Y-3253000D02*
X23876000Y-3258000D01*
X23876000Y-3358000D02*
X23876000Y-3363000D01*
X23876000Y-3463000D02*
X23876000Y-3468000D01*
X23876000Y-3568000D02*
X23876000Y-3573000D01*
X23876000Y-3673000D02*
X23876000Y-3678000D01*
X23876000Y-3778000D02*
X23876000Y-3783000D01*
X23876000Y-3883000D02*
X23876000Y-3888000D01*
X23876000Y-3988000D02*
X23876000Y-3993000D01*
X23876000Y-4093000D02*
X23876000Y-4098000D01*
X23876000Y-4198000D02*
X23876000Y-4203000D01*
X23876000Y-4303000D02*
X23876000Y-4308000D01*
X23876000Y-4408000D02*
X23876000Y-4413000D01*
X23876000Y-4513000D02*
X23876000Y-4518000D01*
X23876000Y-4618000D02*
X23876000Y-4623000D01*
X23876000Y-4723000D02*
X23876000Y-4728000D01*
X23876000Y-4828000D02*
X23876000Y-4833000D01*
X23876000Y-4933000D02*
X23876000Y-4938000D01*
X23876000Y-5038000D02*
X23876000Y-5043000D01*
X23876000Y-5143000D02*
X23876000Y-5148000D01*
X23876000Y-5248000D02*
X23876000Y-5253000D01*
X23876000Y-5353000D02*
X23876000Y-5358000D01*
X23876000Y-5458000D02*
X23876000Y-5463000D01*
X23876000Y-5563000D02*
X23876000Y-5568000D01*
X23876000Y-5668000D02*
X23876000Y-5673000D01*
X23876000Y-5773000D02*
X23876000Y-5778000D01*
X23876000Y-5878000D02*
X23876000Y-5883000D01*
X23876000Y-5983000D02*
X23876000Y-5988000D01*
X23876000Y-6088000D02*
X23876000Y-6093000D01*
X23876000Y-6193000D02*
X23876000Y-6198000D01*
X23876000Y-6298000D02*
X23876000Y-6303000D01*
X23876000Y-6403000D02*
X23876000Y-6408000D01*
X23876000Y-6508000D02*
X23876000Y-6513000D01*
X23876000Y-6613000D02*
X23876000Y-6618000D01*
X23876000Y-6718000D02*
X23876000Y-6723000D01*
X23876000Y-6823000D02*
X23876000Y-6828000D01*
X23876000Y-6928000D02*
X23876000Y-6933000D01*
X23876000Y-7033000D02*
X23876000Y-7038000D01*
X23876000Y-7138000D02*
X23876000Y-7143000D01*
X23876000Y-7243000D02*
X23876000Y-7248000D01*
X23876000Y-7348000D02*
X23876000Y-7353000D01*
X23876000Y-7453000D02*
X23876000Y-7458000D01*
X23876000Y-7558000D02*
X23876000Y-7563000D01*
X23876000Y-7663000D02*
X23876000Y-7668000D01*
X23876000Y-7768000D02*
X23876000Y-7773000D01*
X23876000Y-7873000D02*
X23876000Y-7878000D01*
X23876000Y-7978000D02*
X23876000Y-7983000D01*
X23876000Y-8083000D02*
X23876000Y-8088000D01*
X23876000Y-8188000D02*
X23876000Y-8193000D01*
X23876000Y-8293000D02*
X23876000Y-8298000D01*
X23876000Y-8398000D02*
X23876000Y-8403000D01*
X23876000Y-8503000D02*
X23876000Y-8508000D01*
X23876000Y-8608000D02*
X23876000Y-8613000D01*
X23876000Y-8713000D02*
X23876000Y-8718000D01*
X23876000Y-8818000D02*
X23876000Y-8823000D01*
X23876000Y-8923000D02*
X23876000Y-8928000D01*
X23876000Y-9028000D02*
X23876000Y-9033000D01*
X23876000Y-9133000D02*
X23876000Y-9138000D01*
X23876000Y-9238000D02*
X23876000Y-9243000D01*
X23876000Y-9343000D02*
X23876000Y-9348000D01*
X23876000Y-9448000D02*
X23876000Y-9453000D01*
X23876000Y-9553000D02*
X23876000Y-9558000D01*
X23876000Y-9658000D02*
X23876000Y-9663000D01*
X23876000Y-9763000D02*
X23876000Y-9768000D01*
X23876000Y-9868000D02*
X23876000Y-9873000D01*
X23876000Y-9973000D02*
X23876000Y-9978000D01*
X23876000Y-10078000D02*
X23876000Y-10083000D01*
X23876000Y-10183000D02*
X23876000Y-10188000D01*
X23876000Y-10288000D02*
X23876000Y-10293000D01*
X23876000Y-10393000D02*
X23876000Y-10398000D01*
X23876000Y-10498000D02*
X23876000Y-10503000D01*
X23876000Y-10603000D02*
X23876000Y-10608000D01*
X23876000Y-10708000D02*
X23876000Y-10713000D01*
X23876000Y-10813000D02*
X23876000Y-10818000D01*
X23876000Y-10918000D02*
X23876000Y-10923000D01*
X23876000Y-11023000D02*
X23876000Y-11028000D01*
X23876000Y-11128000D02*
X23876000Y-11133000D01*
X23876000Y-11233000D02*
X23876000Y-11238000D01*
X23876000Y-11338000D02*
X23876000Y-11343000D01*
X23876000Y-11443000D02*
X23876000Y-11448000D01*
X23876000Y-11548000D02*
X23876000Y-11553000D01*
X23876000Y-11653000D02*
X23876000Y-11658000D01*
X23876000Y-11758000D02*
X23876000Y-11763000D01*
X23876000Y-11863000D02*
X23876000Y-11868000D01*
X23876000Y-11968000D02*
X23876000Y-11973000D01*
X23876000Y-12073000D02*
X23876000Y-12078000D01*
X23876000Y-12178000D02*
X23876000Y-12183000D01*
X23876000Y-12283000D02*
X23876000Y-12288000D01*
X23876000Y-12388000D02*
X23876000Y-12393000D01*
X23876000Y-12493000D02*
X23876000Y-12498000D01*
X23876000Y-12598000D02*
X23876000Y-12603000D01*
X23876000Y-12703000D02*
X23876000Y-12708000D01*
X23876000Y-12808000D02*
X23876000Y-12813000D01*
X23876000Y-12913000D02*
X23876000Y-12918000D01*
X23876000Y-13018000D02*
X23876000Y-13023000D01*
X23876000Y-13123000D02*
X23876000Y-13128000D01*
X23876000Y-13228000D02*
X23876000Y-13233000D01*
X23876000Y-13333000D02*
X23876000Y-13338000D01*
X23876000Y-13438000D02*
X23876000Y-13443000D01*
X23876000Y-13543000D02*
X23876000Y-13548000D01*
X23876000Y-13648000D02*
X23876000Y-13653000D01*
X23876000Y-13753000D02*
X23876000Y-13758000D01*
X23876000Y-13858000D02*
X23876000Y-13863000D01*
X23876000Y-13963000D02*
X23876000Y-13968000D01*
X23876000Y-14068000D02*
X23876000Y-14073000D01*
X23876000Y-14173000D02*
X23876000Y-14178000D01*
X23876000Y-14278000D02*
X23876000Y-14283000D01*
X23876000Y-14383000D02*
X23876000Y-14388000D01*
X23876000Y-14488000D02*
X23876000Y-14493000D01*
X23876000Y-14593000D02*
X23876000Y-14598000D01*
X23876000Y-14698000D02*
X23876000Y-14703000D01*
X23876000Y-14803000D02*
X23876000Y-14808000D01*
X23876000Y-14908000D02*
X23876000Y-14913000D01*
X23876000Y-15013000D02*
X23876000Y-15018000D01*
X23876000Y-15118000D02*
X23876000Y-15123000D01*
X23876000Y-15223000D02*
X23876000Y-15228000D01*
X23876000Y-15240000D02*
X23871000Y-15240000D01*
X23771000Y-15240000D02*
X23766000Y-15240000D01*
X23666000Y-15240000D02*
X23661000Y-15240000D01*
X23561000Y-15240000D02*
X23556000Y-15240000D01*
X23456000Y-15240000D02*
X23451000Y-15240000D01*
X23351000Y-15240000D02*
X23346000Y-15240000D01*
X23246000Y-15240000D02*
X23241000Y-15240000D01*
X23141000Y-15240000D02*
X23136000Y-15240000D01*
X23036000Y-15240000D02*
X23031000Y-15240000D01*
X22931000Y-15240000D02*
X22926000Y-15240000D01*
X22826000Y-15240000D02*
X22821000Y-15240000D01*
X22721000Y-15240000D02*
X22716000Y-15240000D01*
X22616000Y-15240000D02*
X22611000Y-15240000D01*
X22511000Y-15240000D02*
X22506000Y-15240000D01*
X22406000Y-15240000D02*
X22401000Y-15240000D01*
X22301000Y-15240000D02*
X22296000Y-15240000D01*
X22196000Y-15240000D02*
X22191000Y-15240000D01*
X22091000Y-15240000D02*
X22086000Y-15240000D01*
X21986000Y-15240000D02*
X21981000Y-15240000D01*
X21881000Y-15240000D02*
X21876000Y-15240000D01*
X21776000Y-15240000D02*
X21771000Y-15240000D01*
X21671000Y-15240000D02*
X21666000Y-15240000D01*
X21566000Y-15240000D02*
X21561000Y-15240000D01*
X21461000Y-15240000D02*
X21456000Y-15240000D01*
X21356000Y-15240000D02*
X21351000Y-15240000D01*
X21251000Y-15240000D02*
X21246000Y-15240000D01*
X21146000Y-15240000D02*
X21141000Y-15240000D01*
X21041000Y-15240000D02*
X21036000Y-15240000D01*
X20936000Y-15240000D02*
X20931000Y-15240000D01*
X20831000Y-15240000D02*
X20826000Y-15240000D01*
X20726000Y-15240000D02*
X20721000Y-15240000D01*
X20621000Y-15240000D02*
X20616000Y-15240000D01*
X20516000Y-15240000D02*
X20511000Y-15240000D01*
X20411000Y-15240000D02*
X20406000Y-15240000D01*
X20306000Y-15240000D02*
X20301000Y-15240000D01*
X20201000Y-15240000D02*
X20196000Y-15240000D01*
X20096000Y-15240000D02*
X20091000Y-15240000D01*
X19991000Y-15240000D02*
X19986000Y-15240000D01*
X19886000Y-15240000D02*
X19881000Y-15240000D01*
X19781000Y-15240000D02*
X19776000Y-15240000D01*
X19676000Y-15240000D02*
X19671000Y-15240000D01*
X19571000Y-15240000D02*
X19566000Y-15240000D01*
X19466000Y-15240000D02*
X19461000Y-15240000D01*
X19361000Y-15240000D02*
X19356000Y-15240000D01*
X19256000Y-15240000D02*
X19251000Y-15240000D01*
X19151000Y-15240000D02*
X19146000Y-15240000D01*
X19046000Y-15240000D02*
X19041000Y-15240000D01*
X18941000Y-15240000D02*
X18936000Y-15240000D01*
X18836000Y-15240000D02*
X18831000Y-15240000D01*
X18731000Y-15240000D02*
X18726000Y-15240000D01*
X18626000Y-15240000D02*
X18621000Y-15240000D01*
X18521000Y-15240000D02*
X18516000Y-15240000D01*
X18416000Y-15240000D02*
X18411000Y-15240000D01*
X18311000Y-15240000D02*
X18306000Y-15240000D01*
X18206000Y-15240000D02*
X18201000Y-15240000D01*
X18101000Y-15240000D02*
X18096000Y-15240000D01*
X17996000Y-15240000D02*
X17991000Y-15240000D01*
X17891000Y-15240000D02*
X17886000Y-15240000D01*
X17786000Y-15240000D02*
X17781000Y-15240000D01*
X17681000Y-15240000D02*
X17676000Y-15240000D01*
X17576000Y-15240000D02*
X17571000Y-15240000D01*
X17471000Y-15240000D02*
X17466000Y-15240000D01*
X17366000Y-15240000D02*
X17361000Y-15240000D01*
X17261000Y-15240000D02*
X17256000Y-15240000D01*
X17156000Y-15240000D02*
X17151000Y-15240000D01*
X17051000Y-15240000D02*
X17046000Y-15240000D01*
X16946000Y-15240000D02*
X16941000Y-15240000D01*
X16841000Y-15240000D02*
X16836000Y-15240000D01*
X16736000Y-15240000D02*
X16731000Y-15240000D01*
X16631000Y-15240000D02*
X16626000Y-15240000D01*
X16526000Y-15240000D02*
X16521000Y-15240000D01*
X16421000Y-15240000D02*
X16416000Y-15240000D01*
X16316000Y-15240000D02*
X16311000Y-15240000D01*
X16211000Y-15240000D02*
X16206000Y-15240000D01*
X16106000Y-15240000D02*
X16101000Y-15240000D01*
X16001000Y-15240000D02*
X15996000Y-15240000D01*
X15896000Y-15240000D02*
X15891000Y-15240000D01*
X15791000Y-15240000D02*
X15786000Y-15240000D01*
X15686000Y-15240000D02*
X15681000Y-15240000D01*
X15581000Y-15240000D02*
X15576000Y-15240000D01*
X15476000Y-15240000D02*
X15471000Y-15240000D01*
X15371000Y-15240000D02*
X15366000Y-15240000D01*
X15266000Y-15240000D02*
X15261000Y-15240000D01*
X15161000Y-15240000D02*
X15156000Y-15240000D01*
X15056000Y-15240000D02*
X15051000Y-15240000D01*
X14951000Y-15240000D02*
X14946000Y-15240000D01*
X14846000Y-15240000D02*
X14841000Y-15240000D01*
X14741000Y-15240000D02*
X14736000Y-15240000D01*
X14636000Y-15240000D02*
X14631000Y-15240000D01*
X14531000Y-15240000D02*
X14526000Y-15240000D01*
X14426000Y-15240000D02*
X14421000Y-15240000D01*
X14321000Y-15240000D02*
X14316000Y-15240000D01*
X14216000Y-15240000D02*
X14211000Y-15240000D01*
X14111000Y-15240000D02*
X14106000Y-15240000D01*
X14006000Y-15240000D02*
X14001000Y-15240000D01*
X13901000Y-15240000D02*
X13896000Y-15240000D01*
X13796000Y-15240000D02*
X13791000Y-15240000D01*
X13691000Y-15240000D02*
X13686000Y-15240000D01*
X13586000Y-15240000D02*
X13581000Y-15240000D01*
X13481000Y-15240000D02*
X13476000Y-15240000D01*
X13376000Y-15240000D02*
X13371000Y-15240000D01*
X13271000Y-15240000D02*
X13266000Y-15240000D01*
X13166000Y-15240000D02*
X13161000Y-15240000D01*
X13061000Y-15240000D02*
X13056000Y-15240000D01*
X12956000Y-15240000D02*
X12951000Y-15240000D01*
X12851000Y-15240000D02*
X12846000Y-15240000D01*
X12746000Y-15240000D02*
X12741000Y-15240000D01*
X12641000Y-15240000D02*
X12636000Y-15240000D01*
X12536000Y-15240000D02*
X12531000Y-15240000D01*
X12431000Y-15240000D02*
X12426000Y-15240000D01*
X12326000Y-15240000D02*
X12321000Y-15240000D01*
X12221000Y-15240000D02*
X12216000Y-15240000D01*
X12116000Y-15240000D02*
X12111000Y-15240000D01*
X12011000Y-15240000D02*
X12006000Y-15240000D01*
X11906000Y-15240000D02*
X11901000Y-15240000D01*
X11801000Y-15240000D02*
X11796000Y-15240000D01*
X11696000Y-15240000D02*
X11691000Y-15240000D01*
X11591000Y-15240000D02*
X11586000Y-15240000D01*
X11486000Y-15240000D02*
X11481000Y-15240000D01*
X11381000Y-15240000D02*
X11376000Y-15240000D01*
X11276000Y-15240000D02*
X11271000Y-15240000D01*
X11171000Y-15240000D02*
X11166000Y-15240000D01*
X11066000Y-15240000D02*
X11061000Y-15240000D01*
X10961000Y-15240000D02*
X10956000Y-15240000D01*
X10856000Y-15240000D02*
X10851000Y-15240000D01*
X10751000Y-15240000D02*
X10746000Y-15240000D01*
X10646000Y-15240000D02*
X10641000Y-15240000D01*
X10541000Y-15240000D02*
X10536000Y-15240000D01*
X10436000Y-15240000D02*
X10431000Y-15240000D01*
X10331000Y-15240000D02*
X10326000Y-15240000D01*
X10226000Y-15240000D02*
X10221000Y-15240000D01*
X10121000Y-15240000D02*
X10116000Y-15240000D01*
X10016000Y-15240000D02*
X10011000Y-15240000D01*
X9911000Y-15240000D02*
X9906000Y-15240000D01*
X9806000Y-15240000D02*
X9801000Y-15240000D01*
X9701000Y-15240000D02*
X9696000Y-15240000D01*
X9596000Y-15240000D02*
X9591000Y-15240000D01*
X9491000Y-15240000D02*
X9486000Y-15240000D01*
X9386000Y-15240000D02*
X9381000Y-15240000D01*
X9281000Y-15240000D02*
X9276000Y-15240000D01*
X9176000Y-15240000D02*
X9171000Y-15240000D01*
X9071000Y-15240000D02*
X9066000Y-15240000D01*
X8966000Y-15240000D02*
X8961000Y-15240000D01*
X8861000Y-15240000D02*
X8856000Y-15240000D01*
X8756000Y-15240000D02*
X8751000Y-15240000D01*
X8651000Y-15240000D02*
X8646000Y-15240000D01*
X8546000Y-15240000D02*
X8541000Y-15240000D01*
X8441000Y-15240000D02*
X8436000Y-15240000D01*
X8336000Y-15240000D02*
X8331000Y-15240000D01*
X8231000Y-15240000D02*
X8226000Y-15240000D01*
X8126000Y-15240000D02*
X8121000Y-15240000D01*
X8021000Y-15240000D02*
X8016000Y-15240000D01*
X7916000Y-15240000D02*
X7911000Y-15240000D01*
X7811000Y-15240000D02*
X7806000Y-15240000D01*
X7706000Y-15240000D02*
X7701000Y-15240000D01*
X7601000Y-15240000D02*
X7596000Y-15240000D01*
X7496000Y-15240000D02*
X7491000Y-15240000D01*
X7391000Y-15240000D02*
X7386000Y-15240000D01*
X7286000Y-15240000D02*
X7281000Y-15240000D01*
X7181000Y-15240000D02*
X7176000Y-15240000D01*
X7076000Y-15240000D02*
X7071000Y-15240000D01*
X6971000Y-15240000D02*
X6966000Y-15240000D01*
X6866000Y-15240000D02*
X6861000Y-15240000D01*
X6761000Y-15240000D02*
X6756000Y-15240000D01*
X6656000Y-15240000D02*
X6651000Y-15240000D01*
X6551000Y-15240000D02*
X6546000Y-15240000D01*
X6446000Y-15240000D02*
X6441000Y-15240000D01*
X6341000Y-15240000D02*
X6336000Y-15240000D01*
X6236000Y-15240000D02*
X6231000Y-15240000D01*
X6131000Y-15240000D02*
X6126000Y-15240000D01*
X6026000Y-15240000D02*
X6021000Y-15240000D01*
X5921000Y-15240000D02*
X5916000Y-15240000D01*
X5816000Y-15240000D02*
X5811000Y-15240000D01*
X5711000Y-15240000D02*
X5706000Y-15240000D01*
X5606000Y-15240000D02*
X5601000Y-15240000D01*
X5588000Y-15240000D02*
X5588000Y-15235000D01*
X5588000Y-15135000D02*
X5588000Y-15130000D01*
X5588000Y-15030000D02*
X5588000Y-15025000D01*
X5588000Y-14925000D02*
X5588000Y-14920000D01*
X5588000Y-14820000D02*
X5588000Y-14815000D01*
X5588000Y-14715000D02*
X5588000Y-14710000D01*
X5588000Y-14610000D02*
X5588000Y-14605000D01*
X5588000Y-14505000D02*
X5588000Y-14500000D01*
X5588000Y-14400000D02*
X5588000Y-14395000D01*
X5588000Y-14295000D02*
X5588000Y-14290000D01*
X5588000Y-14190000D02*
X5588000Y-14185000D01*
X5588000Y-14085000D02*
X5588000Y-14080000D01*
X5588000Y-13980000D02*
X5588000Y-13975000D01*
X5588000Y-13875000D02*
X5588000Y-13870000D01*
X5588000Y-13770000D02*
X5588000Y-13765000D01*
X5588000Y-13665000D02*
X5588000Y-13660000D01*
X5588000Y-13560000D02*
X5588000Y-13555000D01*
X5588000Y-13455000D02*
X5588000Y-13450000D01*
X5588000Y-13350000D02*
X5588000Y-13345000D01*
X5588000Y-13245000D02*
X5588000Y-13240000D01*
X5588000Y-13140000D02*
X5588000Y-13135000D01*
X5588000Y-13035000D02*
X5588000Y-13030000D01*
X5588000Y-12930000D02*
X5588000Y-12925000D01*
X5588000Y-12825000D02*
X5588000Y-12820000D01*
X5588000Y-12720000D02*
X5588000Y-12715000D01*
X5588000Y-12615000D02*
X5588000Y-12610000D01*
X5588000Y-12510000D02*
X5588000Y-12505000D01*
X5588000Y-12405000D02*
X5588000Y-12400000D01*
X5588000Y-12300000D02*
X5588000Y-12295000D01*
X5588000Y-12195000D02*
X5588000Y-12190000D01*
X5588000Y-12090000D02*
X5588000Y-12085000D01*
X5588000Y-11985000D02*
X5588000Y-11980000D01*
X5588000Y-11880000D02*
X5588000Y-11875000D01*
X5588000Y-11775000D02*
X5588000Y-11770000D01*
X5588000Y-11670000D02*
X5588000Y-11665000D01*
X5588000Y-11565000D02*
X5588000Y-11560000D01*
X5588000Y-11460000D02*
X5588000Y-11455000D01*
X5588000Y-11355000D02*
X5588000Y-11350000D01*
X5588000Y-11250000D02*
X5588000Y-11245000D01*
X5588000Y-11145000D02*
X5588000Y-11140000D01*
X5588000Y-11040000D02*
X5588000Y-11035000D01*
X5588000Y-10935000D02*
X5588000Y-10930000D01*
X5588000Y-10830000D02*
X5588000Y-10825000D01*
X5588000Y-10725000D02*
X5588000Y-10720000D01*
X5588000Y-10620000D02*
X5588000Y-10615000D01*
X5588000Y-10515000D02*
X5588000Y-10510000D01*
X5588000Y-10410000D02*
X5588000Y-10405000D01*
X5588000Y-10305000D02*
X5588000Y-10300000D01*
X5588000Y-10200000D02*
X5588000Y-10195000D01*
X5588000Y-10095000D02*
X5588000Y-10090000D01*
X5588000Y-9990000D02*
X5588000Y-9985000D01*
X5588000Y-9885000D02*
X5588000Y-9880000D01*
X5588000Y-9780000D02*
X5588000Y-9775000D01*
X5588000Y-9675000D02*
X5588000Y-9670000D01*
X5588000Y-9570000D02*
X5588000Y-9565000D01*
X5588000Y-9465000D02*
X5588000Y-9460000D01*
X5588000Y-9360000D02*
X5588000Y-9355000D01*
X5588000Y-9255000D02*
X5588000Y-9250000D01*
X5588000Y-9150000D02*
X5588000Y-9145000D01*
X5588000Y-9045000D02*
X5588000Y-9040000D01*
X5588000Y-8940000D02*
X5588000Y-8935000D01*
X5588000Y-8835000D02*
X5588000Y-8830000D01*
X5588000Y-8730000D02*
X5588000Y-8725000D01*
X5588000Y-8625000D02*
X5588000Y-8620000D01*
X5588000Y-8520000D02*
X5588000Y-8515000D01*
X5588000Y-8415000D02*
X5588000Y-8410000D01*
X5588000Y-8310000D02*
X5588000Y-8305000D01*
X5588000Y-8205000D02*
X5588000Y-8200000D01*
X5588000Y-8100000D02*
X5588000Y-8095000D01*
X5588000Y-7995000D02*
X5588000Y-7990000D01*
X5588000Y-7890000D02*
X5588000Y-7885000D01*
X5588000Y-7785000D02*
X5588000Y-7780000D01*
X5588000Y-7680000D02*
X5588000Y-7675000D01*
X5588000Y-7575000D02*
X5588000Y-7570000D01*
X5588000Y-7470000D02*
X5588000Y-7465000D01*
X5588000Y-7365000D02*
X5588000Y-7360000D01*
X5588000Y-7260000D02*
X5588000Y-7255000D01*
X5588000Y-7155000D02*
X5588000Y-7150000D01*
X5588000Y-7050000D02*
X5588000Y-7045000D01*
X5588000Y-6945000D02*
X5588000Y-6940000D01*
X5588000Y-6840000D02*
X5588000Y-6835000D01*
X5588000Y-6735000D02*
X5588000Y-6730000D01*
X5588000Y-6630000D02*
X5588000Y-6625000D01*
X5588000Y-6525000D02*
X5588000Y-6520000D01*
X5588000Y-6420000D02*
X5588000Y-6415000D01*
X5588000Y-6315000D02*
X5588000Y-6310000D01*
X5588000Y-6210000D02*
X5588000Y-6205000D01*
X5588000Y-6105000D02*
X5588000Y-6100000D01*
X5588000Y-6000000D02*
X5588000Y-5995000D01*
X5588000Y-5895000D02*
X5588000Y-5890000D01*
X5588000Y-5790000D02*
X5588000Y-5785000D01*
X5588000Y-5685000D02*
X5588000Y-5680000D01*
X5588000Y-5580000D02*
X5588000Y-5575000D01*
X5588000Y-5475000D02*
X5588000Y-5470000D01*
X5588000Y-5370000D02*
X5588000Y-5365000D01*
X5588000Y-5265000D02*
X5588000Y-5260000D01*
X5588000Y-5160000D02*
X5588000Y-5155000D01*
X5588000Y-5055000D02*
X5588000Y-5050000D01*
X5588000Y-4950000D02*
X5588000Y-4945000D01*
X5588000Y-4845000D02*
X5588000Y-4840000D01*
X5588000Y-4740000D02*
X5588000Y-4735000D01*
X5588000Y-4635000D02*
X5588000Y-4630000D01*
X5588000Y-4530000D02*
X5588000Y-4525000D01*
X5588000Y-4425000D02*
X5588000Y-4420000D01*
X5588000Y-4320000D02*
X5588000Y-4315000D01*
X5588000Y-4215000D02*
X5588000Y-4210000D01*
X5588000Y-4110000D02*
X5588000Y-4105000D01*
X5588000Y-4005000D02*
X5588000Y-4000000D01*
X5588000Y-3900000D02*
X5588000Y-3895000D01*
X5588000Y-3795000D02*
X5588000Y-3790000D01*
X5588000Y-3690000D02*
X5588000Y-3685000D01*
X5588000Y-3585000D02*
X5588000Y-3580000D01*
X5588000Y-3480000D02*
X5588000Y-3475000D01*
X5588000Y-3375000D02*
X5588000Y-3370000D01*
X5588000Y-3270000D02*
X5588000Y-3265000D01*
X5588000Y-3165000D02*
X5588000Y-3160000D01*
X5588000Y-3060000D02*
X5588000Y-3055000D01*
X5588000Y-2955000D02*
X5588000Y-2950000D01*
X5588000Y-2850000D02*
X5588000Y-2845000D01*
X5588000Y-2745000D02*
X5588000Y-2740000D01*
X5588000Y-2640000D02*
X5588000Y-2635000D01*
X5588000Y-2535000D02*
X5588000Y-2530000D01*
X5588000Y-2430000D02*
X5588000Y-2425000D01*
D11*
D12*
X5984800Y-4661350D02*
X6064800Y-4741350D01*
X6064800Y-4661350D02*
X5984800Y-4741350D01*
X5984800Y-5677350D02*
X6064800Y-5757350D01*
X6064800Y-5677350D02*
X5984800Y-5757350D01*
X6061000Y-6688400D02*
X6141000Y-6768400D01*
X6141000Y-6688400D02*
X6061000Y-6768400D01*
X6061000Y-7704400D02*
X6141000Y-7784400D01*
X6141000Y-7704400D02*
X6061000Y-7784400D01*
X6442000Y-6688400D02*
X6522000Y-6768400D01*
X6522000Y-6688400D02*
X6442000Y-6768400D01*
X6442000Y-7704400D02*
X6522000Y-7784400D01*
X6522000Y-7704400D02*
X6442000Y-7784400D01*
X6493800Y-4661350D02*
X6573800Y-4741350D01*
X6573800Y-4661350D02*
X6493800Y-4741350D01*
X6493800Y-5677350D02*
X6573800Y-5757350D01*
X6573800Y-5677350D02*
X6493800Y-5757350D01*
X6823000Y-6688400D02*
X6903000Y-6768400D01*
X6903000Y-6688400D02*
X6823000Y-6768400D01*
X6823000Y-7704400D02*
X6903000Y-7784400D01*
X6903000Y-7704400D02*
X6823000Y-7784400D01*
X6993800Y-4661350D02*
X7073800Y-4741350D01*
X7073800Y-4661350D02*
X6993800Y-4741350D01*
X6993800Y-5677350D02*
X7073800Y-5757350D01*
X7073800Y-5677350D02*
X6993800Y-5757350D01*
X7486400Y-4661350D02*
X7566400Y-4741350D01*
X7566400Y-4661350D02*
X7486400Y-4741350D01*
X7486400Y-5677350D02*
X7566400Y-5757350D01*
X7566400Y-5677350D02*
X7486400Y-5757350D01*
X7994400Y-4661350D02*
X8074400Y-4741350D01*
X8074400Y-4661350D02*
X7994400Y-4741350D01*
X7994400Y-5677350D02*
X8074400Y-5757350D01*
X8074400Y-5677350D02*
X7994400Y-5757350D01*
X8502400Y-4661350D02*
X8582400Y-4741350D01*
X8582400Y-4661350D02*
X8502400Y-4741350D01*
X8502400Y-5677350D02*
X8582400Y-5757350D01*
X8582400Y-5677350D02*
X8502400Y-5757350D01*
X9010400Y-4661350D02*
X9090400Y-4741350D01*
X9090400Y-4661350D02*
X9010400Y-4741350D01*
X9010400Y-5677350D02*
X9090400Y-5757350D01*
X9090400Y-5677350D02*
X9010400Y-5757350D01*
X9518400Y-4661350D02*
X9598400Y-4741350D01*
X9598400Y-4661350D02*
X9518400Y-4741350D01*
X9518400Y-5677350D02*
X9598400Y-5757350D01*
X9598400Y-5677350D02*
X9518400Y-5757350D01*
X10506000Y-10307900D02*
X10586000Y-10387900D01*
X10586000Y-10307900D02*
X10506000Y-10387900D01*
X11471200Y-6155000D02*
X11551200Y-6235000D01*
X11551200Y-6155000D02*
X11471200Y-6235000D01*
X11471200Y-7171000D02*
X11551200Y-7251000D01*
X11551200Y-7171000D02*
X11471200Y-7251000D01*
X11471200Y-7552000D02*
X11551200Y-7632000D01*
X11551200Y-7552000D02*
X11471200Y-7632000D01*
X11471200Y-8568000D02*
X11551200Y-8648000D01*
X11551200Y-8568000D02*
X11471200Y-8648000D01*
X11522000Y-10307900D02*
X11602000Y-10387900D01*
X11602000Y-10307900D02*
X11522000Y-10387900D01*
X11961500Y-13676000D02*
X12041500Y-13756000D01*
X12041500Y-13676000D02*
X11961500Y-13756000D01*
X12233200Y-6155000D02*
X12313200Y-6235000D01*
X12313200Y-6155000D02*
X12233200Y-6235000D01*
X12233200Y-7171000D02*
X12313200Y-7251000D01*
X12313200Y-7171000D02*
X12233200Y-7251000D01*
X12233200Y-7552000D02*
X12313200Y-7632000D01*
X12313200Y-7552000D02*
X12233200Y-7632000D01*
X12233200Y-8568000D02*
X12313200Y-8648000D01*
X12313200Y-8568000D02*
X12233200Y-8648000D01*
X12977500Y-13676000D02*
X13057500Y-13756000D01*
X13057500Y-13676000D02*
X12977500Y-13756000D01*
X13122200Y-6155000D02*
X13202200Y-6235000D01*
X13202200Y-6155000D02*
X13122200Y-6235000D01*
X13122200Y-7171000D02*
X13202200Y-7251000D01*
X13202200Y-7171000D02*
X13122200Y-7251000D01*
X13122200Y-7552000D02*
X13202200Y-7632000D01*
X13202200Y-7552000D02*
X13122200Y-7632000D01*
X13122200Y-8568000D02*
X13202200Y-8648000D01*
X13202200Y-8568000D02*
X13122200Y-8648000D01*
X13404000Y-4426900D02*
X13484000Y-4506900D01*
X13484000Y-4426900D02*
X13404000Y-4506900D01*
X13404000Y-5188900D02*
X13484000Y-5268900D01*
X13484000Y-5188900D02*
X13404000Y-5268900D01*
X13490500Y-10180900D02*
X13570500Y-10260900D01*
X13570500Y-10180900D02*
X13490500Y-10260900D01*
X13490500Y-10942900D02*
X13570500Y-11022900D01*
X13570500Y-10942900D02*
X13490500Y-11022900D01*
X13658000Y-4426900D02*
X13738000Y-4506900D01*
X13738000Y-4426900D02*
X13658000Y-4506900D01*
X13658000Y-5188900D02*
X13738000Y-5268900D01*
X13738000Y-5188900D02*
X13658000Y-5268900D01*
X13744500Y-10180900D02*
X13824500Y-10260900D01*
X13824500Y-10180900D02*
X13744500Y-10260900D01*
X13744500Y-10942900D02*
X13824500Y-11022900D01*
X13824500Y-10942900D02*
X13744500Y-11022900D01*
X13881800Y-6143200D02*
X13961800Y-6223200D01*
X13961800Y-6143200D02*
X13881800Y-6223200D01*
X13881800Y-7159200D02*
X13961800Y-7239200D01*
X13961800Y-7159200D02*
X13881800Y-7239200D01*
X13884200Y-7552000D02*
X13964200Y-7632000D01*
X13964200Y-7552000D02*
X13884200Y-7632000D01*
X13884200Y-8568000D02*
X13964200Y-8648000D01*
X13964200Y-8568000D02*
X13884200Y-8648000D01*
X13912000Y-4426900D02*
X13992000Y-4506900D01*
X13992000Y-4426900D02*
X13912000Y-4506900D01*
X13912000Y-5188900D02*
X13992000Y-5268900D01*
X13992000Y-5188900D02*
X13912000Y-5268900D01*
X13998500Y-10180900D02*
X14078500Y-10260900D01*
X14078500Y-10180900D02*
X13998500Y-10260900D01*
X13998500Y-10942900D02*
X14078500Y-11022900D01*
X14078500Y-10942900D02*
X13998500Y-11022900D01*
X14166000Y-4426900D02*
X14246000Y-4506900D01*
X14246000Y-4426900D02*
X14166000Y-4506900D01*
X14166000Y-5188900D02*
X14246000Y-5268900D01*
X14246000Y-5188900D02*
X14166000Y-5268900D01*
X14252500Y-10180900D02*
X14332500Y-10260900D01*
X14332500Y-10180900D02*
X14252500Y-10260900D01*
X14252500Y-10942900D02*
X14332500Y-11022900D01*
X14332500Y-10942900D02*
X14252500Y-11022900D01*
X14420000Y-4426900D02*
X14500000Y-4506900D01*
X14500000Y-4426900D02*
X14420000Y-4506900D01*
X14420000Y-5188900D02*
X14500000Y-5268900D01*
X14500000Y-5188900D02*
X14420000Y-5268900D01*
X14506500Y-10180900D02*
X14586500Y-10260900D01*
X14586500Y-10180900D02*
X14506500Y-10260900D01*
X14506500Y-10942900D02*
X14586500Y-11022900D01*
X14586500Y-10942900D02*
X14506500Y-11022900D01*
X14674000Y-4426900D02*
X14754000Y-4506900D01*
X14754000Y-4426900D02*
X14674000Y-4506900D01*
X14674000Y-5188900D02*
X14754000Y-5268900D01*
X14754000Y-5188900D02*
X14674000Y-5268900D01*
X14709700Y-6180400D02*
X14789700Y-6260400D01*
X14789700Y-6180400D02*
X14709700Y-6260400D01*
X14709700Y-7196400D02*
X14789700Y-7276400D01*
X14789700Y-7196400D02*
X14709700Y-7276400D01*
X14709700Y-7552000D02*
X14789700Y-7632000D01*
X14789700Y-7552000D02*
X14709700Y-7632000D01*
X14709700Y-8568000D02*
X14789700Y-8648000D01*
X14789700Y-8568000D02*
X14709700Y-8648000D01*
X14760500Y-10180900D02*
X14840500Y-10260900D01*
X14840500Y-10180900D02*
X14760500Y-10260900D01*
X14760500Y-10942900D02*
X14840500Y-11022900D01*
X14840500Y-10942900D02*
X14760500Y-11022900D01*
X14928000Y-4426900D02*
X15008000Y-4506900D01*
X15008000Y-4426900D02*
X14928000Y-4506900D01*
X14928000Y-5188900D02*
X15008000Y-5268900D01*
X15008000Y-5188900D02*
X14928000Y-5268900D01*
X15014500Y-10180900D02*
X15094500Y-10260900D01*
X15094500Y-10180900D02*
X15014500Y-10260900D01*
X15014500Y-10942900D02*
X15094500Y-11022900D01*
X15094500Y-10942900D02*
X15014500Y-11022900D01*
X15182000Y-4426900D02*
X15262000Y-4506900D01*
X15262000Y-4426900D02*
X15182000Y-4506900D01*
X15182000Y-5188900D02*
X15262000Y-5268900D01*
X15262000Y-5188900D02*
X15182000Y-5268900D01*
X15268500Y-10180900D02*
X15348500Y-10260900D01*
X15348500Y-10180900D02*
X15268500Y-10260900D01*
X15268500Y-10942900D02*
X15348500Y-11022900D01*
X15348500Y-10942900D02*
X15268500Y-11022900D01*
X15535200Y-6180400D02*
X15615200Y-6260400D01*
X15615200Y-6180400D02*
X15535200Y-6260400D01*
X15535200Y-7196400D02*
X15615200Y-7276400D01*
X15615200Y-7196400D02*
X15535200Y-7276400D01*
X15535200Y-7552000D02*
X15615200Y-7632000D01*
X15615200Y-7552000D02*
X15535200Y-7632000D01*
X15535200Y-8568000D02*
X15615200Y-8648000D01*
X15615200Y-8568000D02*
X15535200Y-8648000D01*
X16360700Y-6180400D02*
X16440700Y-6260400D01*
X16440700Y-6180400D02*
X16360700Y-6260400D01*
X16360700Y-7196400D02*
X16440700Y-7276400D01*
X16440700Y-7196400D02*
X16360700Y-7276400D01*
X16360700Y-7552000D02*
X16440700Y-7632000D01*
X16440700Y-7552000D02*
X16360700Y-7632000D01*
X16360700Y-8568000D02*
X16440700Y-8648000D01*
X16440700Y-8568000D02*
X16360700Y-8648000D01*
X17110000Y-6180400D02*
X17190000Y-6260400D01*
X17190000Y-6180400D02*
X17110000Y-6260400D01*
X17110000Y-7196400D02*
X17190000Y-7276400D01*
X17190000Y-7196400D02*
X17110000Y-7276400D01*
X17110000Y-7552000D02*
X17190000Y-7632000D01*
X17190000Y-7552000D02*
X17110000Y-7632000D01*
X17110000Y-8568000D02*
X17190000Y-8648000D01*
X17190000Y-8568000D02*
X17110000Y-8648000D01*
X17491000Y-10610400D02*
X17571000Y-10690400D01*
X17571000Y-10610400D02*
X17491000Y-10690400D01*
X17491000Y-11626400D02*
X17571000Y-11706400D01*
X17571000Y-11626400D02*
X17491000Y-11706400D01*
X17872000Y-10610400D02*
X17952000Y-10690400D01*
X17952000Y-10610400D02*
X17872000Y-10690400D01*
X17872000Y-11626400D02*
X17952000Y-11706400D01*
X17952000Y-11626400D02*
X17872000Y-11706400D01*
X17892400Y-4024000D02*
X17972400Y-4104000D01*
X17972400Y-4024000D02*
X17892400Y-4104000D01*
X17892400Y-4278000D02*
X17972400Y-4358000D01*
X17972400Y-4278000D02*
X17892400Y-4358000D01*
X17892400Y-4532000D02*
X17972400Y-4612000D01*
X17972400Y-4532000D02*
X17892400Y-4612000D01*
X17892400Y-4786000D02*
X17972400Y-4866000D01*
X17972400Y-4786000D02*
X17892400Y-4866000D01*
X17892400Y-5040000D02*
X17972400Y-5120000D01*
X17972400Y-5040000D02*
X17892400Y-5120000D01*
X17892400Y-5294000D02*
X17972400Y-5374000D01*
X17972400Y-5294000D02*
X17892400Y-5374000D01*
X17892400Y-5548000D02*
X17972400Y-5628000D01*
X17972400Y-5548000D02*
X17892400Y-5628000D01*
X17892400Y-5802000D02*
X17972400Y-5882000D01*
X17972400Y-5802000D02*
X17892400Y-5882000D01*
X18253000Y-10610400D02*
X18333000Y-10690400D01*
X18333000Y-10610400D02*
X18253000Y-10690400D01*
X18253000Y-11626400D02*
X18333000Y-11706400D01*
X18333000Y-11626400D02*
X18253000Y-11706400D01*
X18654400Y-4024000D02*
X18734400Y-4104000D01*
X18734400Y-4024000D02*
X18654400Y-4104000D01*
X18654400Y-4278000D02*
X18734400Y-4358000D01*
X18734400Y-4278000D02*
X18654400Y-4358000D01*
X18654400Y-4532000D02*
X18734400Y-4612000D01*
X18734400Y-4532000D02*
X18654400Y-4612000D01*
X18654400Y-4786000D02*
X18734400Y-4866000D01*
X18734400Y-4786000D02*
X18654400Y-4866000D01*
X18654400Y-5040000D02*
X18734400Y-5120000D01*
X18734400Y-5040000D02*
X18654400Y-5120000D01*
X18654400Y-5294000D02*
X18734400Y-5374000D01*
X18734400Y-5294000D02*
X18654400Y-5374000D01*
X18654400Y-5548000D02*
X18734400Y-5628000D01*
X18734400Y-5548000D02*
X18654400Y-5628000D01*
X18654400Y-5802000D02*
X18734400Y-5882000D01*
X18734400Y-5802000D02*
X18654400Y-5882000D01*
X8909600Y-14592500D02*
G75*
G02*
X8819600Y-14592500I-45000J0D01*
G01*
X8819600Y-14592500D02*
G75*
G02*
X8909600Y-14592500I45000J0D01*
G01*
X8909600Y-14922500D02*
G75*
G02*
X8819600Y-14922500I-45000J0D01*
G01*
X8819600Y-14922500D02*
G75*
G02*
X8909600Y-14922500I45000J0D01*
G01*
X9159600Y-14592500D02*
G75*
G02*
X9069600Y-14592500I-45000J0D01*
G01*
X9069600Y-14592500D02*
G75*
G02*
X9159600Y-14592500I45000J0D01*
G01*
X9159600Y-14922500D02*
G75*
G02*
X9069600Y-14922500I-45000J0D01*
G01*
X9069600Y-14922500D02*
G75*
G02*
X9159600Y-14922500I45000J0D01*
G01*
X9409600Y-14592500D02*
G75*
G02*
X9319600Y-14592500I-45000J0D01*
G01*
X9319600Y-14592500D02*
G75*
G02*
X9409600Y-14592500I45000J0D01*
G01*
X9409600Y-14922500D02*
G75*
G02*
X9319600Y-14922500I-45000J0D01*
G01*
X9319600Y-14922500D02*
G75*
G02*
X9409600Y-14922500I45000J0D01*
G01*
X12007000Y-10372900D02*
G75*
G02*
X11917000Y-10372900I-45000J0D01*
G01*
X11917000Y-10372900D02*
G75*
G02*
X12007000Y-10372900I45000J0D01*
G01*
X12261000Y-10372900D02*
G75*
G02*
X12171000Y-10372900I-45000J0D01*
G01*
X12171000Y-10372900D02*
G75*
G02*
X12261000Y-10372900I45000J0D01*
G01*
X17258500Y-12189400D02*
G75*
G02*
X17168500Y-12189400I-45000J0D01*
G01*
X17168500Y-12189400D02*
G75*
G02*
X17258500Y-12189400I45000J0D01*
G01*
X17258500Y-12443400D02*
G75*
G02*
X17168500Y-12443400I-45000J0D01*
G01*
X17168500Y-12443400D02*
G75*
G02*
X17258500Y-12443400I45000J0D01*
G01*
X18005500Y-12189400D02*
G75*
G02*
X17915500Y-12189400I-45000J0D01*
G01*
X17915500Y-12189400D02*
G75*
G02*
X18005500Y-12189400I45000J0D01*
G01*
X18005500Y-12443400D02*
G75*
G02*
X17915500Y-12443400I-45000J0D01*
G01*
X17915500Y-12443400D02*
G75*
G02*
X18005500Y-12443400I45000J0D01*
G01*
X18752500Y-12189400D02*
G75*
G02*
X18662500Y-12189400I-45000J0D01*
G01*
X18662500Y-12189400D02*
G75*
G02*
X18752500Y-12189400I45000J0D01*
G01*
X18752500Y-12443400D02*
G75*
G02*
X18662500Y-12443400I-45000J0D01*
G01*
X18662500Y-12443400D02*
G75*
G02*
X18752500Y-12443400I45000J0D01*
G01*
X6223000Y-10300500D02*
X6223000Y-10400500D01*
X6173000Y-10350500D02*
X6273000Y-10350500D01*
X6286500Y-12142000D02*
X6286500Y-12242000D01*
X6236500Y-12192000D02*
X6336500Y-12192000D01*
X9334500Y-7570000D02*
X9334500Y-7670000D01*
X9284500Y-7620000D02*
X9384500Y-7620000D01*
X9398000Y-10300500D02*
X9398000Y-10400500D01*
X9348000Y-10350500D02*
X9448000Y-10350500D01*
X9525000Y-12205500D02*
X9525000Y-12305500D01*
X9475000Y-12255500D02*
X9575000Y-12255500D01*
X10160000Y-2871000D02*
X10160000Y-2971000D01*
X10110000Y-2921000D02*
X10210000Y-2921000D01*
X10604500Y-7252500D02*
X10604500Y-7352500D01*
X10554500Y-7302500D02*
X10654500Y-7302500D01*
X12128500Y-4395000D02*
X12128500Y-4495000D01*
X12078500Y-4445000D02*
X12178500Y-4445000D01*
X13462000Y-12015000D02*
X13462000Y-12115000D01*
X13412000Y-12065000D02*
X13512000Y-12065000D01*
X14352200Y-11889200D02*
X14352200Y-11989200D01*
X14302200Y-11939200D02*
X14402200Y-11939200D01*
X16065500Y-12078500D02*
X16065500Y-12178500D01*
X16015500Y-12128500D02*
X16115500Y-12128500D01*
X17272000Y-9983000D02*
X17272000Y-10083000D01*
X17222000Y-10033000D02*
X17322000Y-10033000D01*
X17462500Y-5728500D02*
X17462500Y-5828500D01*
X17412500Y-5778500D02*
X17512500Y-5778500D01*
X18796000Y-12904000D02*
X18796000Y-13004000D01*
X18746000Y-12954000D02*
X18846000Y-12954000D01*
X19685000Y-4395000D02*
X19685000Y-4495000D01*
X19635000Y-4445000D02*
X19735000Y-4445000D01*
X19685000Y-7316000D02*
X19685000Y-7416000D01*
X19635000Y-7366000D02*
X19735000Y-7366000D01*
X19685000Y-9856000D02*
X19685000Y-9956000D01*
X19635000Y-9906000D02*
X19735000Y-9906000D01*
X19685000Y-13412000D02*
X19685000Y-13512000D01*
X19635000Y-13462000D02*
X19735000Y-13462000D01*
X21590000Y-14936000D02*
X21590000Y-15036000D01*
X21540000Y-14986000D02*
X21640000Y-14986000D01*
X22479000Y-4395000D02*
X22479000Y-4495000D01*
X22429000Y-4445000D02*
X22529000Y-4445000D01*
X23431500Y-7506500D02*
X23431500Y-7606500D01*
X23381500Y-7556500D02*
X23481500Y-7556500D01*
X23431500Y-9157500D02*
X23431500Y-9257500D01*
X23381500Y-9207500D02*
X23481500Y-9207500D01*
X23622000Y-14047000D02*
X23622000Y-14147000D01*
X23572000Y-14097000D02*
X23672000Y-14097000D01*
X6131356Y-13370356D02*
X6131356Y-13299644D01*
X6060644Y-13299644D01*
X6060644Y-13370356D01*
X6131356Y-13370356D01*
X6131356Y-13624356D02*
X6131356Y-13553644D01*
X6060644Y-13553644D01*
X6060644Y-13624356D01*
X6131356Y-13624356D01*
X6466556Y-8186156D02*
X6466556Y-8115444D01*
X6395844Y-8115444D01*
X6395844Y-8186156D01*
X6466556Y-8186156D01*
X6466556Y-9710156D02*
X6466556Y-9639444D01*
X6395844Y-9639444D01*
X6395844Y-9710156D01*
X6466556Y-9710156D01*
X6720556Y-8186156D02*
X6720556Y-8115444D01*
X6649844Y-8115444D01*
X6649844Y-8186156D01*
X6720556Y-8186156D01*
X6720556Y-9710156D02*
X6720556Y-9639444D01*
X6649844Y-9639444D01*
X6649844Y-9710156D01*
X6720556Y-9710156D01*
X6974556Y-8186156D02*
X6974556Y-8115444D01*
X6903844Y-8115444D01*
X6903844Y-8186156D01*
X6974556Y-8186156D01*
X6974556Y-9710156D02*
X6974556Y-9639444D01*
X6903844Y-9639444D01*
X6903844Y-9710156D01*
X6974556Y-9710156D01*
X7228556Y-8186156D02*
X7228556Y-8115444D01*
X7157844Y-8115444D01*
X7157844Y-8186156D01*
X7228556Y-8186156D01*
X7228556Y-9710156D02*
X7228556Y-9639444D01*
X7157844Y-9639444D01*
X7157844Y-9710156D01*
X7228556Y-9710156D01*
X7482556Y-8186156D02*
X7482556Y-8115444D01*
X7411844Y-8115444D01*
X7411844Y-8186156D01*
X7482556Y-8186156D01*
X7482556Y-9710156D02*
X7482556Y-9639444D01*
X7411844Y-9639444D01*
X7411844Y-9710156D01*
X7482556Y-9710156D01*
X7736556Y-8186156D02*
X7736556Y-8115444D01*
X7665844Y-8115444D01*
X7665844Y-8186156D01*
X7736556Y-8186156D01*
X7736556Y-9710156D02*
X7736556Y-9639444D01*
X7665844Y-9639444D01*
X7665844Y-9710156D01*
X7736556Y-9710156D01*
X7990556Y-8186156D02*
X7990556Y-8115444D01*
X7919844Y-8115444D01*
X7919844Y-8186156D01*
X7990556Y-8186156D01*
X7990556Y-9710156D02*
X7990556Y-9639444D01*
X7919844Y-9639444D01*
X7919844Y-9710156D01*
X7990556Y-9710156D01*
X8244556Y-8186156D02*
X8244556Y-8115444D01*
X8173844Y-8115444D01*
X8173844Y-8186156D01*
X8244556Y-8186156D01*
X8244556Y-9710156D02*
X8244556Y-9639444D01*
X8173844Y-9639444D01*
X8173844Y-9710156D01*
X8244556Y-9710156D01*
X8498556Y-8186156D02*
X8498556Y-8115444D01*
X8427844Y-8115444D01*
X8427844Y-8186156D01*
X8498556Y-8186156D01*
X8498556Y-9710156D02*
X8498556Y-9639444D01*
X8427844Y-9639444D01*
X8427844Y-9710156D01*
X8498556Y-9710156D01*
X8752556Y-8186156D02*
X8752556Y-8115444D01*
X8681844Y-8115444D01*
X8681844Y-8186156D01*
X8752556Y-8186156D01*
X8752556Y-9710156D02*
X8752556Y-9639444D01*
X8681844Y-9639444D01*
X8681844Y-9710156D01*
X8752556Y-9710156D01*
X9006556Y-8186156D02*
X9006556Y-8115444D01*
X8935844Y-8115444D01*
X8935844Y-8186156D01*
X9006556Y-8186156D01*
X9006556Y-9710156D02*
X9006556Y-9639444D01*
X8935844Y-9639444D01*
X8935844Y-9710156D01*
X9006556Y-9710156D01*
X9260556Y-8186156D02*
X9260556Y-8115444D01*
X9189844Y-8115444D01*
X9189844Y-8186156D01*
X9260556Y-8186156D01*
X9260556Y-9710156D02*
X9260556Y-9639444D01*
X9189844Y-9639444D01*
X9189844Y-9710156D01*
X9260556Y-9710156D01*
X9514556Y-8186156D02*
X9514556Y-8115444D01*
X9443844Y-8115444D01*
X9443844Y-8186156D01*
X9514556Y-8186156D01*
X9514556Y-9710156D02*
X9514556Y-9639444D01*
X9443844Y-9639444D01*
X9443844Y-9710156D01*
X9514556Y-9710156D01*
X9768556Y-8186156D02*
X9768556Y-8115444D01*
X9697844Y-8115444D01*
X9697844Y-8186156D01*
X9768556Y-8186156D01*
X9768556Y-9710156D02*
X9768556Y-9639444D01*
X9697844Y-9639444D01*
X9697844Y-9710156D01*
X9768556Y-9710156D01*
X10022556Y-8186156D02*
X10022556Y-8115444D01*
X9951844Y-8115444D01*
X9951844Y-8186156D01*
X10022556Y-8186156D01*
X10022556Y-9710156D02*
X10022556Y-9639444D01*
X9951844Y-9639444D01*
X9951844Y-9710156D01*
X10022556Y-9710156D01*
X10576356Y-12928456D02*
X10576356Y-12857744D01*
X10505644Y-12857744D01*
X10505644Y-12928456D01*
X10576356Y-12928456D01*
X10957356Y-12928456D02*
X10957356Y-12857744D01*
X10886644Y-12857744D01*
X10886644Y-12928456D01*
X10957356Y-12928456D01*
X11194356Y-9176756D02*
X11194356Y-9106044D01*
X11123644Y-9106044D01*
X11123644Y-9176756D01*
X11194356Y-9176756D01*
X11362356Y-12928456D02*
X11362356Y-12857744D01*
X11291644Y-12857744D01*
X11291644Y-12928456D01*
X11362356Y-12928456D01*
X11694356Y-8926756D02*
X11694356Y-8856044D01*
X11623644Y-8856044D01*
X11623644Y-8926756D01*
X11694356Y-8926756D01*
X11694356Y-9426756D02*
X11694356Y-9356044D01*
X11623644Y-9356044D01*
X11623644Y-9426756D01*
X11694356Y-9426756D01*
X12019856Y-9176756D02*
X12019856Y-9106044D01*
X11949144Y-9106044D01*
X11949144Y-9176756D01*
X12019856Y-9176756D01*
X12354356Y-14767356D02*
X12354356Y-14696644D01*
X12283644Y-14696644D01*
X12283644Y-14767356D01*
X12354356Y-14767356D01*
X12519856Y-8926756D02*
X12519856Y-8856044D01*
X12449144Y-8856044D01*
X12449144Y-8926756D01*
X12519856Y-8926756D01*
X12519856Y-9426756D02*
X12519856Y-9356044D01*
X12449144Y-9356044D01*
X12449144Y-9426756D01*
X12519856Y-9426756D01*
X12608356Y-14767356D02*
X12608356Y-14696644D01*
X12537644Y-14696644D01*
X12537644Y-14767356D01*
X12608356Y-14767356D01*
X12845356Y-9176756D02*
X12845356Y-9106044D01*
X12774644Y-9106044D01*
X12774644Y-9176756D01*
X12845356Y-9176756D01*
X13345356Y-8926756D02*
X13345356Y-8856044D01*
X13274644Y-8856044D01*
X13274644Y-8926756D01*
X13345356Y-8926756D01*
X13345356Y-9426756D02*
X13345356Y-9356044D01*
X13274644Y-9356044D01*
X13274644Y-9426756D01*
X13345356Y-9426756D01*
X13670856Y-9172756D02*
X13670856Y-9102044D01*
X13600144Y-9102044D01*
X13600144Y-9172756D01*
X13670856Y-9172756D01*
X14170856Y-8922756D02*
X14170856Y-8852044D01*
X14100144Y-8852044D01*
X14100144Y-8922756D01*
X14170856Y-8922756D01*
X14170856Y-9422756D02*
X14170856Y-9352044D01*
X14100144Y-9352044D01*
X14100144Y-9422756D01*
X14170856Y-9422756D01*
X14518356Y-9176756D02*
X14518356Y-9106044D01*
X14447644Y-9106044D01*
X14447644Y-9176756D01*
X14518356Y-9176756D01*
X15018356Y-8926756D02*
X15018356Y-8856044D01*
X14947644Y-8856044D01*
X14947644Y-8926756D01*
X15018356Y-8926756D01*
X15018356Y-9426756D02*
X15018356Y-9356044D01*
X14947644Y-9356044D01*
X14947644Y-9426756D01*
X15018356Y-9426756D01*
X15343856Y-9176756D02*
X15343856Y-9106044D01*
X15273144Y-9106044D01*
X15273144Y-9176756D01*
X15343856Y-9176756D01*
X15843856Y-8926756D02*
X15843856Y-8856044D01*
X15773144Y-8856044D01*
X15773144Y-8926756D01*
X15843856Y-8926756D01*
X15843856Y-9426756D02*
X15843856Y-9356044D01*
X15773144Y-9356044D01*
X15773144Y-9426756D01*
X15843856Y-9426756D01*
X16169356Y-9172756D02*
X16169356Y-9102044D01*
X16098644Y-9102044D01*
X16098644Y-9172756D01*
X16169356Y-9172756D01*
X16669356Y-8922756D02*
X16669356Y-8852044D01*
X16598644Y-8852044D01*
X16598644Y-8922756D01*
X16669356Y-8922756D01*
X16669356Y-9422756D02*
X16669356Y-9352044D01*
X16598644Y-9352044D01*
X16598644Y-9422756D01*
X16669356Y-9422756D01*
X16672356Y-12989356D02*
X16672356Y-12918644D01*
X16601644Y-12918644D01*
X16601644Y-12989356D01*
X16672356Y-12989356D01*
X16672356Y-13243356D02*
X16672356Y-13172644D01*
X16601644Y-13172644D01*
X16601644Y-13243356D01*
X16672356Y-13243356D01*
X16994856Y-9176756D02*
X16994856Y-9106044D01*
X16924144Y-9106044D01*
X16924144Y-9176756D01*
X16994856Y-9176756D01*
X17494856Y-8926756D02*
X17494856Y-8856044D01*
X17424144Y-8856044D01*
X17424144Y-8926756D01*
X17494856Y-8926756D01*
X17494856Y-9426756D02*
X17494856Y-9356044D01*
X17424144Y-9356044D01*
X17424144Y-9426756D01*
X17494856Y-9426756D01*
X18196356Y-2829356D02*
X18196356Y-2758644D01*
X18125644Y-2758644D01*
X18125644Y-2829356D01*
X18196356Y-2829356D01*
X18450356Y-2829356D02*
X18450356Y-2758644D01*
X18379644Y-2758644D01*
X18379644Y-2829356D01*
X18450356Y-2829356D01*
X23276356Y-6639356D02*
X23276356Y-6568644D01*
X23205644Y-6568644D01*
X23205644Y-6639356D01*
X23276356Y-6639356D01*
X23276356Y-6893356D02*
X23276356Y-6822644D01*
X23205644Y-6822644D01*
X23205644Y-6893356D01*
X23276356Y-6893356D01*
X23276356Y-8290356D02*
X23276356Y-8219644D01*
X23205644Y-8219644D01*
X23205644Y-8290356D01*
X23276356Y-8290356D01*
X23276356Y-8544356D02*
X23276356Y-8473644D01*
X23205644Y-8473644D01*
X23205644Y-8544356D01*
X23276356Y-8544356D01*
X23276356Y-9941356D02*
X23276356Y-9870644D01*
X23205644Y-9870644D01*
X23205644Y-9941356D01*
X23276356Y-9941356D01*
X23276356Y-10195356D02*
X23276356Y-10124644D01*
X23205644Y-10124644D01*
X23205644Y-10195356D01*
X23276356Y-10195356D01*
D13*
X7048500Y-12945500D02*
X7103500Y-12890500D01*
X7048500Y-12835500D01*
X6993500Y-12890500D01*
X7048500Y-12945500D01*
X7302500Y-12945500D02*
X7357500Y-12890500D01*
X7302500Y-12835500D01*
X7247500Y-12890500D01*
X7302500Y-12945500D01*
X7556500Y-12945500D02*
X7611500Y-12890500D01*
X7556500Y-12835500D01*
X7501500Y-12890500D01*
X7556500Y-12945500D01*
D14*
X14423000Y-13970900D02*
X14543000Y-14090900D01*
X14543000Y-13970900D02*
X14423000Y-14090900D01*
X14543000Y-14030900D02*
G75*
G02*
X14423000Y-14030900I-60000J0D01*
G01*
X14423000Y-14030900D02*
G75*
G02*
X14543000Y-14030900I60000J0D01*
G01*
X21847500Y-13275000D02*
X21967500Y-13395000D01*
X21967500Y-13275000D02*
X21847500Y-13395000D01*
X21967500Y-13335000D02*
G75*
G02*
X21847500Y-13335000I-60000J0D01*
G01*
X21847500Y-13335000D02*
G75*
G02*
X21967500Y-13335000I60000J0D01*
G01*
D15*
X5960000Y-2856000D02*
X6090000Y-2986000D01*
X6090000Y-2856000D02*
X5960000Y-2986000D01*
X6025000Y-2856000D02*
X6025000Y-2986000D01*
X5960000Y-2921000D02*
X6090000Y-2921000D01*
X6460000Y-2856000D02*
X6590000Y-2986000D01*
X6590000Y-2856000D02*
X6460000Y-2986000D01*
X6525000Y-2856000D02*
X6525000Y-2986000D01*
X6460000Y-2921000D02*
X6590000Y-2921000D01*
X6960000Y-2856000D02*
X7090000Y-2986000D01*
X7090000Y-2856000D02*
X6960000Y-2986000D01*
X7025000Y-2856000D02*
X7025000Y-2986000D01*
X6960000Y-2921000D02*
X7090000Y-2921000D01*
X7460000Y-2856000D02*
X7590000Y-2986000D01*
X7590000Y-2856000D02*
X7460000Y-2986000D01*
X7525000Y-2856000D02*
X7525000Y-2986000D01*
X7460000Y-2921000D02*
X7590000Y-2921000D01*
X7960000Y-2856000D02*
X8090000Y-2986000D01*
X8090000Y-2856000D02*
X7960000Y-2986000D01*
X8025000Y-2856000D02*
X8025000Y-2986000D01*
X7960000Y-2921000D02*
X8090000Y-2921000D01*
X8460000Y-2856000D02*
X8590000Y-2986000D01*
X8590000Y-2856000D02*
X8460000Y-2986000D01*
X8525000Y-2856000D02*
X8525000Y-2986000D01*
X8460000Y-2921000D02*
X8590000Y-2921000D01*
X8960000Y-2856000D02*
X9090000Y-2986000D01*
X9090000Y-2856000D02*
X8960000Y-2986000D01*
X9025000Y-2856000D02*
X9025000Y-2986000D01*
X8960000Y-2921000D02*
X9090000Y-2921000D01*
X9460000Y-2856000D02*
X9590000Y-2986000D01*
X9590000Y-2856000D02*
X9460000Y-2986000D01*
X9525000Y-2856000D02*
X9525000Y-2986000D01*
X9460000Y-2921000D02*
X9590000Y-2921000D01*
X12363500Y-3004900D02*
X12493500Y-3134900D01*
X12493500Y-3004900D02*
X12363500Y-3134900D01*
X12428500Y-3004900D02*
X12428500Y-3134900D01*
X12363500Y-3069900D02*
X12493500Y-3069900D01*
X12863500Y-3004900D02*
X12993500Y-3134900D01*
X12993500Y-3004900D02*
X12863500Y-3134900D01*
X12928500Y-3004900D02*
X12928500Y-3134900D01*
X12863500Y-3069900D02*
X12993500Y-3069900D01*
X13363500Y-3004900D02*
X13493500Y-3134900D01*
X13493500Y-3004900D02*
X13363500Y-3134900D01*
X13428500Y-3004900D02*
X13428500Y-3134900D01*
X13363500Y-3069900D02*
X13493500Y-3069900D01*
X13863500Y-3004900D02*
X13993500Y-3134900D01*
X13993500Y-3004900D02*
X13863500Y-3134900D01*
X13928500Y-3004900D02*
X13928500Y-3134900D01*
X13863500Y-3069900D02*
X13993500Y-3069900D01*
X14363500Y-3004900D02*
X14493500Y-3134900D01*
X14493500Y-3004900D02*
X14363500Y-3134900D01*
X14428500Y-3004900D02*
X14428500Y-3134900D01*
X14363500Y-3069900D02*
X14493500Y-3069900D01*
X14863500Y-3004900D02*
X14993500Y-3134900D01*
X14993500Y-3004900D02*
X14863500Y-3134900D01*
X14928500Y-3004900D02*
X14928500Y-3134900D01*
X14863500Y-3069900D02*
X14993500Y-3069900D01*
X15363500Y-3004900D02*
X15493500Y-3134900D01*
X15493500Y-3004900D02*
X15363500Y-3134900D01*
X15428500Y-3004900D02*
X15428500Y-3134900D01*
X15363500Y-3069900D02*
X15493500Y-3069900D01*
X15863500Y-3004900D02*
X15993500Y-3134900D01*
X15993500Y-3004900D02*
X15863500Y-3134900D01*
X15928500Y-3004900D02*
X15928500Y-3134900D01*
X15863500Y-3069900D02*
X15993500Y-3069900D01*
X16363500Y-3004900D02*
X16493500Y-3134900D01*
X16493500Y-3004900D02*
X16363500Y-3134900D01*
X16428500Y-3004900D02*
X16428500Y-3134900D01*
X16363500Y-3069900D02*
X16493500Y-3069900D01*
X16863500Y-3004900D02*
X16993500Y-3134900D01*
X16993500Y-3004900D02*
X16863500Y-3134900D01*
X16928500Y-3004900D02*
X16928500Y-3134900D01*
X16863500Y-3069900D02*
X16993500Y-3069900D01*
X19414000Y-2983000D02*
X19544000Y-3113000D01*
X19544000Y-2983000D02*
X19414000Y-3113000D01*
X19479000Y-2983000D02*
X19479000Y-3113000D01*
X19414000Y-3048000D02*
X19544000Y-3048000D01*
X19914000Y-2983000D02*
X20044000Y-3113000D01*
X20044000Y-2983000D02*
X19914000Y-3113000D01*
X19979000Y-2983000D02*
X19979000Y-3113000D01*
X19914000Y-3048000D02*
X20044000Y-3048000D01*
X20414000Y-2983000D02*
X20544000Y-3113000D01*
X20544000Y-2983000D02*
X20414000Y-3113000D01*
X20479000Y-2983000D02*
X20479000Y-3113000D01*
X20414000Y-3048000D02*
X20544000Y-3048000D01*
X20914000Y-2983000D02*
X21044000Y-3113000D01*
X21044000Y-2983000D02*
X20914000Y-3113000D01*
X20979000Y-2983000D02*
X20979000Y-3113000D01*
X20914000Y-3048000D02*
X21044000Y-3048000D01*
X21414000Y-2983000D02*
X21544000Y-3113000D01*
X21544000Y-2983000D02*
X21414000Y-3113000D01*
X21479000Y-2983000D02*
X21479000Y-3113000D01*
X21414000Y-3048000D02*
X21544000Y-3048000D01*
X21914000Y-2983000D02*
X22044000Y-3113000D01*
X22044000Y-2983000D02*
X21914000Y-3113000D01*
X21979000Y-2983000D02*
X21979000Y-3113000D01*
X21914000Y-3048000D02*
X22044000Y-3048000D01*
X22414000Y-2983000D02*
X22544000Y-3113000D01*
X22544000Y-2983000D02*
X22414000Y-3113000D01*
X22479000Y-2983000D02*
X22479000Y-3113000D01*
X22414000Y-3048000D02*
X22544000Y-3048000D01*
X22914000Y-2983000D02*
X23044000Y-3113000D01*
X23044000Y-2983000D02*
X22914000Y-3113000D01*
X22979000Y-2983000D02*
X22979000Y-3113000D01*
X22914000Y-3048000D02*
X23044000Y-3048000D01*
X23414000Y-2983000D02*
X23544000Y-3113000D01*
X23544000Y-2983000D02*
X23414000Y-3113000D01*
X23479000Y-2983000D02*
X23479000Y-3113000D01*
X23414000Y-3048000D02*
X23544000Y-3048000D01*
D16*
X7206400Y-14462800D02*
X7338400Y-14594800D01*
X7338400Y-14462800D02*
X7206400Y-14594800D01*
X7319069Y-14575469D02*
X7319069Y-14482130D01*
X7225730Y-14482130D01*
X7225730Y-14575469D01*
X7319069Y-14575469D01*
X7706400Y-14462800D02*
X7838400Y-14594800D01*
X7838400Y-14462800D02*
X7706400Y-14594800D01*
X7819069Y-14575469D02*
X7819069Y-14482130D01*
X7725730Y-14482130D01*
X7725730Y-14575469D01*
X7819069Y-14575469D01*
X10369000Y-14475500D02*
X10501000Y-14607500D01*
X10501000Y-14475500D02*
X10369000Y-14607500D01*
X10481670Y-14588169D02*
X10481670Y-14494830D01*
X10388331Y-14494830D01*
X10388331Y-14588169D01*
X10481670Y-14588169D01*
X10610000Y-3109000D02*
X10742000Y-3241000D01*
X10742000Y-3109000D02*
X10610000Y-3241000D01*
X10722670Y-3221669D02*
X10722670Y-3128330D01*
X10629331Y-3128330D01*
X10629331Y-3221669D01*
X10722670Y-3221669D01*
X10869000Y-14475500D02*
X11001000Y-14607500D01*
X11001000Y-14475500D02*
X10869000Y-14607500D01*
X10981670Y-14588169D02*
X10981670Y-14494830D01*
X10888331Y-14494830D01*
X10888331Y-14588169D01*
X10981670Y-14588169D01*
X11110000Y-3109000D02*
X11242000Y-3241000D01*
X11242000Y-3109000D02*
X11110000Y-3241000D01*
X11222669Y-3221669D02*
X11222669Y-3128330D01*
X11129331Y-3128330D01*
X11129331Y-3221669D01*
X11222669Y-3221669D01*
X11369000Y-14475500D02*
X11501000Y-14607500D01*
X11501000Y-14475500D02*
X11369000Y-14607500D01*
X11481669Y-14588169D02*
X11481669Y-14494830D01*
X11388330Y-14494830D01*
X11388330Y-14588169D01*
X11481669Y-14588169D01*
X17489000Y-14412000D02*
X17621000Y-14544000D01*
X17621000Y-14412000D02*
X17489000Y-14544000D01*
X17601670Y-14524669D02*
X17601670Y-14431330D01*
X17508331Y-14431330D01*
X17508331Y-14524669D01*
X17601670Y-14524669D01*
X17989000Y-14412000D02*
X18121000Y-14544000D01*
X18121000Y-14412000D02*
X17989000Y-14544000D01*
X18101670Y-14524669D02*
X18101670Y-14431330D01*
X18008331Y-14431330D01*
X18008331Y-14524669D01*
X18101670Y-14524669D01*
X18489000Y-14412000D02*
X18621000Y-14544000D01*
X18621000Y-14412000D02*
X18489000Y-14544000D01*
X18601670Y-14524669D02*
X18601670Y-14431330D01*
X18508331Y-14431330D01*
X18508331Y-14524669D01*
X18601670Y-14524669D01*
X18989000Y-14412000D02*
X19121000Y-14544000D01*
X19121000Y-14412000D02*
X18989000Y-14544000D01*
X19101670Y-14524669D02*
X19101670Y-14431330D01*
X19008331Y-14431330D01*
X19008331Y-14524669D01*
X19101670Y-14524669D01*
D17*
X14022000Y-13505900D02*
X14182000Y-13665900D01*
X14182000Y-13505900D02*
X14022000Y-13665900D01*
X14102000Y-13665900D02*
X14182000Y-13585900D01*
X14102000Y-13505900D01*
X14022000Y-13585900D01*
X14102000Y-13665900D01*
X14784000Y-13505900D02*
X14944000Y-13665900D01*
X14944000Y-13505900D02*
X14784000Y-13665900D01*
X14864000Y-13665900D02*
X14944000Y-13585900D01*
X14864000Y-13505900D01*
X14784000Y-13585900D01*
X14864000Y-13665900D01*
X21446500Y-12810000D02*
X21606500Y-12970000D01*
X21606500Y-12810000D02*
X21446500Y-12970000D01*
X21526500Y-12970000D02*
X21606500Y-12890000D01*
X21526500Y-12810000D01*
X21446500Y-12890000D01*
X21526500Y-12970000D01*
X22208500Y-12810000D02*
X22368500Y-12970000D01*
X22368500Y-12810000D02*
X22208500Y-12970000D01*
X22288500Y-12970000D02*
X22368500Y-12890000D01*
X22288500Y-12810000D01*
X22208500Y-12890000D01*
X22288500Y-12970000D01*
D18*
X6096000Y-3904000D02*
X6096000Y-4224000D01*
X5936000Y-4064000D02*
X6256000Y-4064000D01*
X6256000Y-4064000D02*
G75*
G02*
X5936000Y-4064000I-160000J0D01*
G01*
X5936000Y-4064000D02*
G75*
G02*
X6256000Y-4064000I160000J0D01*
G01*
X6096000Y-14572000D02*
X6096000Y-14892000D01*
X5936000Y-14732000D02*
X6256000Y-14732000D01*
X6256000Y-14732000D02*
G75*
G02*
X5936000Y-14732000I-160000J0D01*
G01*
X5936000Y-14732000D02*
G75*
G02*
X6256000Y-14732000I160000J0D01*
G01*
X23368000Y-3904000D02*
X23368000Y-4224000D01*
X23208000Y-4064000D02*
X23528000Y-4064000D01*
X23528000Y-4064000D02*
G75*
G02*
X23208000Y-4064000I-160000J0D01*
G01*
X23208000Y-4064000D02*
G75*
G02*
X23528000Y-4064000I160000J0D01*
G01*
X23368000Y-14572000D02*
X23368000Y-14892000D01*
X23208000Y-14732000D02*
X23528000Y-14732000D01*
X23528000Y-14732000D02*
G75*
G02*
X23208000Y-14732000I-160000J0D01*
G01*
X23208000Y-14732000D02*
G75*
G02*
X23528000Y-14732000I160000J0D01*
G01*
D11*
X5836277Y-15563984D02*
X5836277Y-15363984D01*
X5836277Y-15363984D02*
X5883896Y-15363984D01*
X5883896Y-15363984D02*
X5912467Y-15373508D01*
X5912467Y-15373508D02*
X5931515Y-15392555D01*
X5931515Y-15392555D02*
X5941039Y-15411603D01*
X5941039Y-15411603D02*
X5950562Y-15449698D01*
X5950562Y-15449698D02*
X5950562Y-15478269D01*
X5950562Y-15478269D02*
X5941039Y-15516365D01*
X5941039Y-15516365D02*
X5931515Y-15535412D01*
X5931515Y-15535412D02*
X5912467Y-15554460D01*
X5912467Y-15554460D02*
X5883896Y-15563984D01*
X5883896Y-15563984D02*
X5836277Y-15563984D01*
X6036277Y-15563984D02*
X6036277Y-15430650D01*
X6036277Y-15468746D02*
X6045801Y-15449698D01*
X6045801Y-15449698D02*
X6055324Y-15440174D01*
X6055324Y-15440174D02*
X6074372Y-15430650D01*
X6074372Y-15430650D02*
X6093420Y-15430650D01*
X6160086Y-15563984D02*
X6160086Y-15430650D01*
X6160086Y-15363984D02*
X6150562Y-15373508D01*
X6150562Y-15373508D02*
X6160086Y-15383031D01*
X6160086Y-15383031D02*
X6169610Y-15373508D01*
X6169610Y-15373508D02*
X6160086Y-15363984D01*
X6160086Y-15363984D02*
X6160086Y-15383031D01*
X6283896Y-15563984D02*
X6264848Y-15554460D01*
X6264848Y-15554460D02*
X6255324Y-15535412D01*
X6255324Y-15535412D02*
X6255324Y-15363984D01*
X6388658Y-15563984D02*
X6369610Y-15554460D01*
X6369610Y-15554460D02*
X6360086Y-15535412D01*
X6360086Y-15535412D02*
X6360086Y-15363984D01*
X6617229Y-15563984D02*
X6617229Y-15363984D01*
X6617229Y-15363984D02*
X6683896Y-15506841D01*
X6683896Y-15506841D02*
X6750562Y-15363984D01*
X6750562Y-15363984D02*
X6750562Y-15563984D01*
X6931515Y-15563984D02*
X6931515Y-15459222D01*
X6931515Y-15459222D02*
X6921991Y-15440174D01*
X6921991Y-15440174D02*
X6902943Y-15430650D01*
X6902943Y-15430650D02*
X6864848Y-15430650D01*
X6864848Y-15430650D02*
X6845801Y-15440174D01*
X6931515Y-15554460D02*
X6912467Y-15563984D01*
X6912467Y-15563984D02*
X6864848Y-15563984D01*
X6864848Y-15563984D02*
X6845801Y-15554460D01*
X6845801Y-15554460D02*
X6836277Y-15535412D01*
X6836277Y-15535412D02*
X6836277Y-15516365D01*
X6836277Y-15516365D02*
X6845801Y-15497317D01*
X6845801Y-15497317D02*
X6864848Y-15487793D01*
X6864848Y-15487793D02*
X6912467Y-15487793D01*
X6912467Y-15487793D02*
X6931515Y-15478269D01*
X7026753Y-15430650D02*
X7026753Y-15630650D01*
X7026753Y-15440174D02*
X7045801Y-15430650D01*
X7045801Y-15430650D02*
X7083896Y-15430650D01*
X7083896Y-15430650D02*
X7102943Y-15440174D01*
X7102943Y-15440174D02*
X7112467Y-15449698D01*
X7112467Y-15449698D02*
X7121991Y-15468746D01*
X7121991Y-15468746D02*
X7121991Y-15525888D01*
X7121991Y-15525888D02*
X7112467Y-15544936D01*
X7112467Y-15544936D02*
X7102943Y-15554460D01*
X7102943Y-15554460D02*
X7083896Y-15563984D01*
X7083896Y-15563984D02*
X7045801Y-15563984D01*
X7045801Y-15563984D02*
X7026753Y-15554460D01*
X7207705Y-15544936D02*
X7217229Y-15554460D01*
X7217229Y-15554460D02*
X7207705Y-15563984D01*
X7207705Y-15563984D02*
X7198182Y-15554460D01*
X7198182Y-15554460D02*
X7207705Y-15544936D01*
X7207705Y-15544936D02*
X7207705Y-15563984D01*
X7207705Y-15440174D02*
X7217229Y-15449698D01*
X7217229Y-15449698D02*
X7207705Y-15459222D01*
X7207705Y-15459222D02*
X7198182Y-15449698D01*
X7198182Y-15449698D02*
X7207705Y-15440174D01*
X7207705Y-15440174D02*
X7207705Y-15459222D01*
D12*
X5495500Y-15852500D02*
X5575500Y-15932500D01*
X5575500Y-15852500D02*
X5495500Y-15932500D01*
D11*
X5874372Y-15783984D02*
X5893420Y-15783984D01*
X5893420Y-15783984D02*
X5912467Y-15793508D01*
X5912467Y-15793508D02*
X5921991Y-15803031D01*
X5921991Y-15803031D02*
X5931515Y-15822079D01*
X5931515Y-15822079D02*
X5941039Y-15860174D01*
X5941039Y-15860174D02*
X5941039Y-15907793D01*
X5941039Y-15907793D02*
X5931515Y-15945888D01*
X5931515Y-15945888D02*
X5921991Y-15964936D01*
X5921991Y-15964936D02*
X5912467Y-15974460D01*
X5912467Y-15974460D02*
X5893420Y-15983984D01*
X5893420Y-15983984D02*
X5874372Y-15983984D01*
X5874372Y-15983984D02*
X5855324Y-15974460D01*
X5855324Y-15974460D02*
X5845801Y-15964936D01*
X5845801Y-15964936D02*
X5836277Y-15945888D01*
X5836277Y-15945888D02*
X5826753Y-15907793D01*
X5826753Y-15907793D02*
X5826753Y-15860174D01*
X5826753Y-15860174D02*
X5836277Y-15822079D01*
X5836277Y-15822079D02*
X5845801Y-15803031D01*
X5845801Y-15803031D02*
X5855324Y-15793508D01*
X5855324Y-15793508D02*
X5874372Y-15783984D01*
X6026753Y-15964936D02*
X6036277Y-15974460D01*
X6036277Y-15974460D02*
X6026753Y-15983984D01*
X6026753Y-15983984D02*
X6017229Y-15974460D01*
X6017229Y-15974460D02*
X6026753Y-15964936D01*
X6026753Y-15964936D02*
X6026753Y-15983984D01*
X6150562Y-15869698D02*
X6131515Y-15860174D01*
X6131515Y-15860174D02*
X6121991Y-15850650D01*
X6121991Y-15850650D02*
X6112467Y-15831603D01*
X6112467Y-15831603D02*
X6112467Y-15822079D01*
X6112467Y-15822079D02*
X6121991Y-15803031D01*
X6121991Y-15803031D02*
X6131515Y-15793508D01*
X6131515Y-15793508D02*
X6150562Y-15783984D01*
X6150562Y-15783984D02*
X6188658Y-15783984D01*
X6188658Y-15783984D02*
X6207705Y-15793508D01*
X6207705Y-15793508D02*
X6217229Y-15803031D01*
X6217229Y-15803031D02*
X6226753Y-15822079D01*
X6226753Y-15822079D02*
X6226753Y-15831603D01*
X6226753Y-15831603D02*
X6217229Y-15850650D01*
X6217229Y-15850650D02*
X6207705Y-15860174D01*
X6207705Y-15860174D02*
X6188658Y-15869698D01*
X6188658Y-15869698D02*
X6150562Y-15869698D01*
X6150562Y-15869698D02*
X6131515Y-15879222D01*
X6131515Y-15879222D02*
X6121991Y-15888746D01*
X6121991Y-15888746D02*
X6112467Y-15907793D01*
X6112467Y-15907793D02*
X6112467Y-15945888D01*
X6112467Y-15945888D02*
X6121991Y-15964936D01*
X6121991Y-15964936D02*
X6131515Y-15974460D01*
X6131515Y-15974460D02*
X6150562Y-15983984D01*
X6150562Y-15983984D02*
X6188658Y-15983984D01*
X6188658Y-15983984D02*
X6207705Y-15974460D01*
X6207705Y-15974460D02*
X6217229Y-15964936D01*
X6217229Y-15964936D02*
X6226753Y-15945888D01*
X6226753Y-15945888D02*
X6226753Y-15907793D01*
X6226753Y-15907793D02*
X6217229Y-15888746D01*
X6217229Y-15888746D02*
X6207705Y-15879222D01*
X6207705Y-15879222D02*
X6188658Y-15869698D01*
X6350562Y-15783984D02*
X6369610Y-15783984D01*
X6369610Y-15783984D02*
X6388658Y-15793508D01*
X6388658Y-15793508D02*
X6398182Y-15803031D01*
X6398182Y-15803031D02*
X6407705Y-15822079D01*
X6407705Y-15822079D02*
X6417229Y-15860174D01*
X6417229Y-15860174D02*
X6417229Y-15907793D01*
X6417229Y-15907793D02*
X6407705Y-15945888D01*
X6407705Y-15945888D02*
X6398182Y-15964936D01*
X6398182Y-15964936D02*
X6388658Y-15974460D01*
X6388658Y-15974460D02*
X6369610Y-15983984D01*
X6369610Y-15983984D02*
X6350562Y-15983984D01*
X6350562Y-15983984D02*
X6331515Y-15974460D01*
X6331515Y-15974460D02*
X6321991Y-15964936D01*
X6321991Y-15964936D02*
X6312467Y-15945888D01*
X6312467Y-15945888D02*
X6302943Y-15907793D01*
X6302943Y-15907793D02*
X6302943Y-15860174D01*
X6302943Y-15860174D02*
X6312467Y-15822079D01*
X6312467Y-15822079D02*
X6321991Y-15803031D01*
X6321991Y-15803031D02*
X6331515Y-15793508D01*
X6331515Y-15793508D02*
X6350562Y-15783984D01*
X6541039Y-15783984D02*
X6560086Y-15783984D01*
X6560086Y-15783984D02*
X6579134Y-15793508D01*
X6579134Y-15793508D02*
X6588658Y-15803031D01*
X6588658Y-15803031D02*
X6598182Y-15822079D01*
X6598182Y-15822079D02*
X6607705Y-15860174D01*
X6607705Y-15860174D02*
X6607705Y-15907793D01*
X6607705Y-15907793D02*
X6598182Y-15945888D01*
X6598182Y-15945888D02*
X6588658Y-15964936D01*
X6588658Y-15964936D02*
X6579134Y-15974460D01*
X6579134Y-15974460D02*
X6560086Y-15983984D01*
X6560086Y-15983984D02*
X6541039Y-15983984D01*
X6541039Y-15983984D02*
X6521991Y-15974460D01*
X6521991Y-15974460D02*
X6512467Y-15964936D01*
X6512467Y-15964936D02*
X6502943Y-15945888D01*
X6502943Y-15945888D02*
X6493420Y-15907793D01*
X6493420Y-15907793D02*
X6493420Y-15860174D01*
X6493420Y-15860174D02*
X6502943Y-15822079D01*
X6502943Y-15822079D02*
X6512467Y-15803031D01*
X6512467Y-15803031D02*
X6521991Y-15793508D01*
X6521991Y-15793508D02*
X6541039Y-15783984D01*
X6693420Y-15983984D02*
X6693420Y-15850650D01*
X6693420Y-15869698D02*
X6702943Y-15860174D01*
X6702943Y-15860174D02*
X6721991Y-15850650D01*
X6721991Y-15850650D02*
X6750563Y-15850650D01*
X6750563Y-15850650D02*
X6769610Y-15860174D01*
X6769610Y-15860174D02*
X6779134Y-15879222D01*
X6779134Y-15879222D02*
X6779134Y-15983984D01*
X6779134Y-15879222D02*
X6788658Y-15860174D01*
X6788658Y-15860174D02*
X6807705Y-15850650D01*
X6807705Y-15850650D02*
X6836277Y-15850650D01*
X6836277Y-15850650D02*
X6855324Y-15860174D01*
X6855324Y-15860174D02*
X6864848Y-15879222D01*
X6864848Y-15879222D02*
X6864848Y-15983984D01*
X6960086Y-15983984D02*
X6960086Y-15850650D01*
X6960086Y-15869698D02*
X6969610Y-15860174D01*
X6969610Y-15860174D02*
X6988658Y-15850650D01*
X6988658Y-15850650D02*
X7017229Y-15850650D01*
X7017229Y-15850650D02*
X7036277Y-15860174D01*
X7036277Y-15860174D02*
X7045801Y-15879222D01*
X7045801Y-15879222D02*
X7045801Y-15983984D01*
X7045801Y-15879222D02*
X7055324Y-15860174D01*
X7055324Y-15860174D02*
X7074372Y-15850650D01*
X7074372Y-15850650D02*
X7102943Y-15850650D01*
X7102943Y-15850650D02*
X7121991Y-15860174D01*
X7121991Y-15860174D02*
X7131515Y-15879222D01*
X7131515Y-15879222D02*
X7131515Y-15983984D01*
X7521991Y-15774460D02*
X7350563Y-16031603D01*
X7779134Y-15783984D02*
X7798182Y-15783984D01*
X7798182Y-15783984D02*
X7817229Y-15793508D01*
X7817229Y-15793508D02*
X7826753Y-15803031D01*
X7826753Y-15803031D02*
X7836277Y-15822079D01*
X7836277Y-15822079D02*
X7845801Y-15860174D01*
X7845801Y-15860174D02*
X7845801Y-15907793D01*
X7845801Y-15907793D02*
X7836277Y-15945888D01*
X7836277Y-15945888D02*
X7826753Y-15964936D01*
X7826753Y-15964936D02*
X7817229Y-15974460D01*
X7817229Y-15974460D02*
X7798182Y-15983984D01*
X7798182Y-15983984D02*
X7779134Y-15983984D01*
X7779134Y-15983984D02*
X7760086Y-15974460D01*
X7760086Y-15974460D02*
X7750563Y-15964936D01*
X7750563Y-15964936D02*
X7741039Y-15945888D01*
X7741039Y-15945888D02*
X7731515Y-15907793D01*
X7731515Y-15907793D02*
X7731515Y-15860174D01*
X7731515Y-15860174D02*
X7741039Y-15822079D01*
X7741039Y-15822079D02*
X7750563Y-15803031D01*
X7750563Y-15803031D02*
X7760086Y-15793508D01*
X7760086Y-15793508D02*
X7779134Y-15783984D01*
X7931515Y-15964936D02*
X7941039Y-15974460D01*
X7941039Y-15974460D02*
X7931515Y-15983984D01*
X7931515Y-15983984D02*
X7921991Y-15974460D01*
X7921991Y-15974460D02*
X7931515Y-15964936D01*
X7931515Y-15964936D02*
X7931515Y-15983984D01*
X8064848Y-15783984D02*
X8083896Y-15783984D01*
X8083896Y-15783984D02*
X8102944Y-15793508D01*
X8102944Y-15793508D02*
X8112467Y-15803031D01*
X8112467Y-15803031D02*
X8121991Y-15822079D01*
X8121991Y-15822079D02*
X8131515Y-15860174D01*
X8131515Y-15860174D02*
X8131515Y-15907793D01*
X8131515Y-15907793D02*
X8121991Y-15945888D01*
X8121991Y-15945888D02*
X8112467Y-15964936D01*
X8112467Y-15964936D02*
X8102944Y-15974460D01*
X8102944Y-15974460D02*
X8083896Y-15983984D01*
X8083896Y-15983984D02*
X8064848Y-15983984D01*
X8064848Y-15983984D02*
X8045801Y-15974460D01*
X8045801Y-15974460D02*
X8036277Y-15964936D01*
X8036277Y-15964936D02*
X8026753Y-15945888D01*
X8026753Y-15945888D02*
X8017229Y-15907793D01*
X8017229Y-15907793D02*
X8017229Y-15860174D01*
X8017229Y-15860174D02*
X8026753Y-15822079D01*
X8026753Y-15822079D02*
X8036277Y-15803031D01*
X8036277Y-15803031D02*
X8045801Y-15793508D01*
X8045801Y-15793508D02*
X8064848Y-15783984D01*
X8198182Y-15783984D02*
X8321991Y-15783984D01*
X8321991Y-15783984D02*
X8255325Y-15860174D01*
X8255325Y-15860174D02*
X8283896Y-15860174D01*
X8283896Y-15860174D02*
X8302944Y-15869698D01*
X8302944Y-15869698D02*
X8312467Y-15879222D01*
X8312467Y-15879222D02*
X8321991Y-15898269D01*
X8321991Y-15898269D02*
X8321991Y-15945888D01*
X8321991Y-15945888D02*
X8312467Y-15964936D01*
X8312467Y-15964936D02*
X8302944Y-15974460D01*
X8302944Y-15974460D02*
X8283896Y-15983984D01*
X8283896Y-15983984D02*
X8226753Y-15983984D01*
X8226753Y-15983984D02*
X8207706Y-15974460D01*
X8207706Y-15974460D02*
X8198182Y-15964936D01*
X8512468Y-15983984D02*
X8398182Y-15983984D01*
X8455325Y-15983984D02*
X8455325Y-15783984D01*
X8455325Y-15783984D02*
X8436277Y-15812555D01*
X8436277Y-15812555D02*
X8417229Y-15831603D01*
X8417229Y-15831603D02*
X8398182Y-15841127D01*
X8693420Y-15783984D02*
X8598182Y-15783984D01*
X8598182Y-15783984D02*
X8588658Y-15879222D01*
X8588658Y-15879222D02*
X8598182Y-15869698D01*
X8598182Y-15869698D02*
X8617229Y-15860174D01*
X8617229Y-15860174D02*
X8664849Y-15860174D01*
X8664849Y-15860174D02*
X8683896Y-15869698D01*
X8683896Y-15869698D02*
X8693420Y-15879222D01*
X8693420Y-15879222D02*
X8702944Y-15898269D01*
X8702944Y-15898269D02*
X8702944Y-15945888D01*
X8702944Y-15945888D02*
X8693420Y-15964936D01*
X8693420Y-15964936D02*
X8683896Y-15974460D01*
X8683896Y-15974460D02*
X8664849Y-15983984D01*
X8664849Y-15983984D02*
X8617229Y-15983984D01*
X8617229Y-15983984D02*
X8598182Y-15974460D01*
X8598182Y-15974460D02*
X8588658Y-15964936D01*
X8779134Y-15783984D02*
X8779134Y-15822079D01*
X8855325Y-15783984D02*
X8855325Y-15822079D01*
X9150563Y-16060174D02*
X9141039Y-16050650D01*
X9141039Y-16050650D02*
X9121991Y-16022079D01*
X9121991Y-16022079D02*
X9112468Y-16003031D01*
X9112468Y-16003031D02*
X9102944Y-15974460D01*
X9102944Y-15974460D02*
X9093420Y-15926841D01*
X9093420Y-15926841D02*
X9093420Y-15888746D01*
X9093420Y-15888746D02*
X9102944Y-15841127D01*
X9102944Y-15841127D02*
X9112468Y-15812555D01*
X9112468Y-15812555D02*
X9121991Y-15793508D01*
X9121991Y-15793508D02*
X9141039Y-15764936D01*
X9141039Y-15764936D02*
X9150563Y-15755412D01*
X9331515Y-15983984D02*
X9217230Y-15983984D01*
X9274372Y-15983984D02*
X9274372Y-15783984D01*
X9274372Y-15783984D02*
X9255325Y-15812555D01*
X9255325Y-15812555D02*
X9236277Y-15831603D01*
X9236277Y-15831603D02*
X9217230Y-15841127D01*
X9521991Y-15983984D02*
X9407706Y-15983984D01*
X9464849Y-15983984D02*
X9464849Y-15783984D01*
X9464849Y-15783984D02*
X9445801Y-15812555D01*
X9445801Y-15812555D02*
X9426753Y-15831603D01*
X9426753Y-15831603D02*
X9407706Y-15841127D01*
X9598182Y-15803031D02*
X9607706Y-15793508D01*
X9607706Y-15793508D02*
X9626753Y-15783984D01*
X9626753Y-15783984D02*
X9674372Y-15783984D01*
X9674372Y-15783984D02*
X9693420Y-15793508D01*
X9693420Y-15793508D02*
X9702944Y-15803031D01*
X9702944Y-15803031D02*
X9712468Y-15822079D01*
X9712468Y-15822079D02*
X9712468Y-15841127D01*
X9712468Y-15841127D02*
X9702944Y-15869698D01*
X9702944Y-15869698D02*
X9588658Y-15983984D01*
X9588658Y-15983984D02*
X9712468Y-15983984D01*
X9950563Y-15983984D02*
X9950563Y-15783984D01*
X10036277Y-15983984D02*
X10036277Y-15879222D01*
X10036277Y-15879222D02*
X10026753Y-15860174D01*
X10026753Y-15860174D02*
X10007706Y-15850650D01*
X10007706Y-15850650D02*
X9979134Y-15850650D01*
X9979134Y-15850650D02*
X9960087Y-15860174D01*
X9960087Y-15860174D02*
X9950563Y-15869698D01*
X10160087Y-15983984D02*
X10141039Y-15974460D01*
X10141039Y-15974460D02*
X10131515Y-15964936D01*
X10131515Y-15964936D02*
X10121992Y-15945888D01*
X10121992Y-15945888D02*
X10121992Y-15888746D01*
X10121992Y-15888746D02*
X10131515Y-15869698D01*
X10131515Y-15869698D02*
X10141039Y-15860174D01*
X10141039Y-15860174D02*
X10160087Y-15850650D01*
X10160087Y-15850650D02*
X10188658Y-15850650D01*
X10188658Y-15850650D02*
X10207706Y-15860174D01*
X10207706Y-15860174D02*
X10217230Y-15869698D01*
X10217230Y-15869698D02*
X10226753Y-15888746D01*
X10226753Y-15888746D02*
X10226753Y-15945888D01*
X10226753Y-15945888D02*
X10217230Y-15964936D01*
X10217230Y-15964936D02*
X10207706Y-15974460D01*
X10207706Y-15974460D02*
X10188658Y-15983984D01*
X10188658Y-15983984D02*
X10160087Y-15983984D01*
X10341039Y-15983984D02*
X10321992Y-15974460D01*
X10321992Y-15974460D02*
X10312468Y-15955412D01*
X10312468Y-15955412D02*
X10312468Y-15783984D01*
X10493420Y-15974460D02*
X10474373Y-15983984D01*
X10474373Y-15983984D02*
X10436277Y-15983984D01*
X10436277Y-15983984D02*
X10417230Y-15974460D01*
X10417230Y-15974460D02*
X10407706Y-15955412D01*
X10407706Y-15955412D02*
X10407706Y-15879222D01*
X10407706Y-15879222D02*
X10417230Y-15860174D01*
X10417230Y-15860174D02*
X10436277Y-15850650D01*
X10436277Y-15850650D02*
X10474373Y-15850650D01*
X10474373Y-15850650D02*
X10493420Y-15860174D01*
X10493420Y-15860174D02*
X10502944Y-15879222D01*
X10502944Y-15879222D02*
X10502944Y-15898269D01*
X10502944Y-15898269D02*
X10407706Y-15917317D01*
X10579134Y-15974460D02*
X10598182Y-15983984D01*
X10598182Y-15983984D02*
X10636277Y-15983984D01*
X10636277Y-15983984D02*
X10655325Y-15974460D01*
X10655325Y-15974460D02*
X10664849Y-15955412D01*
X10664849Y-15955412D02*
X10664849Y-15945888D01*
X10664849Y-15945888D02*
X10655325Y-15926841D01*
X10655325Y-15926841D02*
X10636277Y-15917317D01*
X10636277Y-15917317D02*
X10607706Y-15917317D01*
X10607706Y-15917317D02*
X10588658Y-15907793D01*
X10588658Y-15907793D02*
X10579134Y-15888746D01*
X10579134Y-15888746D02*
X10579134Y-15879222D01*
X10579134Y-15879222D02*
X10588658Y-15860174D01*
X10588658Y-15860174D02*
X10607706Y-15850650D01*
X10607706Y-15850650D02*
X10636277Y-15850650D01*
X10636277Y-15850650D02*
X10655325Y-15860174D01*
X10731515Y-16060174D02*
X10741039Y-16050650D01*
X10741039Y-16050650D02*
X10760087Y-16022079D01*
X10760087Y-16022079D02*
X10769611Y-16003031D01*
X10769611Y-16003031D02*
X10779134Y-15974460D01*
X10779134Y-15974460D02*
X10788658Y-15926841D01*
X10788658Y-15926841D02*
X10788658Y-15888746D01*
X10788658Y-15888746D02*
X10779134Y-15841127D01*
X10779134Y-15841127D02*
X10769611Y-15812555D01*
X10769611Y-15812555D02*
X10760087Y-15793508D01*
X10760087Y-15793508D02*
X10741039Y-15764936D01*
X10741039Y-15764936D02*
X10731515Y-15755412D01*
D12*
X5575500Y-16156500D02*
G75*
G02*
X5485500Y-16156500I-45000J0D01*
G01*
X5485500Y-16156500D02*
G75*
G02*
X5575500Y-16156500I45000J0D01*
G01*
D11*
X5874372Y-16047984D02*
X5893420Y-16047984D01*
X5893420Y-16047984D02*
X5912467Y-16057508D01*
X5912467Y-16057508D02*
X5921991Y-16067031D01*
X5921991Y-16067031D02*
X5931515Y-16086079D01*
X5931515Y-16086079D02*
X5941039Y-16124174D01*
X5941039Y-16124174D02*
X5941039Y-16171793D01*
X5941039Y-16171793D02*
X5931515Y-16209888D01*
X5931515Y-16209888D02*
X5921991Y-16228936D01*
X5921991Y-16228936D02*
X5912467Y-16238460D01*
X5912467Y-16238460D02*
X5893420Y-16247984D01*
X5893420Y-16247984D02*
X5874372Y-16247984D01*
X5874372Y-16247984D02*
X5855324Y-16238460D01*
X5855324Y-16238460D02*
X5845801Y-16228936D01*
X5845801Y-16228936D02*
X5836277Y-16209888D01*
X5836277Y-16209888D02*
X5826753Y-16171793D01*
X5826753Y-16171793D02*
X5826753Y-16124174D01*
X5826753Y-16124174D02*
X5836277Y-16086079D01*
X5836277Y-16086079D02*
X5845801Y-16067031D01*
X5845801Y-16067031D02*
X5855324Y-16057508D01*
X5855324Y-16057508D02*
X5874372Y-16047984D01*
X6026753Y-16228936D02*
X6036277Y-16238460D01*
X6036277Y-16238460D02*
X6026753Y-16247984D01*
X6026753Y-16247984D02*
X6017229Y-16238460D01*
X6017229Y-16238460D02*
X6026753Y-16228936D01*
X6026753Y-16228936D02*
X6026753Y-16247984D01*
X6131515Y-16247984D02*
X6169610Y-16247984D01*
X6169610Y-16247984D02*
X6188658Y-16238460D01*
X6188658Y-16238460D02*
X6198182Y-16228936D01*
X6198182Y-16228936D02*
X6217229Y-16200365D01*
X6217229Y-16200365D02*
X6226753Y-16162269D01*
X6226753Y-16162269D02*
X6226753Y-16086079D01*
X6226753Y-16086079D02*
X6217229Y-16067031D01*
X6217229Y-16067031D02*
X6207705Y-16057508D01*
X6207705Y-16057508D02*
X6188658Y-16047984D01*
X6188658Y-16047984D02*
X6150562Y-16047984D01*
X6150562Y-16047984D02*
X6131515Y-16057508D01*
X6131515Y-16057508D02*
X6121991Y-16067031D01*
X6121991Y-16067031D02*
X6112467Y-16086079D01*
X6112467Y-16086079D02*
X6112467Y-16133698D01*
X6112467Y-16133698D02*
X6121991Y-16152746D01*
X6121991Y-16152746D02*
X6131515Y-16162269D01*
X6131515Y-16162269D02*
X6150562Y-16171793D01*
X6150562Y-16171793D02*
X6188658Y-16171793D01*
X6188658Y-16171793D02*
X6207705Y-16162269D01*
X6207705Y-16162269D02*
X6217229Y-16152746D01*
X6217229Y-16152746D02*
X6226753Y-16133698D01*
X6350562Y-16047984D02*
X6369610Y-16047984D01*
X6369610Y-16047984D02*
X6388658Y-16057508D01*
X6388658Y-16057508D02*
X6398182Y-16067031D01*
X6398182Y-16067031D02*
X6407705Y-16086079D01*
X6407705Y-16086079D02*
X6417229Y-16124174D01*
X6417229Y-16124174D02*
X6417229Y-16171793D01*
X6417229Y-16171793D02*
X6407705Y-16209888D01*
X6407705Y-16209888D02*
X6398182Y-16228936D01*
X6398182Y-16228936D02*
X6388658Y-16238460D01*
X6388658Y-16238460D02*
X6369610Y-16247984D01*
X6369610Y-16247984D02*
X6350562Y-16247984D01*
X6350562Y-16247984D02*
X6331515Y-16238460D01*
X6331515Y-16238460D02*
X6321991Y-16228936D01*
X6321991Y-16228936D02*
X6312467Y-16209888D01*
X6312467Y-16209888D02*
X6302943Y-16171793D01*
X6302943Y-16171793D02*
X6302943Y-16124174D01*
X6302943Y-16124174D02*
X6312467Y-16086079D01*
X6312467Y-16086079D02*
X6321991Y-16067031D01*
X6321991Y-16067031D02*
X6331515Y-16057508D01*
X6331515Y-16057508D02*
X6350562Y-16047984D01*
X6541039Y-16047984D02*
X6560086Y-16047984D01*
X6560086Y-16047984D02*
X6579134Y-16057508D01*
X6579134Y-16057508D02*
X6588658Y-16067031D01*
X6588658Y-16067031D02*
X6598182Y-16086079D01*
X6598182Y-16086079D02*
X6607705Y-16124174D01*
X6607705Y-16124174D02*
X6607705Y-16171793D01*
X6607705Y-16171793D02*
X6598182Y-16209888D01*
X6598182Y-16209888D02*
X6588658Y-16228936D01*
X6588658Y-16228936D02*
X6579134Y-16238460D01*
X6579134Y-16238460D02*
X6560086Y-16247984D01*
X6560086Y-16247984D02*
X6541039Y-16247984D01*
X6541039Y-16247984D02*
X6521991Y-16238460D01*
X6521991Y-16238460D02*
X6512467Y-16228936D01*
X6512467Y-16228936D02*
X6502943Y-16209888D01*
X6502943Y-16209888D02*
X6493420Y-16171793D01*
X6493420Y-16171793D02*
X6493420Y-16124174D01*
X6493420Y-16124174D02*
X6502943Y-16086079D01*
X6502943Y-16086079D02*
X6512467Y-16067031D01*
X6512467Y-16067031D02*
X6521991Y-16057508D01*
X6521991Y-16057508D02*
X6541039Y-16047984D01*
X6693420Y-16247984D02*
X6693420Y-16114650D01*
X6693420Y-16133698D02*
X6702943Y-16124174D01*
X6702943Y-16124174D02*
X6721991Y-16114650D01*
X6721991Y-16114650D02*
X6750563Y-16114650D01*
X6750563Y-16114650D02*
X6769610Y-16124174D01*
X6769610Y-16124174D02*
X6779134Y-16143222D01*
X6779134Y-16143222D02*
X6779134Y-16247984D01*
X6779134Y-16143222D02*
X6788658Y-16124174D01*
X6788658Y-16124174D02*
X6807705Y-16114650D01*
X6807705Y-16114650D02*
X6836277Y-16114650D01*
X6836277Y-16114650D02*
X6855324Y-16124174D01*
X6855324Y-16124174D02*
X6864848Y-16143222D01*
X6864848Y-16143222D02*
X6864848Y-16247984D01*
X6960086Y-16247984D02*
X6960086Y-16114650D01*
X6960086Y-16133698D02*
X6969610Y-16124174D01*
X6969610Y-16124174D02*
X6988658Y-16114650D01*
X6988658Y-16114650D02*
X7017229Y-16114650D01*
X7017229Y-16114650D02*
X7036277Y-16124174D01*
X7036277Y-16124174D02*
X7045801Y-16143222D01*
X7045801Y-16143222D02*
X7045801Y-16247984D01*
X7045801Y-16143222D02*
X7055324Y-16124174D01*
X7055324Y-16124174D02*
X7074372Y-16114650D01*
X7074372Y-16114650D02*
X7102943Y-16114650D01*
X7102943Y-16114650D02*
X7121991Y-16124174D01*
X7121991Y-16124174D02*
X7131515Y-16143222D01*
X7131515Y-16143222D02*
X7131515Y-16247984D01*
X7521991Y-16038460D02*
X7350563Y-16295603D01*
X7779134Y-16047984D02*
X7798182Y-16047984D01*
X7798182Y-16047984D02*
X7817229Y-16057508D01*
X7817229Y-16057508D02*
X7826753Y-16067031D01*
X7826753Y-16067031D02*
X7836277Y-16086079D01*
X7836277Y-16086079D02*
X7845801Y-16124174D01*
X7845801Y-16124174D02*
X7845801Y-16171793D01*
X7845801Y-16171793D02*
X7836277Y-16209888D01*
X7836277Y-16209888D02*
X7826753Y-16228936D01*
X7826753Y-16228936D02*
X7817229Y-16238460D01*
X7817229Y-16238460D02*
X7798182Y-16247984D01*
X7798182Y-16247984D02*
X7779134Y-16247984D01*
X7779134Y-16247984D02*
X7760086Y-16238460D01*
X7760086Y-16238460D02*
X7750563Y-16228936D01*
X7750563Y-16228936D02*
X7741039Y-16209888D01*
X7741039Y-16209888D02*
X7731515Y-16171793D01*
X7731515Y-16171793D02*
X7731515Y-16124174D01*
X7731515Y-16124174D02*
X7741039Y-16086079D01*
X7741039Y-16086079D02*
X7750563Y-16067031D01*
X7750563Y-16067031D02*
X7760086Y-16057508D01*
X7760086Y-16057508D02*
X7779134Y-16047984D01*
X7931515Y-16228936D02*
X7941039Y-16238460D01*
X7941039Y-16238460D02*
X7931515Y-16247984D01*
X7931515Y-16247984D02*
X7921991Y-16238460D01*
X7921991Y-16238460D02*
X7931515Y-16228936D01*
X7931515Y-16228936D02*
X7931515Y-16247984D01*
X8064848Y-16047984D02*
X8083896Y-16047984D01*
X8083896Y-16047984D02*
X8102944Y-16057508D01*
X8102944Y-16057508D02*
X8112467Y-16067031D01*
X8112467Y-16067031D02*
X8121991Y-16086079D01*
X8121991Y-16086079D02*
X8131515Y-16124174D01*
X8131515Y-16124174D02*
X8131515Y-16171793D01*
X8131515Y-16171793D02*
X8121991Y-16209888D01*
X8121991Y-16209888D02*
X8112467Y-16228936D01*
X8112467Y-16228936D02*
X8102944Y-16238460D01*
X8102944Y-16238460D02*
X8083896Y-16247984D01*
X8083896Y-16247984D02*
X8064848Y-16247984D01*
X8064848Y-16247984D02*
X8045801Y-16238460D01*
X8045801Y-16238460D02*
X8036277Y-16228936D01*
X8036277Y-16228936D02*
X8026753Y-16209888D01*
X8026753Y-16209888D02*
X8017229Y-16171793D01*
X8017229Y-16171793D02*
X8017229Y-16124174D01*
X8017229Y-16124174D02*
X8026753Y-16086079D01*
X8026753Y-16086079D02*
X8036277Y-16067031D01*
X8036277Y-16067031D02*
X8045801Y-16057508D01*
X8045801Y-16057508D02*
X8064848Y-16047984D01*
X8198182Y-16047984D02*
X8321991Y-16047984D01*
X8321991Y-16047984D02*
X8255325Y-16124174D01*
X8255325Y-16124174D02*
X8283896Y-16124174D01*
X8283896Y-16124174D02*
X8302944Y-16133698D01*
X8302944Y-16133698D02*
X8312467Y-16143222D01*
X8312467Y-16143222D02*
X8321991Y-16162269D01*
X8321991Y-16162269D02*
X8321991Y-16209888D01*
X8321991Y-16209888D02*
X8312467Y-16228936D01*
X8312467Y-16228936D02*
X8302944Y-16238460D01*
X8302944Y-16238460D02*
X8283896Y-16247984D01*
X8283896Y-16247984D02*
X8226753Y-16247984D01*
X8226753Y-16247984D02*
X8207706Y-16238460D01*
X8207706Y-16238460D02*
X8198182Y-16228936D01*
X8502944Y-16047984D02*
X8407706Y-16047984D01*
X8407706Y-16047984D02*
X8398182Y-16143222D01*
X8398182Y-16143222D02*
X8407706Y-16133698D01*
X8407706Y-16133698D02*
X8426753Y-16124174D01*
X8426753Y-16124174D02*
X8474372Y-16124174D01*
X8474372Y-16124174D02*
X8493420Y-16133698D01*
X8493420Y-16133698D02*
X8502944Y-16143222D01*
X8502944Y-16143222D02*
X8512468Y-16162269D01*
X8512468Y-16162269D02*
X8512468Y-16209888D01*
X8512468Y-16209888D02*
X8502944Y-16228936D01*
X8502944Y-16228936D02*
X8493420Y-16238460D01*
X8493420Y-16238460D02*
X8474372Y-16247984D01*
X8474372Y-16247984D02*
X8426753Y-16247984D01*
X8426753Y-16247984D02*
X8407706Y-16238460D01*
X8407706Y-16238460D02*
X8398182Y-16228936D01*
X8683896Y-16114650D02*
X8683896Y-16247984D01*
X8636277Y-16038460D02*
X8588658Y-16181317D01*
X8588658Y-16181317D02*
X8712468Y-16181317D01*
X8779134Y-16047984D02*
X8779134Y-16086079D01*
X8855325Y-16047984D02*
X8855325Y-16086079D01*
X9150563Y-16324174D02*
X9141039Y-16314650D01*
X9141039Y-16314650D02*
X9121991Y-16286079D01*
X9121991Y-16286079D02*
X9112468Y-16267031D01*
X9112468Y-16267031D02*
X9102944Y-16238460D01*
X9102944Y-16238460D02*
X9093420Y-16190841D01*
X9093420Y-16190841D02*
X9093420Y-16152746D01*
X9093420Y-16152746D02*
X9102944Y-16105127D01*
X9102944Y-16105127D02*
X9112468Y-16076555D01*
X9112468Y-16076555D02*
X9121991Y-16057508D01*
X9121991Y-16057508D02*
X9141039Y-16028936D01*
X9141039Y-16028936D02*
X9150563Y-16019412D01*
X9331515Y-16247984D02*
X9217230Y-16247984D01*
X9274372Y-16247984D02*
X9274372Y-16047984D01*
X9274372Y-16047984D02*
X9255325Y-16076555D01*
X9255325Y-16076555D02*
X9236277Y-16095603D01*
X9236277Y-16095603D02*
X9217230Y-16105127D01*
X9502944Y-16114650D02*
X9502944Y-16247984D01*
X9455325Y-16038460D02*
X9407706Y-16181317D01*
X9407706Y-16181317D02*
X9531515Y-16181317D01*
X9760087Y-16247984D02*
X9760087Y-16047984D01*
X9845801Y-16247984D02*
X9845801Y-16143222D01*
X9845801Y-16143222D02*
X9836277Y-16124174D01*
X9836277Y-16124174D02*
X9817230Y-16114650D01*
X9817230Y-16114650D02*
X9788658Y-16114650D01*
X9788658Y-16114650D02*
X9769611Y-16124174D01*
X9769611Y-16124174D02*
X9760087Y-16133698D01*
X9969611Y-16247984D02*
X9950563Y-16238460D01*
X9950563Y-16238460D02*
X9941039Y-16228936D01*
X9941039Y-16228936D02*
X9931515Y-16209888D01*
X9931515Y-16209888D02*
X9931515Y-16152746D01*
X9931515Y-16152746D02*
X9941039Y-16133698D01*
X9941039Y-16133698D02*
X9950563Y-16124174D01*
X9950563Y-16124174D02*
X9969611Y-16114650D01*
X9969611Y-16114650D02*
X9998182Y-16114650D01*
X9998182Y-16114650D02*
X10017230Y-16124174D01*
X10017230Y-16124174D02*
X10026753Y-16133698D01*
X10026753Y-16133698D02*
X10036277Y-16152746D01*
X10036277Y-16152746D02*
X10036277Y-16209888D01*
X10036277Y-16209888D02*
X10026753Y-16228936D01*
X10026753Y-16228936D02*
X10017230Y-16238460D01*
X10017230Y-16238460D02*
X9998182Y-16247984D01*
X9998182Y-16247984D02*
X9969611Y-16247984D01*
X10150563Y-16247984D02*
X10131515Y-16238460D01*
X10131515Y-16238460D02*
X10121992Y-16219412D01*
X10121992Y-16219412D02*
X10121992Y-16047984D01*
X10302944Y-16238460D02*
X10283896Y-16247984D01*
X10283896Y-16247984D02*
X10245801Y-16247984D01*
X10245801Y-16247984D02*
X10226753Y-16238460D01*
X10226753Y-16238460D02*
X10217230Y-16219412D01*
X10217230Y-16219412D02*
X10217230Y-16143222D01*
X10217230Y-16143222D02*
X10226753Y-16124174D01*
X10226753Y-16124174D02*
X10245801Y-16114650D01*
X10245801Y-16114650D02*
X10283896Y-16114650D01*
X10283896Y-16114650D02*
X10302944Y-16124174D01*
X10302944Y-16124174D02*
X10312468Y-16143222D01*
X10312468Y-16143222D02*
X10312468Y-16162269D01*
X10312468Y-16162269D02*
X10217230Y-16181317D01*
X10388658Y-16238460D02*
X10407706Y-16247984D01*
X10407706Y-16247984D02*
X10445801Y-16247984D01*
X10445801Y-16247984D02*
X10464849Y-16238460D01*
X10464849Y-16238460D02*
X10474373Y-16219412D01*
X10474373Y-16219412D02*
X10474373Y-16209888D01*
X10474373Y-16209888D02*
X10464849Y-16190841D01*
X10464849Y-16190841D02*
X10445801Y-16181317D01*
X10445801Y-16181317D02*
X10417230Y-16181317D01*
X10417230Y-16181317D02*
X10398182Y-16171793D01*
X10398182Y-16171793D02*
X10388658Y-16152746D01*
X10388658Y-16152746D02*
X10388658Y-16143222D01*
X10388658Y-16143222D02*
X10398182Y-16124174D01*
X10398182Y-16124174D02*
X10417230Y-16114650D01*
X10417230Y-16114650D02*
X10445801Y-16114650D01*
X10445801Y-16114650D02*
X10464849Y-16124174D01*
X10541039Y-16324174D02*
X10550563Y-16314650D01*
X10550563Y-16314650D02*
X10569611Y-16286079D01*
X10569611Y-16286079D02*
X10579134Y-16267031D01*
X10579134Y-16267031D02*
X10588658Y-16238460D01*
X10588658Y-16238460D02*
X10598182Y-16190841D01*
X10598182Y-16190841D02*
X10598182Y-16152746D01*
X10598182Y-16152746D02*
X10588658Y-16105127D01*
X10588658Y-16105127D02*
X10579134Y-16076555D01*
X10579134Y-16076555D02*
X10569611Y-16057508D01*
X10569611Y-16057508D02*
X10550563Y-16028936D01*
X10550563Y-16028936D02*
X10541039Y-16019412D01*
D12*
X5525500Y-16370500D02*
X5525500Y-16470500D01*
X5475500Y-16420500D02*
X5575500Y-16420500D01*
D11*
X5941039Y-16511984D02*
X5826753Y-16511984D01*
X5883896Y-16511984D02*
X5883896Y-16311984D01*
X5883896Y-16311984D02*
X5864848Y-16340555D01*
X5864848Y-16340555D02*
X5845801Y-16359603D01*
X5845801Y-16359603D02*
X5826753Y-16369127D01*
X6026753Y-16492936D02*
X6036277Y-16502460D01*
X6036277Y-16502460D02*
X6026753Y-16511984D01*
X6026753Y-16511984D02*
X6017229Y-16502460D01*
X6017229Y-16502460D02*
X6026753Y-16492936D01*
X6026753Y-16492936D02*
X6026753Y-16511984D01*
X6160086Y-16311984D02*
X6179134Y-16311984D01*
X6179134Y-16311984D02*
X6198182Y-16321508D01*
X6198182Y-16321508D02*
X6207705Y-16331031D01*
X6207705Y-16331031D02*
X6217229Y-16350079D01*
X6217229Y-16350079D02*
X6226753Y-16388174D01*
X6226753Y-16388174D02*
X6226753Y-16435793D01*
X6226753Y-16435793D02*
X6217229Y-16473888D01*
X6217229Y-16473888D02*
X6207705Y-16492936D01*
X6207705Y-16492936D02*
X6198182Y-16502460D01*
X6198182Y-16502460D02*
X6179134Y-16511984D01*
X6179134Y-16511984D02*
X6160086Y-16511984D01*
X6160086Y-16511984D02*
X6141039Y-16502460D01*
X6141039Y-16502460D02*
X6131515Y-16492936D01*
X6131515Y-16492936D02*
X6121991Y-16473888D01*
X6121991Y-16473888D02*
X6112467Y-16435793D01*
X6112467Y-16435793D02*
X6112467Y-16388174D01*
X6112467Y-16388174D02*
X6121991Y-16350079D01*
X6121991Y-16350079D02*
X6131515Y-16331031D01*
X6131515Y-16331031D02*
X6141039Y-16321508D01*
X6141039Y-16321508D02*
X6160086Y-16311984D01*
X6350562Y-16311984D02*
X6369610Y-16311984D01*
X6369610Y-16311984D02*
X6388658Y-16321508D01*
X6388658Y-16321508D02*
X6398182Y-16331031D01*
X6398182Y-16331031D02*
X6407705Y-16350079D01*
X6407705Y-16350079D02*
X6417229Y-16388174D01*
X6417229Y-16388174D02*
X6417229Y-16435793D01*
X6417229Y-16435793D02*
X6407705Y-16473888D01*
X6407705Y-16473888D02*
X6398182Y-16492936D01*
X6398182Y-16492936D02*
X6388658Y-16502460D01*
X6388658Y-16502460D02*
X6369610Y-16511984D01*
X6369610Y-16511984D02*
X6350562Y-16511984D01*
X6350562Y-16511984D02*
X6331515Y-16502460D01*
X6331515Y-16502460D02*
X6321991Y-16492936D01*
X6321991Y-16492936D02*
X6312467Y-16473888D01*
X6312467Y-16473888D02*
X6302943Y-16435793D01*
X6302943Y-16435793D02*
X6302943Y-16388174D01*
X6302943Y-16388174D02*
X6312467Y-16350079D01*
X6312467Y-16350079D02*
X6321991Y-16331031D01*
X6321991Y-16331031D02*
X6331515Y-16321508D01*
X6331515Y-16321508D02*
X6350562Y-16311984D01*
X6541039Y-16311984D02*
X6560086Y-16311984D01*
X6560086Y-16311984D02*
X6579134Y-16321508D01*
X6579134Y-16321508D02*
X6588658Y-16331031D01*
X6588658Y-16331031D02*
X6598182Y-16350079D01*
X6598182Y-16350079D02*
X6607705Y-16388174D01*
X6607705Y-16388174D02*
X6607705Y-16435793D01*
X6607705Y-16435793D02*
X6598182Y-16473888D01*
X6598182Y-16473888D02*
X6588658Y-16492936D01*
X6588658Y-16492936D02*
X6579134Y-16502460D01*
X6579134Y-16502460D02*
X6560086Y-16511984D01*
X6560086Y-16511984D02*
X6541039Y-16511984D01*
X6541039Y-16511984D02*
X6521991Y-16502460D01*
X6521991Y-16502460D02*
X6512467Y-16492936D01*
X6512467Y-16492936D02*
X6502943Y-16473888D01*
X6502943Y-16473888D02*
X6493420Y-16435793D01*
X6493420Y-16435793D02*
X6493420Y-16388174D01*
X6493420Y-16388174D02*
X6502943Y-16350079D01*
X6502943Y-16350079D02*
X6512467Y-16331031D01*
X6512467Y-16331031D02*
X6521991Y-16321508D01*
X6521991Y-16321508D02*
X6541039Y-16311984D01*
X6693420Y-16511984D02*
X6693420Y-16378650D01*
X6693420Y-16397698D02*
X6702943Y-16388174D01*
X6702943Y-16388174D02*
X6721991Y-16378650D01*
X6721991Y-16378650D02*
X6750563Y-16378650D01*
X6750563Y-16378650D02*
X6769610Y-16388174D01*
X6769610Y-16388174D02*
X6779134Y-16407222D01*
X6779134Y-16407222D02*
X6779134Y-16511984D01*
X6779134Y-16407222D02*
X6788658Y-16388174D01*
X6788658Y-16388174D02*
X6807705Y-16378650D01*
X6807705Y-16378650D02*
X6836277Y-16378650D01*
X6836277Y-16378650D02*
X6855324Y-16388174D01*
X6855324Y-16388174D02*
X6864848Y-16407222D01*
X6864848Y-16407222D02*
X6864848Y-16511984D01*
X6960086Y-16511984D02*
X6960086Y-16378650D01*
X6960086Y-16397698D02*
X6969610Y-16388174D01*
X6969610Y-16388174D02*
X6988658Y-16378650D01*
X6988658Y-16378650D02*
X7017229Y-16378650D01*
X7017229Y-16378650D02*
X7036277Y-16388174D01*
X7036277Y-16388174D02*
X7045801Y-16407222D01*
X7045801Y-16407222D02*
X7045801Y-16511984D01*
X7045801Y-16407222D02*
X7055324Y-16388174D01*
X7055324Y-16388174D02*
X7074372Y-16378650D01*
X7074372Y-16378650D02*
X7102943Y-16378650D01*
X7102943Y-16378650D02*
X7121991Y-16388174D01*
X7121991Y-16388174D02*
X7131515Y-16407222D01*
X7131515Y-16407222D02*
X7131515Y-16511984D01*
X7521991Y-16302460D02*
X7350563Y-16559603D01*
X7779134Y-16311984D02*
X7798182Y-16311984D01*
X7798182Y-16311984D02*
X7817229Y-16321508D01*
X7817229Y-16321508D02*
X7826753Y-16331031D01*
X7826753Y-16331031D02*
X7836277Y-16350079D01*
X7836277Y-16350079D02*
X7845801Y-16388174D01*
X7845801Y-16388174D02*
X7845801Y-16435793D01*
X7845801Y-16435793D02*
X7836277Y-16473888D01*
X7836277Y-16473888D02*
X7826753Y-16492936D01*
X7826753Y-16492936D02*
X7817229Y-16502460D01*
X7817229Y-16502460D02*
X7798182Y-16511984D01*
X7798182Y-16511984D02*
X7779134Y-16511984D01*
X7779134Y-16511984D02*
X7760086Y-16502460D01*
X7760086Y-16502460D02*
X7750563Y-16492936D01*
X7750563Y-16492936D02*
X7741039Y-16473888D01*
X7741039Y-16473888D02*
X7731515Y-16435793D01*
X7731515Y-16435793D02*
X7731515Y-16388174D01*
X7731515Y-16388174D02*
X7741039Y-16350079D01*
X7741039Y-16350079D02*
X7750563Y-16331031D01*
X7750563Y-16331031D02*
X7760086Y-16321508D01*
X7760086Y-16321508D02*
X7779134Y-16311984D01*
X7931515Y-16492936D02*
X7941039Y-16502460D01*
X7941039Y-16502460D02*
X7931515Y-16511984D01*
X7931515Y-16511984D02*
X7921991Y-16502460D01*
X7921991Y-16502460D02*
X7931515Y-16492936D01*
X7931515Y-16492936D02*
X7931515Y-16511984D01*
X8064848Y-16311984D02*
X8083896Y-16311984D01*
X8083896Y-16311984D02*
X8102944Y-16321508D01*
X8102944Y-16321508D02*
X8112467Y-16331031D01*
X8112467Y-16331031D02*
X8121991Y-16350079D01*
X8121991Y-16350079D02*
X8131515Y-16388174D01*
X8131515Y-16388174D02*
X8131515Y-16435793D01*
X8131515Y-16435793D02*
X8121991Y-16473888D01*
X8121991Y-16473888D02*
X8112467Y-16492936D01*
X8112467Y-16492936D02*
X8102944Y-16502460D01*
X8102944Y-16502460D02*
X8083896Y-16511984D01*
X8083896Y-16511984D02*
X8064848Y-16511984D01*
X8064848Y-16511984D02*
X8045801Y-16502460D01*
X8045801Y-16502460D02*
X8036277Y-16492936D01*
X8036277Y-16492936D02*
X8026753Y-16473888D01*
X8026753Y-16473888D02*
X8017229Y-16435793D01*
X8017229Y-16435793D02*
X8017229Y-16388174D01*
X8017229Y-16388174D02*
X8026753Y-16350079D01*
X8026753Y-16350079D02*
X8036277Y-16331031D01*
X8036277Y-16331031D02*
X8045801Y-16321508D01*
X8045801Y-16321508D02*
X8064848Y-16311984D01*
X8198182Y-16311984D02*
X8321991Y-16311984D01*
X8321991Y-16311984D02*
X8255325Y-16388174D01*
X8255325Y-16388174D02*
X8283896Y-16388174D01*
X8283896Y-16388174D02*
X8302944Y-16397698D01*
X8302944Y-16397698D02*
X8312467Y-16407222D01*
X8312467Y-16407222D02*
X8321991Y-16426269D01*
X8321991Y-16426269D02*
X8321991Y-16473888D01*
X8321991Y-16473888D02*
X8312467Y-16492936D01*
X8312467Y-16492936D02*
X8302944Y-16502460D01*
X8302944Y-16502460D02*
X8283896Y-16511984D01*
X8283896Y-16511984D02*
X8226753Y-16511984D01*
X8226753Y-16511984D02*
X8207706Y-16502460D01*
X8207706Y-16502460D02*
X8198182Y-16492936D01*
X8417229Y-16511984D02*
X8455325Y-16511984D01*
X8455325Y-16511984D02*
X8474372Y-16502460D01*
X8474372Y-16502460D02*
X8483896Y-16492936D01*
X8483896Y-16492936D02*
X8502944Y-16464365D01*
X8502944Y-16464365D02*
X8512468Y-16426269D01*
X8512468Y-16426269D02*
X8512468Y-16350079D01*
X8512468Y-16350079D02*
X8502944Y-16331031D01*
X8502944Y-16331031D02*
X8493420Y-16321508D01*
X8493420Y-16321508D02*
X8474372Y-16311984D01*
X8474372Y-16311984D02*
X8436277Y-16311984D01*
X8436277Y-16311984D02*
X8417229Y-16321508D01*
X8417229Y-16321508D02*
X8407706Y-16331031D01*
X8407706Y-16331031D02*
X8398182Y-16350079D01*
X8398182Y-16350079D02*
X8398182Y-16397698D01*
X8398182Y-16397698D02*
X8407706Y-16416746D01*
X8407706Y-16416746D02*
X8417229Y-16426269D01*
X8417229Y-16426269D02*
X8436277Y-16435793D01*
X8436277Y-16435793D02*
X8474372Y-16435793D01*
X8474372Y-16435793D02*
X8493420Y-16426269D01*
X8493420Y-16426269D02*
X8502944Y-16416746D01*
X8502944Y-16416746D02*
X8512468Y-16397698D01*
X8683896Y-16378650D02*
X8683896Y-16511984D01*
X8636277Y-16302460D02*
X8588658Y-16445317D01*
X8588658Y-16445317D02*
X8712468Y-16445317D01*
X8779134Y-16311984D02*
X8779134Y-16350079D01*
X8855325Y-16311984D02*
X8855325Y-16350079D01*
X9150563Y-16588174D02*
X9141039Y-16578650D01*
X9141039Y-16578650D02*
X9121991Y-16550079D01*
X9121991Y-16550079D02*
X9112468Y-16531031D01*
X9112468Y-16531031D02*
X9102944Y-16502460D01*
X9102944Y-16502460D02*
X9093420Y-16454841D01*
X9093420Y-16454841D02*
X9093420Y-16416746D01*
X9093420Y-16416746D02*
X9102944Y-16369127D01*
X9102944Y-16369127D02*
X9112468Y-16340555D01*
X9112468Y-16340555D02*
X9121991Y-16321508D01*
X9121991Y-16321508D02*
X9141039Y-16292936D01*
X9141039Y-16292936D02*
X9150563Y-16283412D01*
X9217230Y-16331031D02*
X9226753Y-16321508D01*
X9226753Y-16321508D02*
X9245801Y-16311984D01*
X9245801Y-16311984D02*
X9293420Y-16311984D01*
X9293420Y-16311984D02*
X9312468Y-16321508D01*
X9312468Y-16321508D02*
X9321991Y-16331031D01*
X9321991Y-16331031D02*
X9331515Y-16350079D01*
X9331515Y-16350079D02*
X9331515Y-16369127D01*
X9331515Y-16369127D02*
X9321991Y-16397698D01*
X9321991Y-16397698D02*
X9207706Y-16511984D01*
X9207706Y-16511984D02*
X9331515Y-16511984D01*
X9398182Y-16311984D02*
X9521991Y-16311984D01*
X9521991Y-16311984D02*
X9455325Y-16388174D01*
X9455325Y-16388174D02*
X9483896Y-16388174D01*
X9483896Y-16388174D02*
X9502944Y-16397698D01*
X9502944Y-16397698D02*
X9512468Y-16407222D01*
X9512468Y-16407222D02*
X9521991Y-16426269D01*
X9521991Y-16426269D02*
X9521991Y-16473888D01*
X9521991Y-16473888D02*
X9512468Y-16492936D01*
X9512468Y-16492936D02*
X9502944Y-16502460D01*
X9502944Y-16502460D02*
X9483896Y-16511984D01*
X9483896Y-16511984D02*
X9426753Y-16511984D01*
X9426753Y-16511984D02*
X9407706Y-16502460D01*
X9407706Y-16502460D02*
X9398182Y-16492936D01*
X9760087Y-16511984D02*
X9760087Y-16311984D01*
X9845801Y-16511984D02*
X9845801Y-16407222D01*
X9845801Y-16407222D02*
X9836277Y-16388174D01*
X9836277Y-16388174D02*
X9817230Y-16378650D01*
X9817230Y-16378650D02*
X9788658Y-16378650D01*
X9788658Y-16378650D02*
X9769611Y-16388174D01*
X9769611Y-16388174D02*
X9760087Y-16397698D01*
X9969611Y-16511984D02*
X9950563Y-16502460D01*
X9950563Y-16502460D02*
X9941039Y-16492936D01*
X9941039Y-16492936D02*
X9931515Y-16473888D01*
X9931515Y-16473888D02*
X9931515Y-16416746D01*
X9931515Y-16416746D02*
X9941039Y-16397698D01*
X9941039Y-16397698D02*
X9950563Y-16388174D01*
X9950563Y-16388174D02*
X9969611Y-16378650D01*
X9969611Y-16378650D02*
X9998182Y-16378650D01*
X9998182Y-16378650D02*
X10017230Y-16388174D01*
X10017230Y-16388174D02*
X10026753Y-16397698D01*
X10026753Y-16397698D02*
X10036277Y-16416746D01*
X10036277Y-16416746D02*
X10036277Y-16473888D01*
X10036277Y-16473888D02*
X10026753Y-16492936D01*
X10026753Y-16492936D02*
X10017230Y-16502460D01*
X10017230Y-16502460D02*
X9998182Y-16511984D01*
X9998182Y-16511984D02*
X9969611Y-16511984D01*
X10150563Y-16511984D02*
X10131515Y-16502460D01*
X10131515Y-16502460D02*
X10121992Y-16483412D01*
X10121992Y-16483412D02*
X10121992Y-16311984D01*
X10302944Y-16502460D02*
X10283896Y-16511984D01*
X10283896Y-16511984D02*
X10245801Y-16511984D01*
X10245801Y-16511984D02*
X10226753Y-16502460D01*
X10226753Y-16502460D02*
X10217230Y-16483412D01*
X10217230Y-16483412D02*
X10217230Y-16407222D01*
X10217230Y-16407222D02*
X10226753Y-16388174D01*
X10226753Y-16388174D02*
X10245801Y-16378650D01*
X10245801Y-16378650D02*
X10283896Y-16378650D01*
X10283896Y-16378650D02*
X10302944Y-16388174D01*
X10302944Y-16388174D02*
X10312468Y-16407222D01*
X10312468Y-16407222D02*
X10312468Y-16426269D01*
X10312468Y-16426269D02*
X10217230Y-16445317D01*
X10388658Y-16502460D02*
X10407706Y-16511984D01*
X10407706Y-16511984D02*
X10445801Y-16511984D01*
X10445801Y-16511984D02*
X10464849Y-16502460D01*
X10464849Y-16502460D02*
X10474373Y-16483412D01*
X10474373Y-16483412D02*
X10474373Y-16473888D01*
X10474373Y-16473888D02*
X10464849Y-16454841D01*
X10464849Y-16454841D02*
X10445801Y-16445317D01*
X10445801Y-16445317D02*
X10417230Y-16445317D01*
X10417230Y-16445317D02*
X10398182Y-16435793D01*
X10398182Y-16435793D02*
X10388658Y-16416746D01*
X10388658Y-16416746D02*
X10388658Y-16407222D01*
X10388658Y-16407222D02*
X10398182Y-16388174D01*
X10398182Y-16388174D02*
X10417230Y-16378650D01*
X10417230Y-16378650D02*
X10445801Y-16378650D01*
X10445801Y-16378650D02*
X10464849Y-16388174D01*
X10541039Y-16588174D02*
X10550563Y-16578650D01*
X10550563Y-16578650D02*
X10569611Y-16550079D01*
X10569611Y-16550079D02*
X10579134Y-16531031D01*
X10579134Y-16531031D02*
X10588658Y-16502460D01*
X10588658Y-16502460D02*
X10598182Y-16454841D01*
X10598182Y-16454841D02*
X10598182Y-16416746D01*
X10598182Y-16416746D02*
X10588658Y-16369127D01*
X10588658Y-16369127D02*
X10579134Y-16340555D01*
X10579134Y-16340555D02*
X10569611Y-16321508D01*
X10569611Y-16321508D02*
X10550563Y-16292936D01*
X10550563Y-16292936D02*
X10541039Y-16283412D01*
D12*
X5560856Y-16719856D02*
X5560856Y-16649144D01*
X5490144Y-16649144D01*
X5490144Y-16719856D01*
X5560856Y-16719856D01*
D11*
X5941039Y-16775984D02*
X5826753Y-16775984D01*
X5883896Y-16775984D02*
X5883896Y-16575984D01*
X5883896Y-16575984D02*
X5864848Y-16604555D01*
X5864848Y-16604555D02*
X5845801Y-16623603D01*
X5845801Y-16623603D02*
X5826753Y-16633127D01*
X6026753Y-16756936D02*
X6036277Y-16766460D01*
X6036277Y-16766460D02*
X6026753Y-16775984D01*
X6026753Y-16775984D02*
X6017229Y-16766460D01*
X6017229Y-16766460D02*
X6026753Y-16756936D01*
X6026753Y-16756936D02*
X6026753Y-16775984D01*
X6160086Y-16575984D02*
X6179134Y-16575984D01*
X6179134Y-16575984D02*
X6198182Y-16585508D01*
X6198182Y-16585508D02*
X6207705Y-16595031D01*
X6207705Y-16595031D02*
X6217229Y-16614079D01*
X6217229Y-16614079D02*
X6226753Y-16652174D01*
X6226753Y-16652174D02*
X6226753Y-16699793D01*
X6226753Y-16699793D02*
X6217229Y-16737888D01*
X6217229Y-16737888D02*
X6207705Y-16756936D01*
X6207705Y-16756936D02*
X6198182Y-16766460D01*
X6198182Y-16766460D02*
X6179134Y-16775984D01*
X6179134Y-16775984D02*
X6160086Y-16775984D01*
X6160086Y-16775984D02*
X6141039Y-16766460D01*
X6141039Y-16766460D02*
X6131515Y-16756936D01*
X6131515Y-16756936D02*
X6121991Y-16737888D01*
X6121991Y-16737888D02*
X6112467Y-16699793D01*
X6112467Y-16699793D02*
X6112467Y-16652174D01*
X6112467Y-16652174D02*
X6121991Y-16614079D01*
X6121991Y-16614079D02*
X6131515Y-16595031D01*
X6131515Y-16595031D02*
X6141039Y-16585508D01*
X6141039Y-16585508D02*
X6160086Y-16575984D01*
X6350562Y-16575984D02*
X6369610Y-16575984D01*
X6369610Y-16575984D02*
X6388658Y-16585508D01*
X6388658Y-16585508D02*
X6398182Y-16595031D01*
X6398182Y-16595031D02*
X6407705Y-16614079D01*
X6407705Y-16614079D02*
X6417229Y-16652174D01*
X6417229Y-16652174D02*
X6417229Y-16699793D01*
X6417229Y-16699793D02*
X6407705Y-16737888D01*
X6407705Y-16737888D02*
X6398182Y-16756936D01*
X6398182Y-16756936D02*
X6388658Y-16766460D01*
X6388658Y-16766460D02*
X6369610Y-16775984D01*
X6369610Y-16775984D02*
X6350562Y-16775984D01*
X6350562Y-16775984D02*
X6331515Y-16766460D01*
X6331515Y-16766460D02*
X6321991Y-16756936D01*
X6321991Y-16756936D02*
X6312467Y-16737888D01*
X6312467Y-16737888D02*
X6302943Y-16699793D01*
X6302943Y-16699793D02*
X6302943Y-16652174D01*
X6302943Y-16652174D02*
X6312467Y-16614079D01*
X6312467Y-16614079D02*
X6321991Y-16595031D01*
X6321991Y-16595031D02*
X6331515Y-16585508D01*
X6331515Y-16585508D02*
X6350562Y-16575984D01*
X6541039Y-16575984D02*
X6560086Y-16575984D01*
X6560086Y-16575984D02*
X6579134Y-16585508D01*
X6579134Y-16585508D02*
X6588658Y-16595031D01*
X6588658Y-16595031D02*
X6598182Y-16614079D01*
X6598182Y-16614079D02*
X6607705Y-16652174D01*
X6607705Y-16652174D02*
X6607705Y-16699793D01*
X6607705Y-16699793D02*
X6598182Y-16737888D01*
X6598182Y-16737888D02*
X6588658Y-16756936D01*
X6588658Y-16756936D02*
X6579134Y-16766460D01*
X6579134Y-16766460D02*
X6560086Y-16775984D01*
X6560086Y-16775984D02*
X6541039Y-16775984D01*
X6541039Y-16775984D02*
X6521991Y-16766460D01*
X6521991Y-16766460D02*
X6512467Y-16756936D01*
X6512467Y-16756936D02*
X6502943Y-16737888D01*
X6502943Y-16737888D02*
X6493420Y-16699793D01*
X6493420Y-16699793D02*
X6493420Y-16652174D01*
X6493420Y-16652174D02*
X6502943Y-16614079D01*
X6502943Y-16614079D02*
X6512467Y-16595031D01*
X6512467Y-16595031D02*
X6521991Y-16585508D01*
X6521991Y-16585508D02*
X6541039Y-16575984D01*
X6693420Y-16775984D02*
X6693420Y-16642650D01*
X6693420Y-16661698D02*
X6702943Y-16652174D01*
X6702943Y-16652174D02*
X6721991Y-16642650D01*
X6721991Y-16642650D02*
X6750563Y-16642650D01*
X6750563Y-16642650D02*
X6769610Y-16652174D01*
X6769610Y-16652174D02*
X6779134Y-16671222D01*
X6779134Y-16671222D02*
X6779134Y-16775984D01*
X6779134Y-16671222D02*
X6788658Y-16652174D01*
X6788658Y-16652174D02*
X6807705Y-16642650D01*
X6807705Y-16642650D02*
X6836277Y-16642650D01*
X6836277Y-16642650D02*
X6855324Y-16652174D01*
X6855324Y-16652174D02*
X6864848Y-16671222D01*
X6864848Y-16671222D02*
X6864848Y-16775984D01*
X6960086Y-16775984D02*
X6960086Y-16642650D01*
X6960086Y-16661698D02*
X6969610Y-16652174D01*
X6969610Y-16652174D02*
X6988658Y-16642650D01*
X6988658Y-16642650D02*
X7017229Y-16642650D01*
X7017229Y-16642650D02*
X7036277Y-16652174D01*
X7036277Y-16652174D02*
X7045801Y-16671222D01*
X7045801Y-16671222D02*
X7045801Y-16775984D01*
X7045801Y-16671222D02*
X7055324Y-16652174D01*
X7055324Y-16652174D02*
X7074372Y-16642650D01*
X7074372Y-16642650D02*
X7102943Y-16642650D01*
X7102943Y-16642650D02*
X7121991Y-16652174D01*
X7121991Y-16652174D02*
X7131515Y-16671222D01*
X7131515Y-16671222D02*
X7131515Y-16775984D01*
X7521991Y-16566460D02*
X7350563Y-16823603D01*
X7779134Y-16575984D02*
X7798182Y-16575984D01*
X7798182Y-16575984D02*
X7817229Y-16585508D01*
X7817229Y-16585508D02*
X7826753Y-16595031D01*
X7826753Y-16595031D02*
X7836277Y-16614079D01*
X7836277Y-16614079D02*
X7845801Y-16652174D01*
X7845801Y-16652174D02*
X7845801Y-16699793D01*
X7845801Y-16699793D02*
X7836277Y-16737888D01*
X7836277Y-16737888D02*
X7826753Y-16756936D01*
X7826753Y-16756936D02*
X7817229Y-16766460D01*
X7817229Y-16766460D02*
X7798182Y-16775984D01*
X7798182Y-16775984D02*
X7779134Y-16775984D01*
X7779134Y-16775984D02*
X7760086Y-16766460D01*
X7760086Y-16766460D02*
X7750563Y-16756936D01*
X7750563Y-16756936D02*
X7741039Y-16737888D01*
X7741039Y-16737888D02*
X7731515Y-16699793D01*
X7731515Y-16699793D02*
X7731515Y-16652174D01*
X7731515Y-16652174D02*
X7741039Y-16614079D01*
X7741039Y-16614079D02*
X7750563Y-16595031D01*
X7750563Y-16595031D02*
X7760086Y-16585508D01*
X7760086Y-16585508D02*
X7779134Y-16575984D01*
X7931515Y-16756936D02*
X7941039Y-16766460D01*
X7941039Y-16766460D02*
X7931515Y-16775984D01*
X7931515Y-16775984D02*
X7921991Y-16766460D01*
X7921991Y-16766460D02*
X7931515Y-16756936D01*
X7931515Y-16756936D02*
X7931515Y-16775984D01*
X8064848Y-16575984D02*
X8083896Y-16575984D01*
X8083896Y-16575984D02*
X8102944Y-16585508D01*
X8102944Y-16585508D02*
X8112467Y-16595031D01*
X8112467Y-16595031D02*
X8121991Y-16614079D01*
X8121991Y-16614079D02*
X8131515Y-16652174D01*
X8131515Y-16652174D02*
X8131515Y-16699793D01*
X8131515Y-16699793D02*
X8121991Y-16737888D01*
X8121991Y-16737888D02*
X8112467Y-16756936D01*
X8112467Y-16756936D02*
X8102944Y-16766460D01*
X8102944Y-16766460D02*
X8083896Y-16775984D01*
X8083896Y-16775984D02*
X8064848Y-16775984D01*
X8064848Y-16775984D02*
X8045801Y-16766460D01*
X8045801Y-16766460D02*
X8036277Y-16756936D01*
X8036277Y-16756936D02*
X8026753Y-16737888D01*
X8026753Y-16737888D02*
X8017229Y-16699793D01*
X8017229Y-16699793D02*
X8017229Y-16652174D01*
X8017229Y-16652174D02*
X8026753Y-16614079D01*
X8026753Y-16614079D02*
X8036277Y-16595031D01*
X8036277Y-16595031D02*
X8045801Y-16585508D01*
X8045801Y-16585508D02*
X8064848Y-16575984D01*
X8198182Y-16575984D02*
X8321991Y-16575984D01*
X8321991Y-16575984D02*
X8255325Y-16652174D01*
X8255325Y-16652174D02*
X8283896Y-16652174D01*
X8283896Y-16652174D02*
X8302944Y-16661698D01*
X8302944Y-16661698D02*
X8312467Y-16671222D01*
X8312467Y-16671222D02*
X8321991Y-16690269D01*
X8321991Y-16690269D02*
X8321991Y-16737888D01*
X8321991Y-16737888D02*
X8312467Y-16756936D01*
X8312467Y-16756936D02*
X8302944Y-16766460D01*
X8302944Y-16766460D02*
X8283896Y-16775984D01*
X8283896Y-16775984D02*
X8226753Y-16775984D01*
X8226753Y-16775984D02*
X8207706Y-16766460D01*
X8207706Y-16766460D02*
X8198182Y-16756936D01*
X8417229Y-16775984D02*
X8455325Y-16775984D01*
X8455325Y-16775984D02*
X8474372Y-16766460D01*
X8474372Y-16766460D02*
X8483896Y-16756936D01*
X8483896Y-16756936D02*
X8502944Y-16728365D01*
X8502944Y-16728365D02*
X8512468Y-16690269D01*
X8512468Y-16690269D02*
X8512468Y-16614079D01*
X8512468Y-16614079D02*
X8502944Y-16595031D01*
X8502944Y-16595031D02*
X8493420Y-16585508D01*
X8493420Y-16585508D02*
X8474372Y-16575984D01*
X8474372Y-16575984D02*
X8436277Y-16575984D01*
X8436277Y-16575984D02*
X8417229Y-16585508D01*
X8417229Y-16585508D02*
X8407706Y-16595031D01*
X8407706Y-16595031D02*
X8398182Y-16614079D01*
X8398182Y-16614079D02*
X8398182Y-16661698D01*
X8398182Y-16661698D02*
X8407706Y-16680746D01*
X8407706Y-16680746D02*
X8417229Y-16690269D01*
X8417229Y-16690269D02*
X8436277Y-16699793D01*
X8436277Y-16699793D02*
X8474372Y-16699793D01*
X8474372Y-16699793D02*
X8493420Y-16690269D01*
X8493420Y-16690269D02*
X8502944Y-16680746D01*
X8502944Y-16680746D02*
X8512468Y-16661698D01*
X8683896Y-16642650D02*
X8683896Y-16775984D01*
X8636277Y-16566460D02*
X8588658Y-16709317D01*
X8588658Y-16709317D02*
X8712468Y-16709317D01*
X8779134Y-16575984D02*
X8779134Y-16614079D01*
X8855325Y-16575984D02*
X8855325Y-16614079D01*
X9150563Y-16852174D02*
X9141039Y-16842650D01*
X9141039Y-16842650D02*
X9121991Y-16814079D01*
X9121991Y-16814079D02*
X9112468Y-16795031D01*
X9112468Y-16795031D02*
X9102944Y-16766460D01*
X9102944Y-16766460D02*
X9093420Y-16718841D01*
X9093420Y-16718841D02*
X9093420Y-16680746D01*
X9093420Y-16680746D02*
X9102944Y-16633127D01*
X9102944Y-16633127D02*
X9112468Y-16604555D01*
X9112468Y-16604555D02*
X9121991Y-16585508D01*
X9121991Y-16585508D02*
X9141039Y-16556936D01*
X9141039Y-16556936D02*
X9150563Y-16547412D01*
X9207706Y-16575984D02*
X9341039Y-16575984D01*
X9341039Y-16575984D02*
X9255325Y-16775984D01*
X9521991Y-16775984D02*
X9407706Y-16775984D01*
X9464849Y-16775984D02*
X9464849Y-16575984D01*
X9464849Y-16575984D02*
X9445801Y-16604555D01*
X9445801Y-16604555D02*
X9426753Y-16623603D01*
X9426753Y-16623603D02*
X9407706Y-16633127D01*
X9760087Y-16775984D02*
X9760087Y-16575984D01*
X9845801Y-16775984D02*
X9845801Y-16671222D01*
X9845801Y-16671222D02*
X9836277Y-16652174D01*
X9836277Y-16652174D02*
X9817230Y-16642650D01*
X9817230Y-16642650D02*
X9788658Y-16642650D01*
X9788658Y-16642650D02*
X9769611Y-16652174D01*
X9769611Y-16652174D02*
X9760087Y-16661698D01*
X9969611Y-16775984D02*
X9950563Y-16766460D01*
X9950563Y-16766460D02*
X9941039Y-16756936D01*
X9941039Y-16756936D02*
X9931515Y-16737888D01*
X9931515Y-16737888D02*
X9931515Y-16680746D01*
X9931515Y-16680746D02*
X9941039Y-16661698D01*
X9941039Y-16661698D02*
X9950563Y-16652174D01*
X9950563Y-16652174D02*
X9969611Y-16642650D01*
X9969611Y-16642650D02*
X9998182Y-16642650D01*
X9998182Y-16642650D02*
X10017230Y-16652174D01*
X10017230Y-16652174D02*
X10026753Y-16661698D01*
X10026753Y-16661698D02*
X10036277Y-16680746D01*
X10036277Y-16680746D02*
X10036277Y-16737888D01*
X10036277Y-16737888D02*
X10026753Y-16756936D01*
X10026753Y-16756936D02*
X10017230Y-16766460D01*
X10017230Y-16766460D02*
X9998182Y-16775984D01*
X9998182Y-16775984D02*
X9969611Y-16775984D01*
X10150563Y-16775984D02*
X10131515Y-16766460D01*
X10131515Y-16766460D02*
X10121992Y-16747412D01*
X10121992Y-16747412D02*
X10121992Y-16575984D01*
X10302944Y-16766460D02*
X10283896Y-16775984D01*
X10283896Y-16775984D02*
X10245801Y-16775984D01*
X10245801Y-16775984D02*
X10226753Y-16766460D01*
X10226753Y-16766460D02*
X10217230Y-16747412D01*
X10217230Y-16747412D02*
X10217230Y-16671222D01*
X10217230Y-16671222D02*
X10226753Y-16652174D01*
X10226753Y-16652174D02*
X10245801Y-16642650D01*
X10245801Y-16642650D02*
X10283896Y-16642650D01*
X10283896Y-16642650D02*
X10302944Y-16652174D01*
X10302944Y-16652174D02*
X10312468Y-16671222D01*
X10312468Y-16671222D02*
X10312468Y-16690269D01*
X10312468Y-16690269D02*
X10217230Y-16709317D01*
X10388658Y-16766460D02*
X10407706Y-16775984D01*
X10407706Y-16775984D02*
X10445801Y-16775984D01*
X10445801Y-16775984D02*
X10464849Y-16766460D01*
X10464849Y-16766460D02*
X10474373Y-16747412D01*
X10474373Y-16747412D02*
X10474373Y-16737888D01*
X10474373Y-16737888D02*
X10464849Y-16718841D01*
X10464849Y-16718841D02*
X10445801Y-16709317D01*
X10445801Y-16709317D02*
X10417230Y-16709317D01*
X10417230Y-16709317D02*
X10398182Y-16699793D01*
X10398182Y-16699793D02*
X10388658Y-16680746D01*
X10388658Y-16680746D02*
X10388658Y-16671222D01*
X10388658Y-16671222D02*
X10398182Y-16652174D01*
X10398182Y-16652174D02*
X10417230Y-16642650D01*
X10417230Y-16642650D02*
X10445801Y-16642650D01*
X10445801Y-16642650D02*
X10464849Y-16652174D01*
X10541039Y-16852174D02*
X10550563Y-16842650D01*
X10550563Y-16842650D02*
X10569611Y-16814079D01*
X10569611Y-16814079D02*
X10579134Y-16795031D01*
X10579134Y-16795031D02*
X10588658Y-16766460D01*
X10588658Y-16766460D02*
X10598182Y-16718841D01*
X10598182Y-16718841D02*
X10598182Y-16680746D01*
X10598182Y-16680746D02*
X10588658Y-16633127D01*
X10588658Y-16633127D02*
X10579134Y-16604555D01*
X10579134Y-16604555D02*
X10569611Y-16585508D01*
X10569611Y-16585508D02*
X10550563Y-16556936D01*
X10550563Y-16556936D02*
X10541039Y-16547412D01*
D13*
X5520500Y-17003500D02*
X5575500Y-16948500D01*
X5520500Y-16893500D01*
X5465500Y-16948500D01*
X5520500Y-17003500D01*
D11*
X5941039Y-17039984D02*
X5826753Y-17039984D01*
X5883896Y-17039984D02*
X5883896Y-16839984D01*
X5883896Y-16839984D02*
X5864848Y-16868555D01*
X5864848Y-16868555D02*
X5845801Y-16887603D01*
X5845801Y-16887603D02*
X5826753Y-16897127D01*
X6026753Y-17020936D02*
X6036277Y-17030460D01*
X6036277Y-17030460D02*
X6026753Y-17039984D01*
X6026753Y-17039984D02*
X6017229Y-17030460D01*
X6017229Y-17030460D02*
X6026753Y-17020936D01*
X6026753Y-17020936D02*
X6026753Y-17039984D01*
X6226753Y-17039984D02*
X6112467Y-17039984D01*
X6169610Y-17039984D02*
X6169610Y-16839984D01*
X6169610Y-16839984D02*
X6150562Y-16868555D01*
X6150562Y-16868555D02*
X6131515Y-16887603D01*
X6131515Y-16887603D02*
X6112467Y-16897127D01*
X6350562Y-16839984D02*
X6369610Y-16839984D01*
X6369610Y-16839984D02*
X6388658Y-16849508D01*
X6388658Y-16849508D02*
X6398182Y-16859031D01*
X6398182Y-16859031D02*
X6407705Y-16878079D01*
X6407705Y-16878079D02*
X6417229Y-16916174D01*
X6417229Y-16916174D02*
X6417229Y-16963793D01*
X6417229Y-16963793D02*
X6407705Y-17001889D01*
X6407705Y-17001889D02*
X6398182Y-17020936D01*
X6398182Y-17020936D02*
X6388658Y-17030460D01*
X6388658Y-17030460D02*
X6369610Y-17039984D01*
X6369610Y-17039984D02*
X6350562Y-17039984D01*
X6350562Y-17039984D02*
X6331515Y-17030460D01*
X6331515Y-17030460D02*
X6321991Y-17020936D01*
X6321991Y-17020936D02*
X6312467Y-17001889D01*
X6312467Y-17001889D02*
X6302943Y-16963793D01*
X6302943Y-16963793D02*
X6302943Y-16916174D01*
X6302943Y-16916174D02*
X6312467Y-16878079D01*
X6312467Y-16878079D02*
X6321991Y-16859031D01*
X6321991Y-16859031D02*
X6331515Y-16849508D01*
X6331515Y-16849508D02*
X6350562Y-16839984D01*
X6541039Y-16839984D02*
X6560086Y-16839984D01*
X6560086Y-16839984D02*
X6579134Y-16849508D01*
X6579134Y-16849508D02*
X6588658Y-16859031D01*
X6588658Y-16859031D02*
X6598182Y-16878079D01*
X6598182Y-16878079D02*
X6607705Y-16916174D01*
X6607705Y-16916174D02*
X6607705Y-16963793D01*
X6607705Y-16963793D02*
X6598182Y-17001889D01*
X6598182Y-17001889D02*
X6588658Y-17020936D01*
X6588658Y-17020936D02*
X6579134Y-17030460D01*
X6579134Y-17030460D02*
X6560086Y-17039984D01*
X6560086Y-17039984D02*
X6541039Y-17039984D01*
X6541039Y-17039984D02*
X6521991Y-17030460D01*
X6521991Y-17030460D02*
X6512467Y-17020936D01*
X6512467Y-17020936D02*
X6502943Y-17001889D01*
X6502943Y-17001889D02*
X6493420Y-16963793D01*
X6493420Y-16963793D02*
X6493420Y-16916174D01*
X6493420Y-16916174D02*
X6502943Y-16878079D01*
X6502943Y-16878079D02*
X6512467Y-16859031D01*
X6512467Y-16859031D02*
X6521991Y-16849508D01*
X6521991Y-16849508D02*
X6541039Y-16839984D01*
X6693420Y-17039984D02*
X6693420Y-16906650D01*
X6693420Y-16925698D02*
X6702943Y-16916174D01*
X6702943Y-16916174D02*
X6721991Y-16906650D01*
X6721991Y-16906650D02*
X6750563Y-16906650D01*
X6750563Y-16906650D02*
X6769610Y-16916174D01*
X6769610Y-16916174D02*
X6779134Y-16935222D01*
X6779134Y-16935222D02*
X6779134Y-17039984D01*
X6779134Y-16935222D02*
X6788658Y-16916174D01*
X6788658Y-16916174D02*
X6807705Y-16906650D01*
X6807705Y-16906650D02*
X6836277Y-16906650D01*
X6836277Y-16906650D02*
X6855324Y-16916174D01*
X6855324Y-16916174D02*
X6864848Y-16935222D01*
X6864848Y-16935222D02*
X6864848Y-17039984D01*
X6960086Y-17039984D02*
X6960086Y-16906650D01*
X6960086Y-16925698D02*
X6969610Y-16916174D01*
X6969610Y-16916174D02*
X6988658Y-16906650D01*
X6988658Y-16906650D02*
X7017229Y-16906650D01*
X7017229Y-16906650D02*
X7036277Y-16916174D01*
X7036277Y-16916174D02*
X7045801Y-16935222D01*
X7045801Y-16935222D02*
X7045801Y-17039984D01*
X7045801Y-16935222D02*
X7055324Y-16916174D01*
X7055324Y-16916174D02*
X7074372Y-16906650D01*
X7074372Y-16906650D02*
X7102943Y-16906650D01*
X7102943Y-16906650D02*
X7121991Y-16916174D01*
X7121991Y-16916174D02*
X7131515Y-16935222D01*
X7131515Y-16935222D02*
X7131515Y-17039984D01*
X7521991Y-16830460D02*
X7350563Y-17087603D01*
X7779134Y-16839984D02*
X7798182Y-16839984D01*
X7798182Y-16839984D02*
X7817229Y-16849508D01*
X7817229Y-16849508D02*
X7826753Y-16859031D01*
X7826753Y-16859031D02*
X7836277Y-16878079D01*
X7836277Y-16878079D02*
X7845801Y-16916174D01*
X7845801Y-16916174D02*
X7845801Y-16963793D01*
X7845801Y-16963793D02*
X7836277Y-17001889D01*
X7836277Y-17001889D02*
X7826753Y-17020936D01*
X7826753Y-17020936D02*
X7817229Y-17030460D01*
X7817229Y-17030460D02*
X7798182Y-17039984D01*
X7798182Y-17039984D02*
X7779134Y-17039984D01*
X7779134Y-17039984D02*
X7760086Y-17030460D01*
X7760086Y-17030460D02*
X7750563Y-17020936D01*
X7750563Y-17020936D02*
X7741039Y-17001889D01*
X7741039Y-17001889D02*
X7731515Y-16963793D01*
X7731515Y-16963793D02*
X7731515Y-16916174D01*
X7731515Y-16916174D02*
X7741039Y-16878079D01*
X7741039Y-16878079D02*
X7750563Y-16859031D01*
X7750563Y-16859031D02*
X7760086Y-16849508D01*
X7760086Y-16849508D02*
X7779134Y-16839984D01*
X7931515Y-17020936D02*
X7941039Y-17030460D01*
X7941039Y-17030460D02*
X7931515Y-17039984D01*
X7931515Y-17039984D02*
X7921991Y-17030460D01*
X7921991Y-17030460D02*
X7931515Y-17020936D01*
X7931515Y-17020936D02*
X7931515Y-17039984D01*
X8064848Y-16839984D02*
X8083896Y-16839984D01*
X8083896Y-16839984D02*
X8102944Y-16849508D01*
X8102944Y-16849508D02*
X8112467Y-16859031D01*
X8112467Y-16859031D02*
X8121991Y-16878079D01*
X8121991Y-16878079D02*
X8131515Y-16916174D01*
X8131515Y-16916174D02*
X8131515Y-16963793D01*
X8131515Y-16963793D02*
X8121991Y-17001889D01*
X8121991Y-17001889D02*
X8112467Y-17020936D01*
X8112467Y-17020936D02*
X8102944Y-17030460D01*
X8102944Y-17030460D02*
X8083896Y-17039984D01*
X8083896Y-17039984D02*
X8064848Y-17039984D01*
X8064848Y-17039984D02*
X8045801Y-17030460D01*
X8045801Y-17030460D02*
X8036277Y-17020936D01*
X8036277Y-17020936D02*
X8026753Y-17001889D01*
X8026753Y-17001889D02*
X8017229Y-16963793D01*
X8017229Y-16963793D02*
X8017229Y-16916174D01*
X8017229Y-16916174D02*
X8026753Y-16878079D01*
X8026753Y-16878079D02*
X8036277Y-16859031D01*
X8036277Y-16859031D02*
X8045801Y-16849508D01*
X8045801Y-16849508D02*
X8064848Y-16839984D01*
X8302944Y-16906650D02*
X8302944Y-17039984D01*
X8255325Y-16830460D02*
X8207706Y-16973317D01*
X8207706Y-16973317D02*
X8331515Y-16973317D01*
X8388658Y-16839984D02*
X8512468Y-16839984D01*
X8512468Y-16839984D02*
X8445801Y-16916174D01*
X8445801Y-16916174D02*
X8474372Y-16916174D01*
X8474372Y-16916174D02*
X8493420Y-16925698D01*
X8493420Y-16925698D02*
X8502944Y-16935222D01*
X8502944Y-16935222D02*
X8512468Y-16954270D01*
X8512468Y-16954270D02*
X8512468Y-17001889D01*
X8512468Y-17001889D02*
X8502944Y-17020936D01*
X8502944Y-17020936D02*
X8493420Y-17030460D01*
X8493420Y-17030460D02*
X8474372Y-17039984D01*
X8474372Y-17039984D02*
X8417229Y-17039984D01*
X8417229Y-17039984D02*
X8398182Y-17030460D01*
X8398182Y-17030460D02*
X8388658Y-17020936D01*
X8579134Y-16839984D02*
X8702944Y-16839984D01*
X8702944Y-16839984D02*
X8636277Y-16916174D01*
X8636277Y-16916174D02*
X8664849Y-16916174D01*
X8664849Y-16916174D02*
X8683896Y-16925698D01*
X8683896Y-16925698D02*
X8693420Y-16935222D01*
X8693420Y-16935222D02*
X8702944Y-16954270D01*
X8702944Y-16954270D02*
X8702944Y-17001889D01*
X8702944Y-17001889D02*
X8693420Y-17020936D01*
X8693420Y-17020936D02*
X8683896Y-17030460D01*
X8683896Y-17030460D02*
X8664849Y-17039984D01*
X8664849Y-17039984D02*
X8607706Y-17039984D01*
X8607706Y-17039984D02*
X8588658Y-17030460D01*
X8588658Y-17030460D02*
X8579134Y-17020936D01*
X8779134Y-16839984D02*
X8779134Y-16878079D01*
X8855325Y-16839984D02*
X8855325Y-16878079D01*
X9150563Y-17116174D02*
X9141039Y-17106650D01*
X9141039Y-17106650D02*
X9121991Y-17078079D01*
X9121991Y-17078079D02*
X9112468Y-17059031D01*
X9112468Y-17059031D02*
X9102944Y-17030460D01*
X9102944Y-17030460D02*
X9093420Y-16982841D01*
X9093420Y-16982841D02*
X9093420Y-16944746D01*
X9093420Y-16944746D02*
X9102944Y-16897127D01*
X9102944Y-16897127D02*
X9112468Y-16868555D01*
X9112468Y-16868555D02*
X9121991Y-16849508D01*
X9121991Y-16849508D02*
X9141039Y-16820936D01*
X9141039Y-16820936D02*
X9150563Y-16811412D01*
X9207706Y-16839984D02*
X9331515Y-16839984D01*
X9331515Y-16839984D02*
X9264849Y-16916174D01*
X9264849Y-16916174D02*
X9293420Y-16916174D01*
X9293420Y-16916174D02*
X9312468Y-16925698D01*
X9312468Y-16925698D02*
X9321991Y-16935222D01*
X9321991Y-16935222D02*
X9331515Y-16954270D01*
X9331515Y-16954270D02*
X9331515Y-17001889D01*
X9331515Y-17001889D02*
X9321991Y-17020936D01*
X9321991Y-17020936D02*
X9312468Y-17030460D01*
X9312468Y-17030460D02*
X9293420Y-17039984D01*
X9293420Y-17039984D02*
X9236277Y-17039984D01*
X9236277Y-17039984D02*
X9217230Y-17030460D01*
X9217230Y-17030460D02*
X9207706Y-17020936D01*
X9569611Y-17039984D02*
X9569611Y-16839984D01*
X9655325Y-17039984D02*
X9655325Y-16935222D01*
X9655325Y-16935222D02*
X9645801Y-16916174D01*
X9645801Y-16916174D02*
X9626753Y-16906650D01*
X9626753Y-16906650D02*
X9598182Y-16906650D01*
X9598182Y-16906650D02*
X9579134Y-16916174D01*
X9579134Y-16916174D02*
X9569611Y-16925698D01*
X9779134Y-17039984D02*
X9760087Y-17030460D01*
X9760087Y-17030460D02*
X9750563Y-17020936D01*
X9750563Y-17020936D02*
X9741039Y-17001889D01*
X9741039Y-17001889D02*
X9741039Y-16944746D01*
X9741039Y-16944746D02*
X9750563Y-16925698D01*
X9750563Y-16925698D02*
X9760087Y-16916174D01*
X9760087Y-16916174D02*
X9779134Y-16906650D01*
X9779134Y-16906650D02*
X9807706Y-16906650D01*
X9807706Y-16906650D02*
X9826753Y-16916174D01*
X9826753Y-16916174D02*
X9836277Y-16925698D01*
X9836277Y-16925698D02*
X9845801Y-16944746D01*
X9845801Y-16944746D02*
X9845801Y-17001889D01*
X9845801Y-17001889D02*
X9836277Y-17020936D01*
X9836277Y-17020936D02*
X9826753Y-17030460D01*
X9826753Y-17030460D02*
X9807706Y-17039984D01*
X9807706Y-17039984D02*
X9779134Y-17039984D01*
X9960087Y-17039984D02*
X9941039Y-17030460D01*
X9941039Y-17030460D02*
X9931515Y-17011412D01*
X9931515Y-17011412D02*
X9931515Y-16839984D01*
X10112468Y-17030460D02*
X10093420Y-17039984D01*
X10093420Y-17039984D02*
X10055325Y-17039984D01*
X10055325Y-17039984D02*
X10036277Y-17030460D01*
X10036277Y-17030460D02*
X10026753Y-17011412D01*
X10026753Y-17011412D02*
X10026753Y-16935222D01*
X10026753Y-16935222D02*
X10036277Y-16916174D01*
X10036277Y-16916174D02*
X10055325Y-16906650D01*
X10055325Y-16906650D02*
X10093420Y-16906650D01*
X10093420Y-16906650D02*
X10112468Y-16916174D01*
X10112468Y-16916174D02*
X10121992Y-16935222D01*
X10121992Y-16935222D02*
X10121992Y-16954270D01*
X10121992Y-16954270D02*
X10026753Y-16973317D01*
X10198182Y-17030460D02*
X10217230Y-17039984D01*
X10217230Y-17039984D02*
X10255325Y-17039984D01*
X10255325Y-17039984D02*
X10274373Y-17030460D01*
X10274373Y-17030460D02*
X10283896Y-17011412D01*
X10283896Y-17011412D02*
X10283896Y-17001889D01*
X10283896Y-17001889D02*
X10274373Y-16982841D01*
X10274373Y-16982841D02*
X10255325Y-16973317D01*
X10255325Y-16973317D02*
X10226753Y-16973317D01*
X10226753Y-16973317D02*
X10207706Y-16963793D01*
X10207706Y-16963793D02*
X10198182Y-16944746D01*
X10198182Y-16944746D02*
X10198182Y-16935222D01*
X10198182Y-16935222D02*
X10207706Y-16916174D01*
X10207706Y-16916174D02*
X10226753Y-16906650D01*
X10226753Y-16906650D02*
X10255325Y-16906650D01*
X10255325Y-16906650D02*
X10274373Y-16916174D01*
X10350563Y-17116174D02*
X10360087Y-17106650D01*
X10360087Y-17106650D02*
X10379134Y-17078079D01*
X10379134Y-17078079D02*
X10388658Y-17059031D01*
X10388658Y-17059031D02*
X10398182Y-17030460D01*
X10398182Y-17030460D02*
X10407706Y-16982841D01*
X10407706Y-16982841D02*
X10407706Y-16944746D01*
X10407706Y-16944746D02*
X10398182Y-16897127D01*
X10398182Y-16897127D02*
X10388658Y-16868555D01*
X10388658Y-16868555D02*
X10379134Y-16849508D01*
X10379134Y-16849508D02*
X10360087Y-16820936D01*
X10360087Y-16820936D02*
X10350563Y-16811412D01*
D14*
X5455500Y-17152500D02*
X5575500Y-17272500D01*
X5575500Y-17152500D02*
X5455500Y-17272500D01*
X5575500Y-17212500D02*
G75*
G02*
X5455500Y-17212500I-60000J0D01*
G01*
X5455500Y-17212500D02*
G75*
G02*
X5575500Y-17212500I60000J0D01*
G01*
D11*
X5941039Y-17303984D02*
X5826753Y-17303984D01*
X5883896Y-17303984D02*
X5883896Y-17103984D01*
X5883896Y-17103984D02*
X5864848Y-17132555D01*
X5864848Y-17132555D02*
X5845801Y-17151603D01*
X5845801Y-17151603D02*
X5826753Y-17161127D01*
X6026753Y-17284936D02*
X6036277Y-17294460D01*
X6036277Y-17294460D02*
X6026753Y-17303984D01*
X6026753Y-17303984D02*
X6017229Y-17294460D01*
X6017229Y-17294460D02*
X6026753Y-17284936D01*
X6026753Y-17284936D02*
X6026753Y-17303984D01*
X6112467Y-17123031D02*
X6121991Y-17113508D01*
X6121991Y-17113508D02*
X6141039Y-17103984D01*
X6141039Y-17103984D02*
X6188658Y-17103984D01*
X6188658Y-17103984D02*
X6207705Y-17113508D01*
X6207705Y-17113508D02*
X6217229Y-17123031D01*
X6217229Y-17123031D02*
X6226753Y-17142079D01*
X6226753Y-17142079D02*
X6226753Y-17161127D01*
X6226753Y-17161127D02*
X6217229Y-17189698D01*
X6217229Y-17189698D02*
X6102943Y-17303984D01*
X6102943Y-17303984D02*
X6226753Y-17303984D01*
X6350562Y-17103984D02*
X6369610Y-17103984D01*
X6369610Y-17103984D02*
X6388658Y-17113508D01*
X6388658Y-17113508D02*
X6398182Y-17123031D01*
X6398182Y-17123031D02*
X6407705Y-17142079D01*
X6407705Y-17142079D02*
X6417229Y-17180174D01*
X6417229Y-17180174D02*
X6417229Y-17227793D01*
X6417229Y-17227793D02*
X6407705Y-17265889D01*
X6407705Y-17265889D02*
X6398182Y-17284936D01*
X6398182Y-17284936D02*
X6388658Y-17294460D01*
X6388658Y-17294460D02*
X6369610Y-17303984D01*
X6369610Y-17303984D02*
X6350562Y-17303984D01*
X6350562Y-17303984D02*
X6331515Y-17294460D01*
X6331515Y-17294460D02*
X6321991Y-17284936D01*
X6321991Y-17284936D02*
X6312467Y-17265889D01*
X6312467Y-17265889D02*
X6302943Y-17227793D01*
X6302943Y-17227793D02*
X6302943Y-17180174D01*
X6302943Y-17180174D02*
X6312467Y-17142079D01*
X6312467Y-17142079D02*
X6321991Y-17123031D01*
X6321991Y-17123031D02*
X6331515Y-17113508D01*
X6331515Y-17113508D02*
X6350562Y-17103984D01*
X6541039Y-17103984D02*
X6560086Y-17103984D01*
X6560086Y-17103984D02*
X6579134Y-17113508D01*
X6579134Y-17113508D02*
X6588658Y-17123031D01*
X6588658Y-17123031D02*
X6598182Y-17142079D01*
X6598182Y-17142079D02*
X6607705Y-17180174D01*
X6607705Y-17180174D02*
X6607705Y-17227793D01*
X6607705Y-17227793D02*
X6598182Y-17265889D01*
X6598182Y-17265889D02*
X6588658Y-17284936D01*
X6588658Y-17284936D02*
X6579134Y-17294460D01*
X6579134Y-17294460D02*
X6560086Y-17303984D01*
X6560086Y-17303984D02*
X6541039Y-17303984D01*
X6541039Y-17303984D02*
X6521991Y-17294460D01*
X6521991Y-17294460D02*
X6512467Y-17284936D01*
X6512467Y-17284936D02*
X6502943Y-17265889D01*
X6502943Y-17265889D02*
X6493420Y-17227793D01*
X6493420Y-17227793D02*
X6493420Y-17180174D01*
X6493420Y-17180174D02*
X6502943Y-17142079D01*
X6502943Y-17142079D02*
X6512467Y-17123031D01*
X6512467Y-17123031D02*
X6521991Y-17113508D01*
X6521991Y-17113508D02*
X6541039Y-17103984D01*
X6693420Y-17303984D02*
X6693420Y-17170650D01*
X6693420Y-17189698D02*
X6702943Y-17180174D01*
X6702943Y-17180174D02*
X6721991Y-17170650D01*
X6721991Y-17170650D02*
X6750563Y-17170650D01*
X6750563Y-17170650D02*
X6769610Y-17180174D01*
X6769610Y-17180174D02*
X6779134Y-17199222D01*
X6779134Y-17199222D02*
X6779134Y-17303984D01*
X6779134Y-17199222D02*
X6788658Y-17180174D01*
X6788658Y-17180174D02*
X6807705Y-17170650D01*
X6807705Y-17170650D02*
X6836277Y-17170650D01*
X6836277Y-17170650D02*
X6855324Y-17180174D01*
X6855324Y-17180174D02*
X6864848Y-17199222D01*
X6864848Y-17199222D02*
X6864848Y-17303984D01*
X6960086Y-17303984D02*
X6960086Y-17170650D01*
X6960086Y-17189698D02*
X6969610Y-17180174D01*
X6969610Y-17180174D02*
X6988658Y-17170650D01*
X6988658Y-17170650D02*
X7017229Y-17170650D01*
X7017229Y-17170650D02*
X7036277Y-17180174D01*
X7036277Y-17180174D02*
X7045801Y-17199222D01*
X7045801Y-17199222D02*
X7045801Y-17303984D01*
X7045801Y-17199222D02*
X7055324Y-17180174D01*
X7055324Y-17180174D02*
X7074372Y-17170650D01*
X7074372Y-17170650D02*
X7102943Y-17170650D01*
X7102943Y-17170650D02*
X7121991Y-17180174D01*
X7121991Y-17180174D02*
X7131515Y-17199222D01*
X7131515Y-17199222D02*
X7131515Y-17303984D01*
X7521991Y-17094460D02*
X7350563Y-17351603D01*
X7779134Y-17103984D02*
X7798182Y-17103984D01*
X7798182Y-17103984D02*
X7817229Y-17113508D01*
X7817229Y-17113508D02*
X7826753Y-17123031D01*
X7826753Y-17123031D02*
X7836277Y-17142079D01*
X7836277Y-17142079D02*
X7845801Y-17180174D01*
X7845801Y-17180174D02*
X7845801Y-17227793D01*
X7845801Y-17227793D02*
X7836277Y-17265889D01*
X7836277Y-17265889D02*
X7826753Y-17284936D01*
X7826753Y-17284936D02*
X7817229Y-17294460D01*
X7817229Y-17294460D02*
X7798182Y-17303984D01*
X7798182Y-17303984D02*
X7779134Y-17303984D01*
X7779134Y-17303984D02*
X7760086Y-17294460D01*
X7760086Y-17294460D02*
X7750563Y-17284936D01*
X7750563Y-17284936D02*
X7741039Y-17265889D01*
X7741039Y-17265889D02*
X7731515Y-17227793D01*
X7731515Y-17227793D02*
X7731515Y-17180174D01*
X7731515Y-17180174D02*
X7741039Y-17142079D01*
X7741039Y-17142079D02*
X7750563Y-17123031D01*
X7750563Y-17123031D02*
X7760086Y-17113508D01*
X7760086Y-17113508D02*
X7779134Y-17103984D01*
X7931515Y-17284936D02*
X7941039Y-17294460D01*
X7941039Y-17294460D02*
X7931515Y-17303984D01*
X7931515Y-17303984D02*
X7921991Y-17294460D01*
X7921991Y-17294460D02*
X7931515Y-17284936D01*
X7931515Y-17284936D02*
X7931515Y-17303984D01*
X8064848Y-17103984D02*
X8083896Y-17103984D01*
X8083896Y-17103984D02*
X8102944Y-17113508D01*
X8102944Y-17113508D02*
X8112467Y-17123031D01*
X8112467Y-17123031D02*
X8121991Y-17142079D01*
X8121991Y-17142079D02*
X8131515Y-17180174D01*
X8131515Y-17180174D02*
X8131515Y-17227793D01*
X8131515Y-17227793D02*
X8121991Y-17265889D01*
X8121991Y-17265889D02*
X8112467Y-17284936D01*
X8112467Y-17284936D02*
X8102944Y-17294460D01*
X8102944Y-17294460D02*
X8083896Y-17303984D01*
X8083896Y-17303984D02*
X8064848Y-17303984D01*
X8064848Y-17303984D02*
X8045801Y-17294460D01*
X8045801Y-17294460D02*
X8036277Y-17284936D01*
X8036277Y-17284936D02*
X8026753Y-17265889D01*
X8026753Y-17265889D02*
X8017229Y-17227793D01*
X8017229Y-17227793D02*
X8017229Y-17180174D01*
X8017229Y-17180174D02*
X8026753Y-17142079D01*
X8026753Y-17142079D02*
X8036277Y-17123031D01*
X8036277Y-17123031D02*
X8045801Y-17113508D01*
X8045801Y-17113508D02*
X8064848Y-17103984D01*
X8302944Y-17170650D02*
X8302944Y-17303984D01*
X8255325Y-17094460D02*
X8207706Y-17237317D01*
X8207706Y-17237317D02*
X8331515Y-17237317D01*
X8388658Y-17103984D02*
X8521991Y-17103984D01*
X8521991Y-17103984D02*
X8436277Y-17303984D01*
X8588658Y-17123031D02*
X8598182Y-17113508D01*
X8598182Y-17113508D02*
X8617229Y-17103984D01*
X8617229Y-17103984D02*
X8664849Y-17103984D01*
X8664849Y-17103984D02*
X8683896Y-17113508D01*
X8683896Y-17113508D02*
X8693420Y-17123031D01*
X8693420Y-17123031D02*
X8702944Y-17142079D01*
X8702944Y-17142079D02*
X8702944Y-17161127D01*
X8702944Y-17161127D02*
X8693420Y-17189698D01*
X8693420Y-17189698D02*
X8579134Y-17303984D01*
X8579134Y-17303984D02*
X8702944Y-17303984D01*
X8779134Y-17103984D02*
X8779134Y-17142079D01*
X8855325Y-17103984D02*
X8855325Y-17142079D01*
X9150563Y-17380174D02*
X9141039Y-17370650D01*
X9141039Y-17370650D02*
X9121991Y-17342079D01*
X9121991Y-17342079D02*
X9112468Y-17323031D01*
X9112468Y-17323031D02*
X9102944Y-17294460D01*
X9102944Y-17294460D02*
X9093420Y-17246841D01*
X9093420Y-17246841D02*
X9093420Y-17208746D01*
X9093420Y-17208746D02*
X9102944Y-17161127D01*
X9102944Y-17161127D02*
X9112468Y-17132555D01*
X9112468Y-17132555D02*
X9121991Y-17113508D01*
X9121991Y-17113508D02*
X9141039Y-17084936D01*
X9141039Y-17084936D02*
X9150563Y-17075412D01*
X9217230Y-17123031D02*
X9226753Y-17113508D01*
X9226753Y-17113508D02*
X9245801Y-17103984D01*
X9245801Y-17103984D02*
X9293420Y-17103984D01*
X9293420Y-17103984D02*
X9312468Y-17113508D01*
X9312468Y-17113508D02*
X9321991Y-17123031D01*
X9321991Y-17123031D02*
X9331515Y-17142079D01*
X9331515Y-17142079D02*
X9331515Y-17161127D01*
X9331515Y-17161127D02*
X9321991Y-17189698D01*
X9321991Y-17189698D02*
X9207706Y-17303984D01*
X9207706Y-17303984D02*
X9331515Y-17303984D01*
X9569611Y-17303984D02*
X9569611Y-17103984D01*
X9655325Y-17303984D02*
X9655325Y-17199222D01*
X9655325Y-17199222D02*
X9645801Y-17180174D01*
X9645801Y-17180174D02*
X9626753Y-17170650D01*
X9626753Y-17170650D02*
X9598182Y-17170650D01*
X9598182Y-17170650D02*
X9579134Y-17180174D01*
X9579134Y-17180174D02*
X9569611Y-17189698D01*
X9779134Y-17303984D02*
X9760087Y-17294460D01*
X9760087Y-17294460D02*
X9750563Y-17284936D01*
X9750563Y-17284936D02*
X9741039Y-17265889D01*
X9741039Y-17265889D02*
X9741039Y-17208746D01*
X9741039Y-17208746D02*
X9750563Y-17189698D01*
X9750563Y-17189698D02*
X9760087Y-17180174D01*
X9760087Y-17180174D02*
X9779134Y-17170650D01*
X9779134Y-17170650D02*
X9807706Y-17170650D01*
X9807706Y-17170650D02*
X9826753Y-17180174D01*
X9826753Y-17180174D02*
X9836277Y-17189698D01*
X9836277Y-17189698D02*
X9845801Y-17208746D01*
X9845801Y-17208746D02*
X9845801Y-17265889D01*
X9845801Y-17265889D02*
X9836277Y-17284936D01*
X9836277Y-17284936D02*
X9826753Y-17294460D01*
X9826753Y-17294460D02*
X9807706Y-17303984D01*
X9807706Y-17303984D02*
X9779134Y-17303984D01*
X9960087Y-17303984D02*
X9941039Y-17294460D01*
X9941039Y-17294460D02*
X9931515Y-17275412D01*
X9931515Y-17275412D02*
X9931515Y-17103984D01*
X10112468Y-17294460D02*
X10093420Y-17303984D01*
X10093420Y-17303984D02*
X10055325Y-17303984D01*
X10055325Y-17303984D02*
X10036277Y-17294460D01*
X10036277Y-17294460D02*
X10026753Y-17275412D01*
X10026753Y-17275412D02*
X10026753Y-17199222D01*
X10026753Y-17199222D02*
X10036277Y-17180174D01*
X10036277Y-17180174D02*
X10055325Y-17170650D01*
X10055325Y-17170650D02*
X10093420Y-17170650D01*
X10093420Y-17170650D02*
X10112468Y-17180174D01*
X10112468Y-17180174D02*
X10121992Y-17199222D01*
X10121992Y-17199222D02*
X10121992Y-17218270D01*
X10121992Y-17218270D02*
X10026753Y-17237317D01*
X10198182Y-17294460D02*
X10217230Y-17303984D01*
X10217230Y-17303984D02*
X10255325Y-17303984D01*
X10255325Y-17303984D02*
X10274373Y-17294460D01*
X10274373Y-17294460D02*
X10283896Y-17275412D01*
X10283896Y-17275412D02*
X10283896Y-17265889D01*
X10283896Y-17265889D02*
X10274373Y-17246841D01*
X10274373Y-17246841D02*
X10255325Y-17237317D01*
X10255325Y-17237317D02*
X10226753Y-17237317D01*
X10226753Y-17237317D02*
X10207706Y-17227793D01*
X10207706Y-17227793D02*
X10198182Y-17208746D01*
X10198182Y-17208746D02*
X10198182Y-17199222D01*
X10198182Y-17199222D02*
X10207706Y-17180174D01*
X10207706Y-17180174D02*
X10226753Y-17170650D01*
X10226753Y-17170650D02*
X10255325Y-17170650D01*
X10255325Y-17170650D02*
X10274373Y-17180174D01*
X10350563Y-17380174D02*
X10360087Y-17370650D01*
X10360087Y-17370650D02*
X10379134Y-17342079D01*
X10379134Y-17342079D02*
X10388658Y-17323031D01*
X10388658Y-17323031D02*
X10398182Y-17294460D01*
X10398182Y-17294460D02*
X10407706Y-17246841D01*
X10407706Y-17246841D02*
X10407706Y-17208746D01*
X10407706Y-17208746D02*
X10398182Y-17161127D01*
X10398182Y-17161127D02*
X10388658Y-17132555D01*
X10388658Y-17132555D02*
X10379134Y-17113508D01*
X10379134Y-17113508D02*
X10360087Y-17084936D01*
X10360087Y-17084936D02*
X10350563Y-17075412D01*
D15*
X5445500Y-17411500D02*
X5575500Y-17541500D01*
X5575500Y-17411500D02*
X5445500Y-17541500D01*
X5510500Y-17411500D02*
X5510500Y-17541500D01*
X5445500Y-17476500D02*
X5575500Y-17476500D01*
D11*
X5941039Y-17567984D02*
X5826753Y-17567984D01*
X5883896Y-17567984D02*
X5883896Y-17367984D01*
X5883896Y-17367984D02*
X5864848Y-17396555D01*
X5864848Y-17396555D02*
X5845801Y-17415603D01*
X5845801Y-17415603D02*
X5826753Y-17425127D01*
X6026753Y-17548936D02*
X6036277Y-17558460D01*
X6036277Y-17558460D02*
X6026753Y-17567984D01*
X6026753Y-17567984D02*
X6017229Y-17558460D01*
X6017229Y-17558460D02*
X6026753Y-17548936D01*
X6026753Y-17548936D02*
X6026753Y-17567984D01*
X6102943Y-17367984D02*
X6226753Y-17367984D01*
X6226753Y-17367984D02*
X6160086Y-17444174D01*
X6160086Y-17444174D02*
X6188658Y-17444174D01*
X6188658Y-17444174D02*
X6207705Y-17453698D01*
X6207705Y-17453698D02*
X6217229Y-17463222D01*
X6217229Y-17463222D02*
X6226753Y-17482270D01*
X6226753Y-17482270D02*
X6226753Y-17529889D01*
X6226753Y-17529889D02*
X6217229Y-17548936D01*
X6217229Y-17548936D02*
X6207705Y-17558460D01*
X6207705Y-17558460D02*
X6188658Y-17567984D01*
X6188658Y-17567984D02*
X6131515Y-17567984D01*
X6131515Y-17567984D02*
X6112467Y-17558460D01*
X6112467Y-17558460D02*
X6102943Y-17548936D01*
X6350562Y-17367984D02*
X6369610Y-17367984D01*
X6369610Y-17367984D02*
X6388658Y-17377508D01*
X6388658Y-17377508D02*
X6398182Y-17387031D01*
X6398182Y-17387031D02*
X6407705Y-17406079D01*
X6407705Y-17406079D02*
X6417229Y-17444174D01*
X6417229Y-17444174D02*
X6417229Y-17491793D01*
X6417229Y-17491793D02*
X6407705Y-17529889D01*
X6407705Y-17529889D02*
X6398182Y-17548936D01*
X6398182Y-17548936D02*
X6388658Y-17558460D01*
X6388658Y-17558460D02*
X6369610Y-17567984D01*
X6369610Y-17567984D02*
X6350562Y-17567984D01*
X6350562Y-17567984D02*
X6331515Y-17558460D01*
X6331515Y-17558460D02*
X6321991Y-17548936D01*
X6321991Y-17548936D02*
X6312467Y-17529889D01*
X6312467Y-17529889D02*
X6302943Y-17491793D01*
X6302943Y-17491793D02*
X6302943Y-17444174D01*
X6302943Y-17444174D02*
X6312467Y-17406079D01*
X6312467Y-17406079D02*
X6321991Y-17387031D01*
X6321991Y-17387031D02*
X6331515Y-17377508D01*
X6331515Y-17377508D02*
X6350562Y-17367984D01*
X6541039Y-17367984D02*
X6560086Y-17367984D01*
X6560086Y-17367984D02*
X6579134Y-17377508D01*
X6579134Y-17377508D02*
X6588658Y-17387031D01*
X6588658Y-17387031D02*
X6598182Y-17406079D01*
X6598182Y-17406079D02*
X6607705Y-17444174D01*
X6607705Y-17444174D02*
X6607705Y-17491793D01*
X6607705Y-17491793D02*
X6598182Y-17529889D01*
X6598182Y-17529889D02*
X6588658Y-17548936D01*
X6588658Y-17548936D02*
X6579134Y-17558460D01*
X6579134Y-17558460D02*
X6560086Y-17567984D01*
X6560086Y-17567984D02*
X6541039Y-17567984D01*
X6541039Y-17567984D02*
X6521991Y-17558460D01*
X6521991Y-17558460D02*
X6512467Y-17548936D01*
X6512467Y-17548936D02*
X6502943Y-17529889D01*
X6502943Y-17529889D02*
X6493420Y-17491793D01*
X6493420Y-17491793D02*
X6493420Y-17444174D01*
X6493420Y-17444174D02*
X6502943Y-17406079D01*
X6502943Y-17406079D02*
X6512467Y-17387031D01*
X6512467Y-17387031D02*
X6521991Y-17377508D01*
X6521991Y-17377508D02*
X6541039Y-17367984D01*
X6693420Y-17567984D02*
X6693420Y-17434650D01*
X6693420Y-17453698D02*
X6702943Y-17444174D01*
X6702943Y-17444174D02*
X6721991Y-17434650D01*
X6721991Y-17434650D02*
X6750563Y-17434650D01*
X6750563Y-17434650D02*
X6769610Y-17444174D01*
X6769610Y-17444174D02*
X6779134Y-17463222D01*
X6779134Y-17463222D02*
X6779134Y-17567984D01*
X6779134Y-17463222D02*
X6788658Y-17444174D01*
X6788658Y-17444174D02*
X6807705Y-17434650D01*
X6807705Y-17434650D02*
X6836277Y-17434650D01*
X6836277Y-17434650D02*
X6855324Y-17444174D01*
X6855324Y-17444174D02*
X6864848Y-17463222D01*
X6864848Y-17463222D02*
X6864848Y-17567984D01*
X6960086Y-17567984D02*
X6960086Y-17434650D01*
X6960086Y-17453698D02*
X6969610Y-17444174D01*
X6969610Y-17444174D02*
X6988658Y-17434650D01*
X6988658Y-17434650D02*
X7017229Y-17434650D01*
X7017229Y-17434650D02*
X7036277Y-17444174D01*
X7036277Y-17444174D02*
X7045801Y-17463222D01*
X7045801Y-17463222D02*
X7045801Y-17567984D01*
X7045801Y-17463222D02*
X7055324Y-17444174D01*
X7055324Y-17444174D02*
X7074372Y-17434650D01*
X7074372Y-17434650D02*
X7102943Y-17434650D01*
X7102943Y-17434650D02*
X7121991Y-17444174D01*
X7121991Y-17444174D02*
X7131515Y-17463222D01*
X7131515Y-17463222D02*
X7131515Y-17567984D01*
X7521991Y-17358460D02*
X7350563Y-17615603D01*
X7779134Y-17367984D02*
X7798182Y-17367984D01*
X7798182Y-17367984D02*
X7817229Y-17377508D01*
X7817229Y-17377508D02*
X7826753Y-17387031D01*
X7826753Y-17387031D02*
X7836277Y-17406079D01*
X7836277Y-17406079D02*
X7845801Y-17444174D01*
X7845801Y-17444174D02*
X7845801Y-17491793D01*
X7845801Y-17491793D02*
X7836277Y-17529889D01*
X7836277Y-17529889D02*
X7826753Y-17548936D01*
X7826753Y-17548936D02*
X7817229Y-17558460D01*
X7817229Y-17558460D02*
X7798182Y-17567984D01*
X7798182Y-17567984D02*
X7779134Y-17567984D01*
X7779134Y-17567984D02*
X7760086Y-17558460D01*
X7760086Y-17558460D02*
X7750563Y-17548936D01*
X7750563Y-17548936D02*
X7741039Y-17529889D01*
X7741039Y-17529889D02*
X7731515Y-17491793D01*
X7731515Y-17491793D02*
X7731515Y-17444174D01*
X7731515Y-17444174D02*
X7741039Y-17406079D01*
X7741039Y-17406079D02*
X7750563Y-17387031D01*
X7750563Y-17387031D02*
X7760086Y-17377508D01*
X7760086Y-17377508D02*
X7779134Y-17367984D01*
X7931515Y-17548936D02*
X7941039Y-17558460D01*
X7941039Y-17558460D02*
X7931515Y-17567984D01*
X7931515Y-17567984D02*
X7921991Y-17558460D01*
X7921991Y-17558460D02*
X7931515Y-17548936D01*
X7931515Y-17548936D02*
X7931515Y-17567984D01*
X8064848Y-17367984D02*
X8083896Y-17367984D01*
X8083896Y-17367984D02*
X8102944Y-17377508D01*
X8102944Y-17377508D02*
X8112467Y-17387031D01*
X8112467Y-17387031D02*
X8121991Y-17406079D01*
X8121991Y-17406079D02*
X8131515Y-17444174D01*
X8131515Y-17444174D02*
X8131515Y-17491793D01*
X8131515Y-17491793D02*
X8121991Y-17529889D01*
X8121991Y-17529889D02*
X8112467Y-17548936D01*
X8112467Y-17548936D02*
X8102944Y-17558460D01*
X8102944Y-17558460D02*
X8083896Y-17567984D01*
X8083896Y-17567984D02*
X8064848Y-17567984D01*
X8064848Y-17567984D02*
X8045801Y-17558460D01*
X8045801Y-17558460D02*
X8036277Y-17548936D01*
X8036277Y-17548936D02*
X8026753Y-17529889D01*
X8026753Y-17529889D02*
X8017229Y-17491793D01*
X8017229Y-17491793D02*
X8017229Y-17444174D01*
X8017229Y-17444174D02*
X8026753Y-17406079D01*
X8026753Y-17406079D02*
X8036277Y-17387031D01*
X8036277Y-17387031D02*
X8045801Y-17377508D01*
X8045801Y-17377508D02*
X8064848Y-17367984D01*
X8312467Y-17367984D02*
X8217229Y-17367984D01*
X8217229Y-17367984D02*
X8207706Y-17463222D01*
X8207706Y-17463222D02*
X8217229Y-17453698D01*
X8217229Y-17453698D02*
X8236277Y-17444174D01*
X8236277Y-17444174D02*
X8283896Y-17444174D01*
X8283896Y-17444174D02*
X8302944Y-17453698D01*
X8302944Y-17453698D02*
X8312467Y-17463222D01*
X8312467Y-17463222D02*
X8321991Y-17482270D01*
X8321991Y-17482270D02*
X8321991Y-17529889D01*
X8321991Y-17529889D02*
X8312467Y-17548936D01*
X8312467Y-17548936D02*
X8302944Y-17558460D01*
X8302944Y-17558460D02*
X8283896Y-17567984D01*
X8283896Y-17567984D02*
X8236277Y-17567984D01*
X8236277Y-17567984D02*
X8217229Y-17558460D01*
X8217229Y-17558460D02*
X8207706Y-17548936D01*
X8512468Y-17567984D02*
X8398182Y-17567984D01*
X8455325Y-17567984D02*
X8455325Y-17367984D01*
X8455325Y-17367984D02*
X8436277Y-17396555D01*
X8436277Y-17396555D02*
X8417229Y-17415603D01*
X8417229Y-17415603D02*
X8398182Y-17425127D01*
X8588658Y-17387031D02*
X8598182Y-17377508D01*
X8598182Y-17377508D02*
X8617229Y-17367984D01*
X8617229Y-17367984D02*
X8664849Y-17367984D01*
X8664849Y-17367984D02*
X8683896Y-17377508D01*
X8683896Y-17377508D02*
X8693420Y-17387031D01*
X8693420Y-17387031D02*
X8702944Y-17406079D01*
X8702944Y-17406079D02*
X8702944Y-17425127D01*
X8702944Y-17425127D02*
X8693420Y-17453698D01*
X8693420Y-17453698D02*
X8579134Y-17567984D01*
X8579134Y-17567984D02*
X8702944Y-17567984D01*
X8779134Y-17367984D02*
X8779134Y-17406079D01*
X8855325Y-17367984D02*
X8855325Y-17406079D01*
X9150563Y-17644174D02*
X9141039Y-17634650D01*
X9141039Y-17634650D02*
X9121991Y-17606079D01*
X9121991Y-17606079D02*
X9112468Y-17587031D01*
X9112468Y-17587031D02*
X9102944Y-17558460D01*
X9102944Y-17558460D02*
X9093420Y-17510841D01*
X9093420Y-17510841D02*
X9093420Y-17472746D01*
X9093420Y-17472746D02*
X9102944Y-17425127D01*
X9102944Y-17425127D02*
X9112468Y-17396555D01*
X9112468Y-17396555D02*
X9121991Y-17377508D01*
X9121991Y-17377508D02*
X9141039Y-17348936D01*
X9141039Y-17348936D02*
X9150563Y-17339412D01*
X9217230Y-17387031D02*
X9226753Y-17377508D01*
X9226753Y-17377508D02*
X9245801Y-17367984D01*
X9245801Y-17367984D02*
X9293420Y-17367984D01*
X9293420Y-17367984D02*
X9312468Y-17377508D01*
X9312468Y-17377508D02*
X9321991Y-17387031D01*
X9321991Y-17387031D02*
X9331515Y-17406079D01*
X9331515Y-17406079D02*
X9331515Y-17425127D01*
X9331515Y-17425127D02*
X9321991Y-17453698D01*
X9321991Y-17453698D02*
X9207706Y-17567984D01*
X9207706Y-17567984D02*
X9331515Y-17567984D01*
X9398182Y-17367984D02*
X9531515Y-17367984D01*
X9531515Y-17367984D02*
X9445801Y-17567984D01*
X9760087Y-17567984D02*
X9760087Y-17367984D01*
X9845801Y-17567984D02*
X9845801Y-17463222D01*
X9845801Y-17463222D02*
X9836277Y-17444174D01*
X9836277Y-17444174D02*
X9817230Y-17434650D01*
X9817230Y-17434650D02*
X9788658Y-17434650D01*
X9788658Y-17434650D02*
X9769611Y-17444174D01*
X9769611Y-17444174D02*
X9760087Y-17453698D01*
X9969611Y-17567984D02*
X9950563Y-17558460D01*
X9950563Y-17558460D02*
X9941039Y-17548936D01*
X9941039Y-17548936D02*
X9931515Y-17529889D01*
X9931515Y-17529889D02*
X9931515Y-17472746D01*
X9931515Y-17472746D02*
X9941039Y-17453698D01*
X9941039Y-17453698D02*
X9950563Y-17444174D01*
X9950563Y-17444174D02*
X9969611Y-17434650D01*
X9969611Y-17434650D02*
X9998182Y-17434650D01*
X9998182Y-17434650D02*
X10017230Y-17444174D01*
X10017230Y-17444174D02*
X10026753Y-17453698D01*
X10026753Y-17453698D02*
X10036277Y-17472746D01*
X10036277Y-17472746D02*
X10036277Y-17529889D01*
X10036277Y-17529889D02*
X10026753Y-17548936D01*
X10026753Y-17548936D02*
X10017230Y-17558460D01*
X10017230Y-17558460D02*
X9998182Y-17567984D01*
X9998182Y-17567984D02*
X9969611Y-17567984D01*
X10150563Y-17567984D02*
X10131515Y-17558460D01*
X10131515Y-17558460D02*
X10121992Y-17539412D01*
X10121992Y-17539412D02*
X10121992Y-17367984D01*
X10302944Y-17558460D02*
X10283896Y-17567984D01*
X10283896Y-17567984D02*
X10245801Y-17567984D01*
X10245801Y-17567984D02*
X10226753Y-17558460D01*
X10226753Y-17558460D02*
X10217230Y-17539412D01*
X10217230Y-17539412D02*
X10217230Y-17463222D01*
X10217230Y-17463222D02*
X10226753Y-17444174D01*
X10226753Y-17444174D02*
X10245801Y-17434650D01*
X10245801Y-17434650D02*
X10283896Y-17434650D01*
X10283896Y-17434650D02*
X10302944Y-17444174D01*
X10302944Y-17444174D02*
X10312468Y-17463222D01*
X10312468Y-17463222D02*
X10312468Y-17482270D01*
X10312468Y-17482270D02*
X10217230Y-17501317D01*
X10388658Y-17558460D02*
X10407706Y-17567984D01*
X10407706Y-17567984D02*
X10445801Y-17567984D01*
X10445801Y-17567984D02*
X10464849Y-17558460D01*
X10464849Y-17558460D02*
X10474373Y-17539412D01*
X10474373Y-17539412D02*
X10474373Y-17529889D01*
X10474373Y-17529889D02*
X10464849Y-17510841D01*
X10464849Y-17510841D02*
X10445801Y-17501317D01*
X10445801Y-17501317D02*
X10417230Y-17501317D01*
X10417230Y-17501317D02*
X10398182Y-17491793D01*
X10398182Y-17491793D02*
X10388658Y-17472746D01*
X10388658Y-17472746D02*
X10388658Y-17463222D01*
X10388658Y-17463222D02*
X10398182Y-17444174D01*
X10398182Y-17444174D02*
X10417230Y-17434650D01*
X10417230Y-17434650D02*
X10445801Y-17434650D01*
X10445801Y-17434650D02*
X10464849Y-17444174D01*
X10541039Y-17644174D02*
X10550563Y-17634650D01*
X10550563Y-17634650D02*
X10569611Y-17606079D01*
X10569611Y-17606079D02*
X10579134Y-17587031D01*
X10579134Y-17587031D02*
X10588658Y-17558460D01*
X10588658Y-17558460D02*
X10598182Y-17510841D01*
X10598182Y-17510841D02*
X10598182Y-17472746D01*
X10598182Y-17472746D02*
X10588658Y-17425127D01*
X10588658Y-17425127D02*
X10579134Y-17396555D01*
X10579134Y-17396555D02*
X10569611Y-17377508D01*
X10569611Y-17377508D02*
X10550563Y-17348936D01*
X10550563Y-17348936D02*
X10541039Y-17339412D01*
D16*
X5443500Y-17674500D02*
X5575500Y-17806500D01*
X5575500Y-17674500D02*
X5443500Y-17806500D01*
X5556170Y-17787170D02*
X5556170Y-17693831D01*
X5462831Y-17693831D01*
X5462831Y-17787170D01*
X5556170Y-17787170D01*
D11*
X5941039Y-17831984D02*
X5826753Y-17831984D01*
X5883896Y-17831984D02*
X5883896Y-17631984D01*
X5883896Y-17631984D02*
X5864848Y-17660555D01*
X5864848Y-17660555D02*
X5845801Y-17679603D01*
X5845801Y-17679603D02*
X5826753Y-17689127D01*
X6026753Y-17812936D02*
X6036277Y-17822460D01*
X6036277Y-17822460D02*
X6026753Y-17831984D01*
X6026753Y-17831984D02*
X6017229Y-17822460D01*
X6017229Y-17822460D02*
X6026753Y-17812936D01*
X6026753Y-17812936D02*
X6026753Y-17831984D01*
X6102943Y-17631984D02*
X6226753Y-17631984D01*
X6226753Y-17631984D02*
X6160086Y-17708174D01*
X6160086Y-17708174D02*
X6188658Y-17708174D01*
X6188658Y-17708174D02*
X6207705Y-17717698D01*
X6207705Y-17717698D02*
X6217229Y-17727222D01*
X6217229Y-17727222D02*
X6226753Y-17746270D01*
X6226753Y-17746270D02*
X6226753Y-17793889D01*
X6226753Y-17793889D02*
X6217229Y-17812936D01*
X6217229Y-17812936D02*
X6207705Y-17822460D01*
X6207705Y-17822460D02*
X6188658Y-17831984D01*
X6188658Y-17831984D02*
X6131515Y-17831984D01*
X6131515Y-17831984D02*
X6112467Y-17822460D01*
X6112467Y-17822460D02*
X6102943Y-17812936D01*
X6302943Y-17651031D02*
X6312467Y-17641508D01*
X6312467Y-17641508D02*
X6331515Y-17631984D01*
X6331515Y-17631984D02*
X6379134Y-17631984D01*
X6379134Y-17631984D02*
X6398182Y-17641508D01*
X6398182Y-17641508D02*
X6407705Y-17651031D01*
X6407705Y-17651031D02*
X6417229Y-17670079D01*
X6417229Y-17670079D02*
X6417229Y-17689127D01*
X6417229Y-17689127D02*
X6407705Y-17717698D01*
X6407705Y-17717698D02*
X6293420Y-17831984D01*
X6293420Y-17831984D02*
X6417229Y-17831984D01*
X6541039Y-17631984D02*
X6560086Y-17631984D01*
X6560086Y-17631984D02*
X6579134Y-17641508D01*
X6579134Y-17641508D02*
X6588658Y-17651031D01*
X6588658Y-17651031D02*
X6598182Y-17670079D01*
X6598182Y-17670079D02*
X6607705Y-17708174D01*
X6607705Y-17708174D02*
X6607705Y-17755793D01*
X6607705Y-17755793D02*
X6598182Y-17793889D01*
X6598182Y-17793889D02*
X6588658Y-17812936D01*
X6588658Y-17812936D02*
X6579134Y-17822460D01*
X6579134Y-17822460D02*
X6560086Y-17831984D01*
X6560086Y-17831984D02*
X6541039Y-17831984D01*
X6541039Y-17831984D02*
X6521991Y-17822460D01*
X6521991Y-17822460D02*
X6512467Y-17812936D01*
X6512467Y-17812936D02*
X6502943Y-17793889D01*
X6502943Y-17793889D02*
X6493420Y-17755793D01*
X6493420Y-17755793D02*
X6493420Y-17708174D01*
X6493420Y-17708174D02*
X6502943Y-17670079D01*
X6502943Y-17670079D02*
X6512467Y-17651031D01*
X6512467Y-17651031D02*
X6521991Y-17641508D01*
X6521991Y-17641508D02*
X6541039Y-17631984D01*
X6693420Y-17831984D02*
X6693420Y-17698650D01*
X6693420Y-17717698D02*
X6702943Y-17708174D01*
X6702943Y-17708174D02*
X6721991Y-17698650D01*
X6721991Y-17698650D02*
X6750563Y-17698650D01*
X6750563Y-17698650D02*
X6769610Y-17708174D01*
X6769610Y-17708174D02*
X6779134Y-17727222D01*
X6779134Y-17727222D02*
X6779134Y-17831984D01*
X6779134Y-17727222D02*
X6788658Y-17708174D01*
X6788658Y-17708174D02*
X6807705Y-17698650D01*
X6807705Y-17698650D02*
X6836277Y-17698650D01*
X6836277Y-17698650D02*
X6855324Y-17708174D01*
X6855324Y-17708174D02*
X6864848Y-17727222D01*
X6864848Y-17727222D02*
X6864848Y-17831984D01*
X6960086Y-17831984D02*
X6960086Y-17698650D01*
X6960086Y-17717698D02*
X6969610Y-17708174D01*
X6969610Y-17708174D02*
X6988658Y-17698650D01*
X6988658Y-17698650D02*
X7017229Y-17698650D01*
X7017229Y-17698650D02*
X7036277Y-17708174D01*
X7036277Y-17708174D02*
X7045801Y-17727222D01*
X7045801Y-17727222D02*
X7045801Y-17831984D01*
X7045801Y-17727222D02*
X7055324Y-17708174D01*
X7055324Y-17708174D02*
X7074372Y-17698650D01*
X7074372Y-17698650D02*
X7102943Y-17698650D01*
X7102943Y-17698650D02*
X7121991Y-17708174D01*
X7121991Y-17708174D02*
X7131515Y-17727222D01*
X7131515Y-17727222D02*
X7131515Y-17831984D01*
X7521991Y-17622460D02*
X7350563Y-17879603D01*
X7779134Y-17631984D02*
X7798182Y-17631984D01*
X7798182Y-17631984D02*
X7817229Y-17641508D01*
X7817229Y-17641508D02*
X7826753Y-17651031D01*
X7826753Y-17651031D02*
X7836277Y-17670079D01*
X7836277Y-17670079D02*
X7845801Y-17708174D01*
X7845801Y-17708174D02*
X7845801Y-17755793D01*
X7845801Y-17755793D02*
X7836277Y-17793889D01*
X7836277Y-17793889D02*
X7826753Y-17812936D01*
X7826753Y-17812936D02*
X7817229Y-17822460D01*
X7817229Y-17822460D02*
X7798182Y-17831984D01*
X7798182Y-17831984D02*
X7779134Y-17831984D01*
X7779134Y-17831984D02*
X7760086Y-17822460D01*
X7760086Y-17822460D02*
X7750563Y-17812936D01*
X7750563Y-17812936D02*
X7741039Y-17793889D01*
X7741039Y-17793889D02*
X7731515Y-17755793D01*
X7731515Y-17755793D02*
X7731515Y-17708174D01*
X7731515Y-17708174D02*
X7741039Y-17670079D01*
X7741039Y-17670079D02*
X7750563Y-17651031D01*
X7750563Y-17651031D02*
X7760086Y-17641508D01*
X7760086Y-17641508D02*
X7779134Y-17631984D01*
X7931515Y-17812936D02*
X7941039Y-17822460D01*
X7941039Y-17822460D02*
X7931515Y-17831984D01*
X7931515Y-17831984D02*
X7921991Y-17822460D01*
X7921991Y-17822460D02*
X7931515Y-17812936D01*
X7931515Y-17812936D02*
X7931515Y-17831984D01*
X8064848Y-17631984D02*
X8083896Y-17631984D01*
X8083896Y-17631984D02*
X8102944Y-17641508D01*
X8102944Y-17641508D02*
X8112467Y-17651031D01*
X8112467Y-17651031D02*
X8121991Y-17670079D01*
X8121991Y-17670079D02*
X8131515Y-17708174D01*
X8131515Y-17708174D02*
X8131515Y-17755793D01*
X8131515Y-17755793D02*
X8121991Y-17793889D01*
X8121991Y-17793889D02*
X8112467Y-17812936D01*
X8112467Y-17812936D02*
X8102944Y-17822460D01*
X8102944Y-17822460D02*
X8083896Y-17831984D01*
X8083896Y-17831984D02*
X8064848Y-17831984D01*
X8064848Y-17831984D02*
X8045801Y-17822460D01*
X8045801Y-17822460D02*
X8036277Y-17812936D01*
X8036277Y-17812936D02*
X8026753Y-17793889D01*
X8026753Y-17793889D02*
X8017229Y-17755793D01*
X8017229Y-17755793D02*
X8017229Y-17708174D01*
X8017229Y-17708174D02*
X8026753Y-17670079D01*
X8026753Y-17670079D02*
X8036277Y-17651031D01*
X8036277Y-17651031D02*
X8045801Y-17641508D01*
X8045801Y-17641508D02*
X8064848Y-17631984D01*
X8312467Y-17631984D02*
X8217229Y-17631984D01*
X8217229Y-17631984D02*
X8207706Y-17727222D01*
X8207706Y-17727222D02*
X8217229Y-17717698D01*
X8217229Y-17717698D02*
X8236277Y-17708174D01*
X8236277Y-17708174D02*
X8283896Y-17708174D01*
X8283896Y-17708174D02*
X8302944Y-17717698D01*
X8302944Y-17717698D02*
X8312467Y-17727222D01*
X8312467Y-17727222D02*
X8321991Y-17746270D01*
X8321991Y-17746270D02*
X8321991Y-17793889D01*
X8321991Y-17793889D02*
X8312467Y-17812936D01*
X8312467Y-17812936D02*
X8302944Y-17822460D01*
X8302944Y-17822460D02*
X8283896Y-17831984D01*
X8283896Y-17831984D02*
X8236277Y-17831984D01*
X8236277Y-17831984D02*
X8217229Y-17822460D01*
X8217229Y-17822460D02*
X8207706Y-17812936D01*
X8398182Y-17651031D02*
X8407706Y-17641508D01*
X8407706Y-17641508D02*
X8426753Y-17631984D01*
X8426753Y-17631984D02*
X8474372Y-17631984D01*
X8474372Y-17631984D02*
X8493420Y-17641508D01*
X8493420Y-17641508D02*
X8502944Y-17651031D01*
X8502944Y-17651031D02*
X8512468Y-17670079D01*
X8512468Y-17670079D02*
X8512468Y-17689127D01*
X8512468Y-17689127D02*
X8502944Y-17717698D01*
X8502944Y-17717698D02*
X8388658Y-17831984D01*
X8388658Y-17831984D02*
X8512468Y-17831984D01*
X8636277Y-17631984D02*
X8655325Y-17631984D01*
X8655325Y-17631984D02*
X8674372Y-17641508D01*
X8674372Y-17641508D02*
X8683896Y-17651031D01*
X8683896Y-17651031D02*
X8693420Y-17670079D01*
X8693420Y-17670079D02*
X8702944Y-17708174D01*
X8702944Y-17708174D02*
X8702944Y-17755793D01*
X8702944Y-17755793D02*
X8693420Y-17793889D01*
X8693420Y-17793889D02*
X8683896Y-17812936D01*
X8683896Y-17812936D02*
X8674372Y-17822460D01*
X8674372Y-17822460D02*
X8655325Y-17831984D01*
X8655325Y-17831984D02*
X8636277Y-17831984D01*
X8636277Y-17831984D02*
X8617229Y-17822460D01*
X8617229Y-17822460D02*
X8607706Y-17812936D01*
X8607706Y-17812936D02*
X8598182Y-17793889D01*
X8598182Y-17793889D02*
X8588658Y-17755793D01*
X8588658Y-17755793D02*
X8588658Y-17708174D01*
X8588658Y-17708174D02*
X8598182Y-17670079D01*
X8598182Y-17670079D02*
X8607706Y-17651031D01*
X8607706Y-17651031D02*
X8617229Y-17641508D01*
X8617229Y-17641508D02*
X8636277Y-17631984D01*
X8779134Y-17631984D02*
X8779134Y-17670079D01*
X8855325Y-17631984D02*
X8855325Y-17670079D01*
X9150563Y-17908174D02*
X9141039Y-17898650D01*
X9141039Y-17898650D02*
X9121991Y-17870079D01*
X9121991Y-17870079D02*
X9112468Y-17851031D01*
X9112468Y-17851031D02*
X9102944Y-17822460D01*
X9102944Y-17822460D02*
X9093420Y-17774841D01*
X9093420Y-17774841D02*
X9093420Y-17736746D01*
X9093420Y-17736746D02*
X9102944Y-17689127D01*
X9102944Y-17689127D02*
X9112468Y-17660555D01*
X9112468Y-17660555D02*
X9121991Y-17641508D01*
X9121991Y-17641508D02*
X9141039Y-17612936D01*
X9141039Y-17612936D02*
X9150563Y-17603412D01*
X9331515Y-17831984D02*
X9217230Y-17831984D01*
X9274372Y-17831984D02*
X9274372Y-17631984D01*
X9274372Y-17631984D02*
X9255325Y-17660555D01*
X9255325Y-17660555D02*
X9236277Y-17679603D01*
X9236277Y-17679603D02*
X9217230Y-17689127D01*
X9521991Y-17831984D02*
X9407706Y-17831984D01*
X9464849Y-17831984D02*
X9464849Y-17631984D01*
X9464849Y-17631984D02*
X9445801Y-17660555D01*
X9445801Y-17660555D02*
X9426753Y-17679603D01*
X9426753Y-17679603D02*
X9407706Y-17689127D01*
X9760087Y-17831984D02*
X9760087Y-17631984D01*
X9845801Y-17831984D02*
X9845801Y-17727222D01*
X9845801Y-17727222D02*
X9836277Y-17708174D01*
X9836277Y-17708174D02*
X9817230Y-17698650D01*
X9817230Y-17698650D02*
X9788658Y-17698650D01*
X9788658Y-17698650D02*
X9769611Y-17708174D01*
X9769611Y-17708174D02*
X9760087Y-17717698D01*
X9969611Y-17831984D02*
X9950563Y-17822460D01*
X9950563Y-17822460D02*
X9941039Y-17812936D01*
X9941039Y-17812936D02*
X9931515Y-17793889D01*
X9931515Y-17793889D02*
X9931515Y-17736746D01*
X9931515Y-17736746D02*
X9941039Y-17717698D01*
X9941039Y-17717698D02*
X9950563Y-17708174D01*
X9950563Y-17708174D02*
X9969611Y-17698650D01*
X9969611Y-17698650D02*
X9998182Y-17698650D01*
X9998182Y-17698650D02*
X10017230Y-17708174D01*
X10017230Y-17708174D02*
X10026753Y-17717698D01*
X10026753Y-17717698D02*
X10036277Y-17736746D01*
X10036277Y-17736746D02*
X10036277Y-17793889D01*
X10036277Y-17793889D02*
X10026753Y-17812936D01*
X10026753Y-17812936D02*
X10017230Y-17822460D01*
X10017230Y-17822460D02*
X9998182Y-17831984D01*
X9998182Y-17831984D02*
X9969611Y-17831984D01*
X10150563Y-17831984D02*
X10131515Y-17822460D01*
X10131515Y-17822460D02*
X10121992Y-17803412D01*
X10121992Y-17803412D02*
X10121992Y-17631984D01*
X10302944Y-17822460D02*
X10283896Y-17831984D01*
X10283896Y-17831984D02*
X10245801Y-17831984D01*
X10245801Y-17831984D02*
X10226753Y-17822460D01*
X10226753Y-17822460D02*
X10217230Y-17803412D01*
X10217230Y-17803412D02*
X10217230Y-17727222D01*
X10217230Y-17727222D02*
X10226753Y-17708174D01*
X10226753Y-17708174D02*
X10245801Y-17698650D01*
X10245801Y-17698650D02*
X10283896Y-17698650D01*
X10283896Y-17698650D02*
X10302944Y-17708174D01*
X10302944Y-17708174D02*
X10312468Y-17727222D01*
X10312468Y-17727222D02*
X10312468Y-17746270D01*
X10312468Y-17746270D02*
X10217230Y-17765317D01*
X10388658Y-17822460D02*
X10407706Y-17831984D01*
X10407706Y-17831984D02*
X10445801Y-17831984D01*
X10445801Y-17831984D02*
X10464849Y-17822460D01*
X10464849Y-17822460D02*
X10474373Y-17803412D01*
X10474373Y-17803412D02*
X10474373Y-17793889D01*
X10474373Y-17793889D02*
X10464849Y-17774841D01*
X10464849Y-17774841D02*
X10445801Y-17765317D01*
X10445801Y-17765317D02*
X10417230Y-17765317D01*
X10417230Y-17765317D02*
X10398182Y-17755793D01*
X10398182Y-17755793D02*
X10388658Y-17736746D01*
X10388658Y-17736746D02*
X10388658Y-17727222D01*
X10388658Y-17727222D02*
X10398182Y-17708174D01*
X10398182Y-17708174D02*
X10417230Y-17698650D01*
X10417230Y-17698650D02*
X10445801Y-17698650D01*
X10445801Y-17698650D02*
X10464849Y-17708174D01*
X10541039Y-17908174D02*
X10550563Y-17898650D01*
X10550563Y-17898650D02*
X10569611Y-17870079D01*
X10569611Y-17870079D02*
X10579134Y-17851031D01*
X10579134Y-17851031D02*
X10588658Y-17822460D01*
X10588658Y-17822460D02*
X10598182Y-17774841D01*
X10598182Y-17774841D02*
X10598182Y-17736746D01*
X10598182Y-17736746D02*
X10588658Y-17689127D01*
X10588658Y-17689127D02*
X10579134Y-17660555D01*
X10579134Y-17660555D02*
X10569611Y-17641508D01*
X10569611Y-17641508D02*
X10550563Y-17612936D01*
X10550563Y-17612936D02*
X10541039Y-17603412D01*
D17*
X5415500Y-17924500D02*
X5575500Y-18084500D01*
X5575500Y-17924500D02*
X5415500Y-18084500D01*
X5495500Y-18084500D02*
X5575500Y-18004500D01*
X5495500Y-17924500D01*
X5415500Y-18004500D01*
X5495500Y-18084500D01*
D11*
X5941039Y-18095984D02*
X5826753Y-18095984D01*
X5883896Y-18095984D02*
X5883896Y-17895984D01*
X5883896Y-17895984D02*
X5864848Y-17924555D01*
X5864848Y-17924555D02*
X5845801Y-17943603D01*
X5845801Y-17943603D02*
X5826753Y-17953127D01*
X6026753Y-18076936D02*
X6036277Y-18086460D01*
X6036277Y-18086460D02*
X6026753Y-18095984D01*
X6026753Y-18095984D02*
X6017229Y-18086460D01*
X6017229Y-18086460D02*
X6026753Y-18076936D01*
X6026753Y-18076936D02*
X6026753Y-18095984D01*
X6207705Y-17895984D02*
X6169610Y-17895984D01*
X6169610Y-17895984D02*
X6150562Y-17905508D01*
X6150562Y-17905508D02*
X6141039Y-17915031D01*
X6141039Y-17915031D02*
X6121991Y-17943603D01*
X6121991Y-17943603D02*
X6112467Y-17981698D01*
X6112467Y-17981698D02*
X6112467Y-18057889D01*
X6112467Y-18057889D02*
X6121991Y-18076936D01*
X6121991Y-18076936D02*
X6131515Y-18086460D01*
X6131515Y-18086460D02*
X6150562Y-18095984D01*
X6150562Y-18095984D02*
X6188658Y-18095984D01*
X6188658Y-18095984D02*
X6207705Y-18086460D01*
X6207705Y-18086460D02*
X6217229Y-18076936D01*
X6217229Y-18076936D02*
X6226753Y-18057889D01*
X6226753Y-18057889D02*
X6226753Y-18010270D01*
X6226753Y-18010270D02*
X6217229Y-17991222D01*
X6217229Y-17991222D02*
X6207705Y-17981698D01*
X6207705Y-17981698D02*
X6188658Y-17972174D01*
X6188658Y-17972174D02*
X6150562Y-17972174D01*
X6150562Y-17972174D02*
X6131515Y-17981698D01*
X6131515Y-17981698D02*
X6121991Y-17991222D01*
X6121991Y-17991222D02*
X6112467Y-18010270D01*
X6350562Y-17895984D02*
X6369610Y-17895984D01*
X6369610Y-17895984D02*
X6388658Y-17905508D01*
X6388658Y-17905508D02*
X6398182Y-17915031D01*
X6398182Y-17915031D02*
X6407705Y-17934079D01*
X6407705Y-17934079D02*
X6417229Y-17972174D01*
X6417229Y-17972174D02*
X6417229Y-18019793D01*
X6417229Y-18019793D02*
X6407705Y-18057889D01*
X6407705Y-18057889D02*
X6398182Y-18076936D01*
X6398182Y-18076936D02*
X6388658Y-18086460D01*
X6388658Y-18086460D02*
X6369610Y-18095984D01*
X6369610Y-18095984D02*
X6350562Y-18095984D01*
X6350562Y-18095984D02*
X6331515Y-18086460D01*
X6331515Y-18086460D02*
X6321991Y-18076936D01*
X6321991Y-18076936D02*
X6312467Y-18057889D01*
X6312467Y-18057889D02*
X6302943Y-18019793D01*
X6302943Y-18019793D02*
X6302943Y-17972174D01*
X6302943Y-17972174D02*
X6312467Y-17934079D01*
X6312467Y-17934079D02*
X6321991Y-17915031D01*
X6321991Y-17915031D02*
X6331515Y-17905508D01*
X6331515Y-17905508D02*
X6350562Y-17895984D01*
X6541039Y-17895984D02*
X6560086Y-17895984D01*
X6560086Y-17895984D02*
X6579134Y-17905508D01*
X6579134Y-17905508D02*
X6588658Y-17915031D01*
X6588658Y-17915031D02*
X6598182Y-17934079D01*
X6598182Y-17934079D02*
X6607705Y-17972174D01*
X6607705Y-17972174D02*
X6607705Y-18019793D01*
X6607705Y-18019793D02*
X6598182Y-18057889D01*
X6598182Y-18057889D02*
X6588658Y-18076936D01*
X6588658Y-18076936D02*
X6579134Y-18086460D01*
X6579134Y-18086460D02*
X6560086Y-18095984D01*
X6560086Y-18095984D02*
X6541039Y-18095984D01*
X6541039Y-18095984D02*
X6521991Y-18086460D01*
X6521991Y-18086460D02*
X6512467Y-18076936D01*
X6512467Y-18076936D02*
X6502943Y-18057889D01*
X6502943Y-18057889D02*
X6493420Y-18019793D01*
X6493420Y-18019793D02*
X6493420Y-17972174D01*
X6493420Y-17972174D02*
X6502943Y-17934079D01*
X6502943Y-17934079D02*
X6512467Y-17915031D01*
X6512467Y-17915031D02*
X6521991Y-17905508D01*
X6521991Y-17905508D02*
X6541039Y-17895984D01*
X6693420Y-18095984D02*
X6693420Y-17962650D01*
X6693420Y-17981698D02*
X6702943Y-17972174D01*
X6702943Y-17972174D02*
X6721991Y-17962650D01*
X6721991Y-17962650D02*
X6750563Y-17962650D01*
X6750563Y-17962650D02*
X6769610Y-17972174D01*
X6769610Y-17972174D02*
X6779134Y-17991222D01*
X6779134Y-17991222D02*
X6779134Y-18095984D01*
X6779134Y-17991222D02*
X6788658Y-17972174D01*
X6788658Y-17972174D02*
X6807705Y-17962650D01*
X6807705Y-17962650D02*
X6836277Y-17962650D01*
X6836277Y-17962650D02*
X6855324Y-17972174D01*
X6855324Y-17972174D02*
X6864848Y-17991222D01*
X6864848Y-17991222D02*
X6864848Y-18095984D01*
X6960086Y-18095984D02*
X6960086Y-17962650D01*
X6960086Y-17981698D02*
X6969610Y-17972174D01*
X6969610Y-17972174D02*
X6988658Y-17962650D01*
X6988658Y-17962650D02*
X7017229Y-17962650D01*
X7017229Y-17962650D02*
X7036277Y-17972174D01*
X7036277Y-17972174D02*
X7045801Y-17991222D01*
X7045801Y-17991222D02*
X7045801Y-18095984D01*
X7045801Y-17991222D02*
X7055324Y-17972174D01*
X7055324Y-17972174D02*
X7074372Y-17962650D01*
X7074372Y-17962650D02*
X7102943Y-17962650D01*
X7102943Y-17962650D02*
X7121991Y-17972174D01*
X7121991Y-17972174D02*
X7131515Y-17991222D01*
X7131515Y-17991222D02*
X7131515Y-18095984D01*
X7521991Y-17886460D02*
X7350563Y-18143603D01*
X7779134Y-17895984D02*
X7798182Y-17895984D01*
X7798182Y-17895984D02*
X7817229Y-17905508D01*
X7817229Y-17905508D02*
X7826753Y-17915031D01*
X7826753Y-17915031D02*
X7836277Y-17934079D01*
X7836277Y-17934079D02*
X7845801Y-17972174D01*
X7845801Y-17972174D02*
X7845801Y-18019793D01*
X7845801Y-18019793D02*
X7836277Y-18057889D01*
X7836277Y-18057889D02*
X7826753Y-18076936D01*
X7826753Y-18076936D02*
X7817229Y-18086460D01*
X7817229Y-18086460D02*
X7798182Y-18095984D01*
X7798182Y-18095984D02*
X7779134Y-18095984D01*
X7779134Y-18095984D02*
X7760086Y-18086460D01*
X7760086Y-18086460D02*
X7750563Y-18076936D01*
X7750563Y-18076936D02*
X7741039Y-18057889D01*
X7741039Y-18057889D02*
X7731515Y-18019793D01*
X7731515Y-18019793D02*
X7731515Y-17972174D01*
X7731515Y-17972174D02*
X7741039Y-17934079D01*
X7741039Y-17934079D02*
X7750563Y-17915031D01*
X7750563Y-17915031D02*
X7760086Y-17905508D01*
X7760086Y-17905508D02*
X7779134Y-17895984D01*
X7931515Y-18076936D02*
X7941039Y-18086460D01*
X7941039Y-18086460D02*
X7931515Y-18095984D01*
X7931515Y-18095984D02*
X7921991Y-18086460D01*
X7921991Y-18086460D02*
X7931515Y-18076936D01*
X7931515Y-18076936D02*
X7931515Y-18095984D01*
X8064848Y-17895984D02*
X8083896Y-17895984D01*
X8083896Y-17895984D02*
X8102944Y-17905508D01*
X8102944Y-17905508D02*
X8112467Y-17915031D01*
X8112467Y-17915031D02*
X8121991Y-17934079D01*
X8121991Y-17934079D02*
X8131515Y-17972174D01*
X8131515Y-17972174D02*
X8131515Y-18019793D01*
X8131515Y-18019793D02*
X8121991Y-18057889D01*
X8121991Y-18057889D02*
X8112467Y-18076936D01*
X8112467Y-18076936D02*
X8102944Y-18086460D01*
X8102944Y-18086460D02*
X8083896Y-18095984D01*
X8083896Y-18095984D02*
X8064848Y-18095984D01*
X8064848Y-18095984D02*
X8045801Y-18086460D01*
X8045801Y-18086460D02*
X8036277Y-18076936D01*
X8036277Y-18076936D02*
X8026753Y-18057889D01*
X8026753Y-18057889D02*
X8017229Y-18019793D01*
X8017229Y-18019793D02*
X8017229Y-17972174D01*
X8017229Y-17972174D02*
X8026753Y-17934079D01*
X8026753Y-17934079D02*
X8036277Y-17915031D01*
X8036277Y-17915031D02*
X8045801Y-17905508D01*
X8045801Y-17905508D02*
X8064848Y-17895984D01*
X8302944Y-17895984D02*
X8264848Y-17895984D01*
X8264848Y-17895984D02*
X8245801Y-17905508D01*
X8245801Y-17905508D02*
X8236277Y-17915031D01*
X8236277Y-17915031D02*
X8217229Y-17943603D01*
X8217229Y-17943603D02*
X8207706Y-17981698D01*
X8207706Y-17981698D02*
X8207706Y-18057889D01*
X8207706Y-18057889D02*
X8217229Y-18076936D01*
X8217229Y-18076936D02*
X8226753Y-18086460D01*
X8226753Y-18086460D02*
X8245801Y-18095984D01*
X8245801Y-18095984D02*
X8283896Y-18095984D01*
X8283896Y-18095984D02*
X8302944Y-18086460D01*
X8302944Y-18086460D02*
X8312467Y-18076936D01*
X8312467Y-18076936D02*
X8321991Y-18057889D01*
X8321991Y-18057889D02*
X8321991Y-18010270D01*
X8321991Y-18010270D02*
X8312467Y-17991222D01*
X8312467Y-17991222D02*
X8302944Y-17981698D01*
X8302944Y-17981698D02*
X8283896Y-17972174D01*
X8283896Y-17972174D02*
X8245801Y-17972174D01*
X8245801Y-17972174D02*
X8226753Y-17981698D01*
X8226753Y-17981698D02*
X8217229Y-17991222D01*
X8217229Y-17991222D02*
X8207706Y-18010270D01*
X8388658Y-17895984D02*
X8512468Y-17895984D01*
X8512468Y-17895984D02*
X8445801Y-17972174D01*
X8445801Y-17972174D02*
X8474372Y-17972174D01*
X8474372Y-17972174D02*
X8493420Y-17981698D01*
X8493420Y-17981698D02*
X8502944Y-17991222D01*
X8502944Y-17991222D02*
X8512468Y-18010270D01*
X8512468Y-18010270D02*
X8512468Y-18057889D01*
X8512468Y-18057889D02*
X8502944Y-18076936D01*
X8502944Y-18076936D02*
X8493420Y-18086460D01*
X8493420Y-18086460D02*
X8474372Y-18095984D01*
X8474372Y-18095984D02*
X8417229Y-18095984D01*
X8417229Y-18095984D02*
X8398182Y-18086460D01*
X8398182Y-18086460D02*
X8388658Y-18076936D01*
X8636277Y-17895984D02*
X8655325Y-17895984D01*
X8655325Y-17895984D02*
X8674372Y-17905508D01*
X8674372Y-17905508D02*
X8683896Y-17915031D01*
X8683896Y-17915031D02*
X8693420Y-17934079D01*
X8693420Y-17934079D02*
X8702944Y-17972174D01*
X8702944Y-17972174D02*
X8702944Y-18019793D01*
X8702944Y-18019793D02*
X8693420Y-18057889D01*
X8693420Y-18057889D02*
X8683896Y-18076936D01*
X8683896Y-18076936D02*
X8674372Y-18086460D01*
X8674372Y-18086460D02*
X8655325Y-18095984D01*
X8655325Y-18095984D02*
X8636277Y-18095984D01*
X8636277Y-18095984D02*
X8617229Y-18086460D01*
X8617229Y-18086460D02*
X8607706Y-18076936D01*
X8607706Y-18076936D02*
X8598182Y-18057889D01*
X8598182Y-18057889D02*
X8588658Y-18019793D01*
X8588658Y-18019793D02*
X8588658Y-17972174D01*
X8588658Y-17972174D02*
X8598182Y-17934079D01*
X8598182Y-17934079D02*
X8607706Y-17915031D01*
X8607706Y-17915031D02*
X8617229Y-17905508D01*
X8617229Y-17905508D02*
X8636277Y-17895984D01*
X8779134Y-17895984D02*
X8779134Y-17934079D01*
X8855325Y-17895984D02*
X8855325Y-17934079D01*
X9150563Y-18172174D02*
X9141039Y-18162650D01*
X9141039Y-18162650D02*
X9121991Y-18134079D01*
X9121991Y-18134079D02*
X9112468Y-18115031D01*
X9112468Y-18115031D02*
X9102944Y-18086460D01*
X9102944Y-18086460D02*
X9093420Y-18038841D01*
X9093420Y-18038841D02*
X9093420Y-18000746D01*
X9093420Y-18000746D02*
X9102944Y-17953127D01*
X9102944Y-17953127D02*
X9112468Y-17924555D01*
X9112468Y-17924555D02*
X9121991Y-17905508D01*
X9121991Y-17905508D02*
X9141039Y-17876936D01*
X9141039Y-17876936D02*
X9150563Y-17867412D01*
X9312468Y-17962650D02*
X9312468Y-18095984D01*
X9264849Y-17886460D02*
X9217230Y-18029317D01*
X9217230Y-18029317D02*
X9341039Y-18029317D01*
X9569611Y-18095984D02*
X9569611Y-17895984D01*
X9655325Y-18095984D02*
X9655325Y-17991222D01*
X9655325Y-17991222D02*
X9645801Y-17972174D01*
X9645801Y-17972174D02*
X9626753Y-17962650D01*
X9626753Y-17962650D02*
X9598182Y-17962650D01*
X9598182Y-17962650D02*
X9579134Y-17972174D01*
X9579134Y-17972174D02*
X9569611Y-17981698D01*
X9779134Y-18095984D02*
X9760087Y-18086460D01*
X9760087Y-18086460D02*
X9750563Y-18076936D01*
X9750563Y-18076936D02*
X9741039Y-18057889D01*
X9741039Y-18057889D02*
X9741039Y-18000746D01*
X9741039Y-18000746D02*
X9750563Y-17981698D01*
X9750563Y-17981698D02*
X9760087Y-17972174D01*
X9760087Y-17972174D02*
X9779134Y-17962650D01*
X9779134Y-17962650D02*
X9807706Y-17962650D01*
X9807706Y-17962650D02*
X9826753Y-17972174D01*
X9826753Y-17972174D02*
X9836277Y-17981698D01*
X9836277Y-17981698D02*
X9845801Y-18000746D01*
X9845801Y-18000746D02*
X9845801Y-18057889D01*
X9845801Y-18057889D02*
X9836277Y-18076936D01*
X9836277Y-18076936D02*
X9826753Y-18086460D01*
X9826753Y-18086460D02*
X9807706Y-18095984D01*
X9807706Y-18095984D02*
X9779134Y-18095984D01*
X9960087Y-18095984D02*
X9941039Y-18086460D01*
X9941039Y-18086460D02*
X9931515Y-18067412D01*
X9931515Y-18067412D02*
X9931515Y-17895984D01*
X10112468Y-18086460D02*
X10093420Y-18095984D01*
X10093420Y-18095984D02*
X10055325Y-18095984D01*
X10055325Y-18095984D02*
X10036277Y-18086460D01*
X10036277Y-18086460D02*
X10026753Y-18067412D01*
X10026753Y-18067412D02*
X10026753Y-17991222D01*
X10026753Y-17991222D02*
X10036277Y-17972174D01*
X10036277Y-17972174D02*
X10055325Y-17962650D01*
X10055325Y-17962650D02*
X10093420Y-17962650D01*
X10093420Y-17962650D02*
X10112468Y-17972174D01*
X10112468Y-17972174D02*
X10121992Y-17991222D01*
X10121992Y-17991222D02*
X10121992Y-18010270D01*
X10121992Y-18010270D02*
X10026753Y-18029317D01*
X10198182Y-18086460D02*
X10217230Y-18095984D01*
X10217230Y-18095984D02*
X10255325Y-18095984D01*
X10255325Y-18095984D02*
X10274373Y-18086460D01*
X10274373Y-18086460D02*
X10283896Y-18067412D01*
X10283896Y-18067412D02*
X10283896Y-18057889D01*
X10283896Y-18057889D02*
X10274373Y-18038841D01*
X10274373Y-18038841D02*
X10255325Y-18029317D01*
X10255325Y-18029317D02*
X10226753Y-18029317D01*
X10226753Y-18029317D02*
X10207706Y-18019793D01*
X10207706Y-18019793D02*
X10198182Y-18000746D01*
X10198182Y-18000746D02*
X10198182Y-17991222D01*
X10198182Y-17991222D02*
X10207706Y-17972174D01*
X10207706Y-17972174D02*
X10226753Y-17962650D01*
X10226753Y-17962650D02*
X10255325Y-17962650D01*
X10255325Y-17962650D02*
X10274373Y-17972174D01*
X10350563Y-18172174D02*
X10360087Y-18162650D01*
X10360087Y-18162650D02*
X10379134Y-18134079D01*
X10379134Y-18134079D02*
X10388658Y-18115031D01*
X10388658Y-18115031D02*
X10398182Y-18086460D01*
X10398182Y-18086460D02*
X10407706Y-18038841D01*
X10407706Y-18038841D02*
X10407706Y-18000746D01*
X10407706Y-18000746D02*
X10398182Y-17953127D01*
X10398182Y-17953127D02*
X10388658Y-17924555D01*
X10388658Y-17924555D02*
X10379134Y-17905508D01*
X10379134Y-17905508D02*
X10360087Y-17876936D01*
X10360087Y-17876936D02*
X10350563Y-17867412D01*
X5475500Y-18184500D02*
X5475500Y-18384500D01*
X5375500Y-18284500D02*
X5575500Y-18284500D01*
X5575500Y-18284500D02*
G75*
G02*
X5375500Y-18284500I-100000J0D01*
G01*
X5375500Y-18284500D02*
G75*
G02*
X5575500Y-18284500I100000J0D01*
G01*
X5817229Y-18175984D02*
X5941039Y-18175984D01*
X5941039Y-18175984D02*
X5874372Y-18252174D01*
X5874372Y-18252174D02*
X5902943Y-18252174D01*
X5902943Y-18252174D02*
X5921991Y-18261698D01*
X5921991Y-18261698D02*
X5931515Y-18271222D01*
X5931515Y-18271222D02*
X5941039Y-18290270D01*
X5941039Y-18290270D02*
X5941039Y-18337889D01*
X5941039Y-18337889D02*
X5931515Y-18356936D01*
X5931515Y-18356936D02*
X5921991Y-18366460D01*
X5921991Y-18366460D02*
X5902943Y-18375984D01*
X5902943Y-18375984D02*
X5845801Y-18375984D01*
X5845801Y-18375984D02*
X5826753Y-18366460D01*
X5826753Y-18366460D02*
X5817229Y-18356936D01*
X6026753Y-18356936D02*
X6036277Y-18366460D01*
X6036277Y-18366460D02*
X6026753Y-18375984D01*
X6026753Y-18375984D02*
X6017229Y-18366460D01*
X6017229Y-18366460D02*
X6026753Y-18356936D01*
X6026753Y-18356936D02*
X6026753Y-18375984D01*
X6112467Y-18195031D02*
X6121991Y-18185508D01*
X6121991Y-18185508D02*
X6141039Y-18175984D01*
X6141039Y-18175984D02*
X6188658Y-18175984D01*
X6188658Y-18175984D02*
X6207705Y-18185508D01*
X6207705Y-18185508D02*
X6217229Y-18195031D01*
X6217229Y-18195031D02*
X6226753Y-18214079D01*
X6226753Y-18214079D02*
X6226753Y-18233127D01*
X6226753Y-18233127D02*
X6217229Y-18261698D01*
X6217229Y-18261698D02*
X6102943Y-18375984D01*
X6102943Y-18375984D02*
X6226753Y-18375984D01*
X6350562Y-18175984D02*
X6369610Y-18175984D01*
X6369610Y-18175984D02*
X6388658Y-18185508D01*
X6388658Y-18185508D02*
X6398182Y-18195031D01*
X6398182Y-18195031D02*
X6407705Y-18214079D01*
X6407705Y-18214079D02*
X6417229Y-18252174D01*
X6417229Y-18252174D02*
X6417229Y-18299793D01*
X6417229Y-18299793D02*
X6407705Y-18337889D01*
X6407705Y-18337889D02*
X6398182Y-18356936D01*
X6398182Y-18356936D02*
X6388658Y-18366460D01*
X6388658Y-18366460D02*
X6369610Y-18375984D01*
X6369610Y-18375984D02*
X6350562Y-18375984D01*
X6350562Y-18375984D02*
X6331515Y-18366460D01*
X6331515Y-18366460D02*
X6321991Y-18356936D01*
X6321991Y-18356936D02*
X6312467Y-18337889D01*
X6312467Y-18337889D02*
X6302943Y-18299793D01*
X6302943Y-18299793D02*
X6302943Y-18252174D01*
X6302943Y-18252174D02*
X6312467Y-18214079D01*
X6312467Y-18214079D02*
X6321991Y-18195031D01*
X6321991Y-18195031D02*
X6331515Y-18185508D01*
X6331515Y-18185508D02*
X6350562Y-18175984D01*
X6541039Y-18175984D02*
X6560086Y-18175984D01*
X6560086Y-18175984D02*
X6579134Y-18185508D01*
X6579134Y-18185508D02*
X6588658Y-18195031D01*
X6588658Y-18195031D02*
X6598182Y-18214079D01*
X6598182Y-18214079D02*
X6607705Y-18252174D01*
X6607705Y-18252174D02*
X6607705Y-18299793D01*
X6607705Y-18299793D02*
X6598182Y-18337889D01*
X6598182Y-18337889D02*
X6588658Y-18356936D01*
X6588658Y-18356936D02*
X6579134Y-18366460D01*
X6579134Y-18366460D02*
X6560086Y-18375984D01*
X6560086Y-18375984D02*
X6541039Y-18375984D01*
X6541039Y-18375984D02*
X6521991Y-18366460D01*
X6521991Y-18366460D02*
X6512467Y-18356936D01*
X6512467Y-18356936D02*
X6502943Y-18337889D01*
X6502943Y-18337889D02*
X6493420Y-18299793D01*
X6493420Y-18299793D02*
X6493420Y-18252174D01*
X6493420Y-18252174D02*
X6502943Y-18214079D01*
X6502943Y-18214079D02*
X6512467Y-18195031D01*
X6512467Y-18195031D02*
X6521991Y-18185508D01*
X6521991Y-18185508D02*
X6541039Y-18175984D01*
X6693420Y-18375984D02*
X6693420Y-18242650D01*
X6693420Y-18261698D02*
X6702943Y-18252174D01*
X6702943Y-18252174D02*
X6721991Y-18242650D01*
X6721991Y-18242650D02*
X6750563Y-18242650D01*
X6750563Y-18242650D02*
X6769610Y-18252174D01*
X6769610Y-18252174D02*
X6779134Y-18271222D01*
X6779134Y-18271222D02*
X6779134Y-18375984D01*
X6779134Y-18271222D02*
X6788658Y-18252174D01*
X6788658Y-18252174D02*
X6807705Y-18242650D01*
X6807705Y-18242650D02*
X6836277Y-18242650D01*
X6836277Y-18242650D02*
X6855324Y-18252174D01*
X6855324Y-18252174D02*
X6864848Y-18271222D01*
X6864848Y-18271222D02*
X6864848Y-18375984D01*
X6960086Y-18375984D02*
X6960086Y-18242650D01*
X6960086Y-18261698D02*
X6969610Y-18252174D01*
X6969610Y-18252174D02*
X6988658Y-18242650D01*
X6988658Y-18242650D02*
X7017229Y-18242650D01*
X7017229Y-18242650D02*
X7036277Y-18252174D01*
X7036277Y-18252174D02*
X7045801Y-18271222D01*
X7045801Y-18271222D02*
X7045801Y-18375984D01*
X7045801Y-18271222D02*
X7055324Y-18252174D01*
X7055324Y-18252174D02*
X7074372Y-18242650D01*
X7074372Y-18242650D02*
X7102943Y-18242650D01*
X7102943Y-18242650D02*
X7121991Y-18252174D01*
X7121991Y-18252174D02*
X7131515Y-18271222D01*
X7131515Y-18271222D02*
X7131515Y-18375984D01*
X7521991Y-18166460D02*
X7350563Y-18423603D01*
X7779134Y-18175984D02*
X7798182Y-18175984D01*
X7798182Y-18175984D02*
X7817229Y-18185508D01*
X7817229Y-18185508D02*
X7826753Y-18195031D01*
X7826753Y-18195031D02*
X7836277Y-18214079D01*
X7836277Y-18214079D02*
X7845801Y-18252174D01*
X7845801Y-18252174D02*
X7845801Y-18299793D01*
X7845801Y-18299793D02*
X7836277Y-18337889D01*
X7836277Y-18337889D02*
X7826753Y-18356936D01*
X7826753Y-18356936D02*
X7817229Y-18366460D01*
X7817229Y-18366460D02*
X7798182Y-18375984D01*
X7798182Y-18375984D02*
X7779134Y-18375984D01*
X7779134Y-18375984D02*
X7760086Y-18366460D01*
X7760086Y-18366460D02*
X7750563Y-18356936D01*
X7750563Y-18356936D02*
X7741039Y-18337889D01*
X7741039Y-18337889D02*
X7731515Y-18299793D01*
X7731515Y-18299793D02*
X7731515Y-18252174D01*
X7731515Y-18252174D02*
X7741039Y-18214079D01*
X7741039Y-18214079D02*
X7750563Y-18195031D01*
X7750563Y-18195031D02*
X7760086Y-18185508D01*
X7760086Y-18185508D02*
X7779134Y-18175984D01*
X7931515Y-18356936D02*
X7941039Y-18366460D01*
X7941039Y-18366460D02*
X7931515Y-18375984D01*
X7931515Y-18375984D02*
X7921991Y-18366460D01*
X7921991Y-18366460D02*
X7931515Y-18356936D01*
X7931515Y-18356936D02*
X7931515Y-18375984D01*
X8131515Y-18375984D02*
X8017229Y-18375984D01*
X8074372Y-18375984D02*
X8074372Y-18175984D01*
X8074372Y-18175984D02*
X8055325Y-18204555D01*
X8055325Y-18204555D02*
X8036277Y-18223603D01*
X8036277Y-18223603D02*
X8017229Y-18233127D01*
X8207706Y-18195031D02*
X8217229Y-18185508D01*
X8217229Y-18185508D02*
X8236277Y-18175984D01*
X8236277Y-18175984D02*
X8283896Y-18175984D01*
X8283896Y-18175984D02*
X8302944Y-18185508D01*
X8302944Y-18185508D02*
X8312467Y-18195031D01*
X8312467Y-18195031D02*
X8321991Y-18214079D01*
X8321991Y-18214079D02*
X8321991Y-18233127D01*
X8321991Y-18233127D02*
X8312467Y-18261698D01*
X8312467Y-18261698D02*
X8198182Y-18375984D01*
X8198182Y-18375984D02*
X8321991Y-18375984D01*
X8493420Y-18175984D02*
X8455325Y-18175984D01*
X8455325Y-18175984D02*
X8436277Y-18185508D01*
X8436277Y-18185508D02*
X8426753Y-18195031D01*
X8426753Y-18195031D02*
X8407706Y-18223603D01*
X8407706Y-18223603D02*
X8398182Y-18261698D01*
X8398182Y-18261698D02*
X8398182Y-18337889D01*
X8398182Y-18337889D02*
X8407706Y-18356936D01*
X8407706Y-18356936D02*
X8417229Y-18366460D01*
X8417229Y-18366460D02*
X8436277Y-18375984D01*
X8436277Y-18375984D02*
X8474372Y-18375984D01*
X8474372Y-18375984D02*
X8493420Y-18366460D01*
X8493420Y-18366460D02*
X8502944Y-18356936D01*
X8502944Y-18356936D02*
X8512468Y-18337889D01*
X8512468Y-18337889D02*
X8512468Y-18290270D01*
X8512468Y-18290270D02*
X8502944Y-18271222D01*
X8502944Y-18271222D02*
X8493420Y-18261698D01*
X8493420Y-18261698D02*
X8474372Y-18252174D01*
X8474372Y-18252174D02*
X8436277Y-18252174D01*
X8436277Y-18252174D02*
X8417229Y-18261698D01*
X8417229Y-18261698D02*
X8407706Y-18271222D01*
X8407706Y-18271222D02*
X8398182Y-18290270D01*
X8636277Y-18175984D02*
X8655325Y-18175984D01*
X8655325Y-18175984D02*
X8674372Y-18185508D01*
X8674372Y-18185508D02*
X8683896Y-18195031D01*
X8683896Y-18195031D02*
X8693420Y-18214079D01*
X8693420Y-18214079D02*
X8702944Y-18252174D01*
X8702944Y-18252174D02*
X8702944Y-18299793D01*
X8702944Y-18299793D02*
X8693420Y-18337889D01*
X8693420Y-18337889D02*
X8683896Y-18356936D01*
X8683896Y-18356936D02*
X8674372Y-18366460D01*
X8674372Y-18366460D02*
X8655325Y-18375984D01*
X8655325Y-18375984D02*
X8636277Y-18375984D01*
X8636277Y-18375984D02*
X8617229Y-18366460D01*
X8617229Y-18366460D02*
X8607706Y-18356936D01*
X8607706Y-18356936D02*
X8598182Y-18337889D01*
X8598182Y-18337889D02*
X8588658Y-18299793D01*
X8588658Y-18299793D02*
X8588658Y-18252174D01*
X8588658Y-18252174D02*
X8598182Y-18214079D01*
X8598182Y-18214079D02*
X8607706Y-18195031D01*
X8607706Y-18195031D02*
X8617229Y-18185508D01*
X8617229Y-18185508D02*
X8636277Y-18175984D01*
X8779134Y-18175984D02*
X8779134Y-18214079D01*
X8855325Y-18175984D02*
X8855325Y-18214079D01*
X9150563Y-18452174D02*
X9141039Y-18442650D01*
X9141039Y-18442650D02*
X9121991Y-18414079D01*
X9121991Y-18414079D02*
X9112468Y-18395031D01*
X9112468Y-18395031D02*
X9102944Y-18366460D01*
X9102944Y-18366460D02*
X9093420Y-18318841D01*
X9093420Y-18318841D02*
X9093420Y-18280746D01*
X9093420Y-18280746D02*
X9102944Y-18233127D01*
X9102944Y-18233127D02*
X9112468Y-18204555D01*
X9112468Y-18204555D02*
X9121991Y-18185508D01*
X9121991Y-18185508D02*
X9141039Y-18156936D01*
X9141039Y-18156936D02*
X9150563Y-18147412D01*
X9312468Y-18242650D02*
X9312468Y-18375984D01*
X9264849Y-18166460D02*
X9217230Y-18309317D01*
X9217230Y-18309317D02*
X9341039Y-18309317D01*
X9569611Y-18375984D02*
X9569611Y-18175984D01*
X9655325Y-18375984D02*
X9655325Y-18271222D01*
X9655325Y-18271222D02*
X9645801Y-18252174D01*
X9645801Y-18252174D02*
X9626753Y-18242650D01*
X9626753Y-18242650D02*
X9598182Y-18242650D01*
X9598182Y-18242650D02*
X9579134Y-18252174D01*
X9579134Y-18252174D02*
X9569611Y-18261698D01*
X9779134Y-18375984D02*
X9760087Y-18366460D01*
X9760087Y-18366460D02*
X9750563Y-18356936D01*
X9750563Y-18356936D02*
X9741039Y-18337889D01*
X9741039Y-18337889D02*
X9741039Y-18280746D01*
X9741039Y-18280746D02*
X9750563Y-18261698D01*
X9750563Y-18261698D02*
X9760087Y-18252174D01*
X9760087Y-18252174D02*
X9779134Y-18242650D01*
X9779134Y-18242650D02*
X9807706Y-18242650D01*
X9807706Y-18242650D02*
X9826753Y-18252174D01*
X9826753Y-18252174D02*
X9836277Y-18261698D01*
X9836277Y-18261698D02*
X9845801Y-18280746D01*
X9845801Y-18280746D02*
X9845801Y-18337889D01*
X9845801Y-18337889D02*
X9836277Y-18356936D01*
X9836277Y-18356936D02*
X9826753Y-18366460D01*
X9826753Y-18366460D02*
X9807706Y-18375984D01*
X9807706Y-18375984D02*
X9779134Y-18375984D01*
X9960087Y-18375984D02*
X9941039Y-18366460D01*
X9941039Y-18366460D02*
X9931515Y-18347412D01*
X9931515Y-18347412D02*
X9931515Y-18175984D01*
X10112468Y-18366460D02*
X10093420Y-18375984D01*
X10093420Y-18375984D02*
X10055325Y-18375984D01*
X10055325Y-18375984D02*
X10036277Y-18366460D01*
X10036277Y-18366460D02*
X10026753Y-18347412D01*
X10026753Y-18347412D02*
X10026753Y-18271222D01*
X10026753Y-18271222D02*
X10036277Y-18252174D01*
X10036277Y-18252174D02*
X10055325Y-18242650D01*
X10055325Y-18242650D02*
X10093420Y-18242650D01*
X10093420Y-18242650D02*
X10112468Y-18252174D01*
X10112468Y-18252174D02*
X10121992Y-18271222D01*
X10121992Y-18271222D02*
X10121992Y-18290270D01*
X10121992Y-18290270D02*
X10026753Y-18309317D01*
X10198182Y-18366460D02*
X10217230Y-18375984D01*
X10217230Y-18375984D02*
X10255325Y-18375984D01*
X10255325Y-18375984D02*
X10274373Y-18366460D01*
X10274373Y-18366460D02*
X10283896Y-18347412D01*
X10283896Y-18347412D02*
X10283896Y-18337889D01*
X10283896Y-18337889D02*
X10274373Y-18318841D01*
X10274373Y-18318841D02*
X10255325Y-18309317D01*
X10255325Y-18309317D02*
X10226753Y-18309317D01*
X10226753Y-18309317D02*
X10207706Y-18299793D01*
X10207706Y-18299793D02*
X10198182Y-18280746D01*
X10198182Y-18280746D02*
X10198182Y-18271222D01*
X10198182Y-18271222D02*
X10207706Y-18252174D01*
X10207706Y-18252174D02*
X10226753Y-18242650D01*
X10226753Y-18242650D02*
X10255325Y-18242650D01*
X10255325Y-18242650D02*
X10274373Y-18252174D01*
X10350563Y-18452174D02*
X10360087Y-18442650D01*
X10360087Y-18442650D02*
X10379134Y-18414079D01*
X10379134Y-18414079D02*
X10388658Y-18395031D01*
X10388658Y-18395031D02*
X10398182Y-18366460D01*
X10398182Y-18366460D02*
X10407706Y-18318841D01*
X10407706Y-18318841D02*
X10407706Y-18280746D01*
X10407706Y-18280746D02*
X10398182Y-18233127D01*
X10398182Y-18233127D02*
X10388658Y-18204555D01*
X10388658Y-18204555D02*
X10379134Y-18185508D01*
X10379134Y-18185508D02*
X10360087Y-18156936D01*
X10360087Y-18156936D02*
X10350563Y-18147412D01*
M02*
